<svg width="633" height="444" viewBox="0 0 633 444" fill="none" xmlns="http://www.w3.org/2000/svg">
<g clip-path="url(#clip0_387_93)">
<path d="M517.017 278.453H109.328C106.545 278.45 103.877 277.342 101.909 275.374C99.9409 273.405 98.834 270.736 98.8308 267.952V16.4789C98.8331 14.4393 99.644 12.4839 101.086 11.0417C102.527 9.59951 104.482 8.78824 106.521 8.78589H519.691C521.765 8.78825 523.754 9.61353 525.22 11.0807C526.687 12.5478 527.512 14.537 527.514 16.6119V267.952C527.511 270.736 526.404 273.405 524.436 275.374C522.468 277.342 519.8 278.45 517.017 278.453Z" fill="#F2F2F2"/>
<path d="M502.145 263.582H122.189C116.619 263.582 112.088 259.338 112.088 254.12V35.134C112.088 31.2647 115.446 28.1166 119.573 28.1166H504.637C508.832 28.1166 512.246 31.3166 512.246 35.2496V254.12C512.246 259.338 507.714 263.582 502.145 263.582Z" fill="white"/>
<path d="M527.368 15.8782H98.6835V10.5322C98.6875 7.73899 99.799 5.06144 101.774 3.08696C103.749 1.11248 106.426 0.00230765 109.219 0H516.833C519.625 0.0022942 522.302 1.11246 524.277 3.08695C526.252 5.06143 527.364 7.73899 527.368 10.5322V15.8782Z" fill="#CCCCCC"/>
<path d="M117.83 10.6809C119.335 10.6809 120.555 9.46044 120.555 7.95495C120.555 6.44945 119.335 5.229 117.83 5.229C116.325 5.229 115.104 6.44945 115.104 7.95495C115.104 9.46044 116.325 10.6809 117.83 10.6809Z" fill="white"/>
<path d="M128.173 10.6809C129.678 10.6809 130.898 9.46044 130.898 7.95495C130.898 6.44945 129.678 5.229 128.173 5.229C126.668 5.229 125.448 6.44945 125.448 7.95495C125.448 9.46044 126.668 10.6809 128.173 10.6809Z" fill="white"/>
<path d="M138.517 10.6809C140.022 10.6809 141.242 9.46044 141.242 7.95495C141.242 6.44945 140.022 5.229 138.517 5.229C137.012 5.229 135.792 6.44945 135.792 7.95495C135.792 9.46044 137.012 10.6809 138.517 10.6809Z" fill="white"/>
<path d="M460.323 226.855H165.874C162.922 226.851 160.093 225.677 158.006 223.589C155.918 221.501 154.744 218.671 154.741 215.718V73.7041C154.743 71.4958 155.621 69.3787 157.182 67.8172C158.743 66.2557 160.86 65.3773 163.067 65.3748H462.997C465.24 65.3773 467.39 66.2697 468.976 67.8562C470.562 69.4426 471.454 71.5936 471.456 73.8371V215.718C471.453 218.671 470.279 221.501 468.192 223.589C466.105 225.677 463.275 226.851 460.323 226.855ZM163.067 66.6475C161.197 66.6497 159.404 67.3938 158.082 68.7167C156.759 70.0397 156.015 71.8333 156.013 73.7041V215.718C156.016 218.333 157.056 220.84 158.905 222.69C160.753 224.539 163.26 225.579 165.874 225.582H460.323C462.938 225.579 465.444 224.539 467.293 222.69C469.141 220.84 470.181 218.333 470.184 215.718V73.8371C470.182 71.931 469.424 70.1036 468.077 68.7557C466.729 67.4079 464.902 66.6497 462.997 66.6475H163.067Z" fill="#CCCCCC"/>
<path d="M176.053 215.718H450.144C452.844 215.718 455.433 214.645 457.342 212.736C459.251 210.826 460.323 208.236 460.323 205.536V86.8177C460.323 84.1172 459.251 81.5273 457.342 79.6177C455.433 77.7082 452.844 76.6354 450.144 76.6354H176.053C173.353 76.6354 170.764 77.7082 168.855 79.6177C166.947 81.5273 165.874 84.1172 165.874 86.8177V205.536C165.874 208.236 166.947 210.826 168.855 212.736C170.764 214.645 173.353 215.718 176.053 215.718Z" fill="#F2F2F2"/>
<path d="M207.175 111.175C210.337 111.175 212.9 108.611 212.9 105.447C212.9 102.284 210.337 99.7198 207.175 99.7198C204.012 99.7198 201.449 102.284 201.449 105.447C201.449 108.611 204.012 111.175 207.175 111.175Z" fill="#CCCCCC"/>
<path d="M207.175 132.812C210.337 132.812 212.9 130.248 212.9 127.085C212.9 123.922 210.337 121.357 207.175 121.357C204.012 121.357 201.449 123.922 201.449 127.085C201.449 130.248 204.012 132.812 207.175 132.812Z" fill="#CCCCCC"/>
<path d="M207.175 154.45C210.337 154.45 212.9 151.885 212.9 148.722C212.9 145.559 210.337 142.995 207.175 142.995C204.012 142.995 201.449 145.559 201.449 148.722C201.449 151.885 204.012 154.45 207.175 154.45Z" fill="#CCCCCC"/>
<path d="M207.175 176.087C210.337 176.087 212.9 173.523 212.9 170.36C212.9 167.196 210.337 164.632 207.175 164.632C204.012 164.632 201.449 167.196 201.449 170.36C201.449 173.523 204.012 176.087 207.175 176.087Z" fill="#CCCCCC"/>
<path d="M424.112 106.084H235.803C235.634 106.084 235.472 106.017 235.353 105.897C235.234 105.778 235.167 105.616 235.167 105.447C235.167 105.279 235.234 105.117 235.353 104.997C235.472 104.878 235.634 104.811 235.803 104.811H424.112C424.281 104.811 424.443 104.878 424.562 104.997C424.681 105.117 424.748 105.279 424.748 105.447C424.748 105.616 424.681 105.778 424.562 105.897C424.443 106.017 424.281 106.084 424.112 106.084Z" fill="#CCCCCC"/>
<path d="M424.112 127.721H235.803C235.634 127.721 235.472 127.654 235.353 127.535C235.234 127.415 235.167 127.254 235.167 127.085C235.167 126.916 235.234 126.754 235.353 126.635C235.472 126.515 235.634 126.448 235.803 126.448H424.112C424.281 126.448 424.443 126.515 424.562 126.635C424.681 126.754 424.748 126.916 424.748 127.085C424.748 127.254 424.681 127.415 424.562 127.535C424.443 127.654 424.281 127.721 424.112 127.721Z" fill="#CCCCCC"/>
<path d="M424.112 149.359H235.803C235.634 149.359 235.472 149.292 235.353 149.172C235.234 149.053 235.167 148.891 235.167 148.722C235.167 148.553 235.234 148.392 235.353 148.272C235.472 148.153 235.634 148.086 235.803 148.086H424.112C424.281 148.086 424.443 148.153 424.562 148.272C424.681 148.392 424.748 148.553 424.748 148.722C424.748 148.891 424.681 149.053 424.562 149.172C424.443 149.292 424.281 149.359 424.112 149.359Z" fill="#CCCCCC"/>
<path d="M424.112 170.996H235.803C235.634 170.996 235.472 170.929 235.353 170.81C235.234 170.69 235.167 170.528 235.167 170.36C235.167 170.191 235.234 170.029 235.353 169.91C235.472 169.79 235.634 169.723 235.803 169.723H424.112C424.281 169.723 424.443 169.79 424.562 169.91C424.681 170.029 424.748 170.191 424.748 170.36C424.748 170.528 424.681 170.69 424.562 170.81C424.443 170.929 424.281 170.996 424.112 170.996Z" fill="#CCCCCC"/>
<path d="M271.429 192.633H252.98C252.136 192.632 251.328 192.297 250.731 191.7C250.135 191.104 249.8 190.295 249.799 189.451V172.269C249.8 171.425 250.135 170.616 250.731 170.02C251.328 169.423 252.136 169.088 252.98 169.087H271.429C272.272 169.088 273.081 169.423 273.677 170.02C274.273 170.616 274.609 171.425 274.61 172.269V189.451C274.609 190.295 274.273 191.104 273.677 191.7C273.081 192.297 272.272 192.632 271.429 192.633Z" fill="url(#paint0_linear_387_93)"/>
<path d="M312.781 192.633H294.331C293.488 192.632 292.679 192.297 292.083 191.7C291.487 191.104 291.151 190.295 291.15 189.451V150.631C291.151 149.788 291.487 148.979 292.083 148.383C292.679 147.786 293.488 147.45 294.331 147.449H312.781C313.624 147.45 314.432 147.786 315.029 148.383C315.625 148.979 315.96 149.788 315.961 150.631V189.451C315.96 190.295 315.625 191.104 315.029 191.7C314.432 192.297 313.624 192.632 312.781 192.633Z" fill="url(#paint1_linear_387_93)"/>
<path d="M354.769 192.633H336.319C335.476 192.632 334.667 192.297 334.071 191.7C333.475 191.104 333.139 190.295 333.138 189.451V128.994C333.139 128.15 333.475 127.342 334.071 126.745C334.667 126.149 335.476 125.813 336.319 125.812H354.769C355.612 125.813 356.42 126.149 357.017 126.745C357.613 127.342 357.949 128.15 357.949 128.994V189.451C357.949 190.295 357.613 191.104 357.017 191.7C356.42 192.297 355.612 192.632 354.769 192.633Z" fill="url(#paint2_linear_387_93)"/>
<path d="M398.029 192.633H379.58C378.736 192.632 377.928 192.297 377.331 191.7C376.735 191.104 376.4 190.295 376.399 189.451V107.993C376.4 107.149 376.735 106.341 377.331 105.744C377.928 105.148 378.736 104.812 379.58 104.811H398.029C398.872 104.812 399.681 105.148 400.277 105.744C400.873 106.341 401.209 107.149 401.21 107.993V189.451C401.209 190.295 400.873 191.104 400.277 191.7C399.681 192.297 398.872 192.632 398.029 192.633Z" fill="url(#paint3_linear_387_93)"/>
<path d="M424.112 192.633H235.803C235.634 192.633 235.472 192.566 235.353 192.447C235.234 192.328 235.167 192.166 235.167 191.997C235.167 191.828 235.234 191.666 235.353 191.547C235.472 191.428 235.634 191.361 235.803 191.361H424.112C424.281 191.361 424.443 191.428 424.562 191.547C424.681 191.666 424.748 191.828 424.748 191.997C424.748 192.166 424.681 192.328 424.562 192.447C424.443 192.566 424.281 192.633 424.112 192.633Z" fill="#3F3D56"/>
<path d="M506.846 311.351C507.362 310.571 508.042 309.912 508.839 309.423C509.637 308.934 510.531 308.626 511.461 308.52C512.39 308.414 513.331 308.514 514.218 308.811C515.104 309.109 515.915 309.597 516.593 310.242L536.795 299.812L535.538 311.563L516.547 319.665C515.389 320.732 513.879 321.337 512.305 321.365C510.731 321.394 509.201 320.843 508.005 319.818C506.809 318.794 506.031 317.366 505.817 315.805C505.604 314.244 505.97 312.66 506.846 311.351Z" fill="#FFB8B8"/>
<path d="M524.228 315.734C523.77 315.374 523.432 314.883 523.259 314.326L521.652 309.134C521.48 308.571 521.484 307.969 521.664 307.409C521.845 306.849 522.193 306.358 522.662 306.002L539.036 293.63L556.769 260.721C557.512 259.764 558.436 258.962 559.488 258.363C560.541 257.763 561.701 257.376 562.902 257.225C564.104 257.074 565.324 257.161 566.492 257.481C567.66 257.801 568.753 258.349 569.71 259.092C570.667 259.835 571.468 260.759 572.067 261.812C572.667 262.864 573.053 264.025 573.204 265.227C573.355 266.429 573.268 267.649 572.948 268.818C572.628 269.986 572.081 271.08 571.338 272.037L561.249 293.337C558.188 299.802 552.883 304.935 546.322 307.781L527.133 316.107C526.764 316.267 526.366 316.347 525.963 316.343C525.561 316.339 525.165 316.25 524.799 316.082C524.596 315.989 524.404 315.872 524.228 315.734Z" fill="#3F3D56"/>
<path d="M571.784 246.986C580.413 246.986 587.409 239.988 587.409 231.355C587.409 222.723 580.413 215.725 571.784 215.725C563.154 215.725 556.158 222.723 556.158 231.355C556.158 239.988 563.154 246.986 571.784 246.986Z" fill="#FFB8B8"/>
<path d="M565.445 436.399L557.646 436.398L553.937 406.304L565.448 406.305L565.445 436.399Z" fill="#FFB8B8"/>
<path d="M552.075 434.169H567.117V443.643H542.604C542.604 442.398 542.849 441.167 543.325 440.017C543.801 438.868 544.498 437.823 545.378 436.944C546.257 436.064 547.301 435.366 548.45 434.89C549.599 434.414 550.831 434.169 552.075 434.169Z" fill="#2F2E41"/>
<path d="M590.892 436.4L583.093 436.4L579.384 406.305L590.896 406.306L590.892 436.4Z" fill="#FFB8B8"/>
<path d="M577.522 434.17H592.564V443.644H568.051C568.051 442.4 568.296 441.168 568.772 440.018C569.248 438.869 569.946 437.825 570.825 436.945C571.705 436.065 572.749 435.367 573.898 434.891C575.047 434.415 576.278 434.17 577.522 434.17Z" fill="#2F2E41"/>
<path d="M591.462 428.764L582.323 428.763C581.693 428.762 581.082 428.555 580.582 428.172C580.083 427.789 579.723 427.252 579.559 426.645L566.403 377.833C566.382 377.756 566.334 377.691 566.268 377.648C566.202 377.605 566.122 377.589 566.044 377.601C565.967 377.614 565.896 377.655 565.847 377.717C565.798 377.778 565.773 377.856 565.778 377.934L568.435 424.227C568.459 424.636 568.394 425.046 568.246 425.428C568.098 425.81 567.869 426.156 567.575 426.442C567.282 426.729 566.93 426.948 566.545 427.087C566.159 427.225 565.748 427.279 565.339 427.245L555.067 426.388C554.408 426.332 553.79 426.05 553.315 425.59C552.84 425.131 552.539 424.522 552.461 423.865L543.102 326.659L546.723 328.833L580.65 323.071L594.3 425.522C594.354 425.926 594.321 426.337 594.203 426.728C594.085 427.119 593.885 427.479 593.616 427.786C593.348 428.093 593.017 428.339 592.645 428.508C592.274 428.677 591.87 428.764 591.463 428.764H591.462Z" fill="#2F2E41"/>
<path d="M554.449 336.919C550.706 336.889 547.039 335.857 543.83 333.93C543.335 333.637 542.941 333.201 542.698 332.68C542.456 332.159 542.376 331.576 542.471 331.009C543.664 323.699 549.904 286.202 555.581 265.76C557.893 257.434 563.006 252.95 570.778 252.432C582.145 251.686 592.249 260.582 593.301 272.287C595.157 292.937 587.617 322.276 584.29 333.932C584.161 334.382 583.923 334.794 583.598 335.131C583.273 335.468 582.87 335.72 582.425 335.865C581.98 336.009 581.506 336.043 581.045 335.962C580.584 335.881 580.15 335.688 579.781 335.4L572.998 330.122C572.581 329.803 572.065 329.64 571.54 329.662C571.015 329.684 570.515 329.889 570.125 330.242C564.408 335.343 558.978 336.92 554.449 336.919Z" fill="#3F3D56"/>
<path opacity="0.2" d="M576.881 282.392L582.606 306.576L574.334 326.94L580.061 307.212L576.881 282.392Z" fill="black"/>
<path d="M580.7 244.209C582.09 244.235 583.471 243.985 584.764 243.474C585.332 243.254 585.923 243.074 586.491 242.855C591.505 240.917 594.808 235.575 594.927 230.2C595.045 224.824 592.262 219.606 588.13 216.167C583.998 212.728 578.645 210.962 573.285 210.554C567.512 210.114 561.01 211.578 557.784 216.388C556.925 217.668 556.324 219.221 556.833 220.767C556.986 221.234 557.258 221.652 557.623 221.98C559.063 223.262 560.5 222.298 561.968 222.213C563.987 222.096 565.8 223.731 566.452 225.646C567.104 227.561 566.817 229.669 566.29 231.622C565.889 232.797 565.637 234.018 565.538 235.256C565.495 235.877 565.612 236.498 565.877 237.061C566.142 237.624 566.546 238.11 567.051 238.473C568.312 239.236 569.969 238.794 571.231 238.033C572.493 237.271 573.584 236.212 574.948 235.652C576.311 235.092 578.143 235.216 578.936 236.459C579.188 236.911 579.359 237.404 579.441 237.915C580.152 241.158 579.988 240.967 580.7 244.209Z" fill="#2F2E41"/>
<path d="M556.481 414.567L458.639 380.481C456.96 379.894 455.582 378.665 454.808 377.063C454.034 375.462 453.927 373.618 454.51 371.937L479.936 298.906C480.365 297.675 481.266 296.666 482.439 296.099C483.612 295.531 484.962 295.453 486.193 295.88L587.343 331.118C588.594 331.555 589.62 332.472 590.197 333.665C590.774 334.859 590.854 336.233 590.42 337.486L565.022 410.437C564.435 412.117 563.206 413.495 561.605 414.269C560.004 415.043 558.161 415.15 556.481 414.567Z" fill="#E6E6E6"/>
<path d="M466.988 376.284L552.544 406.09C554.173 406.658 555.961 406.555 557.515 405.803C559.068 405.052 560.259 403.715 560.827 402.085L581.357 343.113C581.925 341.483 581.822 339.694 581.071 338.141C580.32 336.587 578.983 335.395 577.354 334.827L491.798 305.022C490.168 304.454 488.381 304.557 486.827 305.308C485.274 306.059 484.083 307.397 483.515 309.027L462.985 367.999C462.704 368.806 462.584 369.661 462.633 370.514C462.683 371.367 462.899 372.202 463.271 372.971C463.643 373.741 464.162 374.429 464.8 374.998C465.438 375.566 466.181 376.003 466.988 376.284Z" fill="white"/>
<path d="M488.472 334.851L484.235 333.375C484.006 333.295 483.817 333.126 483.711 332.907C483.605 332.688 483.591 332.436 483.67 332.206L485.146 327.967C485.226 327.738 485.394 327.549 485.613 327.443C485.833 327.337 486.085 327.323 486.315 327.402L490.552 328.878C490.781 328.959 490.97 329.127 491.076 329.346C491.182 329.565 491.196 329.817 491.117 330.047L489.641 334.286C489.561 334.516 489.393 334.704 489.173 334.81C488.954 334.916 488.702 334.931 488.472 334.851Z" fill="#EE9665"/>
<path d="M484.649 345.833L480.412 344.357C480.182 344.276 479.994 344.108 479.888 343.889C479.782 343.67 479.767 343.418 479.847 343.188L481.323 338.949C481.403 338.719 481.571 338.531 481.79 338.425C482.009 338.319 482.261 338.304 482.491 338.384L486.728 339.86C486.958 339.94 487.147 340.109 487.253 340.328C487.358 340.547 487.373 340.799 487.293 341.029L485.818 345.268C485.737 345.497 485.569 345.686 485.35 345.792C485.131 345.898 484.879 345.912 484.649 345.833Z" fill="#3F3D56"/>
<path d="M480.826 356.814L476.589 355.338C476.359 355.258 476.171 355.09 476.065 354.871C475.959 354.651 475.944 354.399 476.024 354.169L477.5 349.931C477.58 349.701 477.748 349.512 477.967 349.407C478.186 349.301 478.438 349.286 478.668 349.366L482.905 350.842C483.135 350.922 483.323 351.09 483.429 351.309C483.535 351.529 483.55 351.781 483.47 352.011L481.995 356.249C481.914 356.479 481.746 356.668 481.527 356.774C481.308 356.879 481.056 356.894 480.826 356.814Z" fill="#CCCCCC"/>
<path d="M516.944 342.394L496.529 335.281C496.415 335.242 496.31 335.18 496.219 335.1C496.129 335.02 496.055 334.923 496.003 334.814C495.95 334.706 495.919 334.588 495.912 334.467C495.905 334.347 495.922 334.226 495.962 334.112C496.002 333.998 496.063 333.893 496.144 333.802C496.224 333.712 496.321 333.639 496.43 333.587C496.539 333.534 496.657 333.504 496.778 333.497C496.898 333.49 497.019 333.507 497.133 333.547L517.548 340.66C517.662 340.699 517.767 340.761 517.858 340.841C517.948 340.921 518.021 341.018 518.074 341.127C518.127 341.235 518.158 341.353 518.165 341.474C518.172 341.595 518.155 341.715 518.115 341.829C518.075 341.943 518.014 342.049 517.933 342.139C517.853 342.229 517.755 342.302 517.647 342.355C517.538 342.407 517.42 342.437 517.299 342.444C517.179 342.451 517.058 342.434 516.944 342.394Z" fill="#CCCCCC"/>
<path d="M513.121 353.375L492.706 346.263C492.476 346.183 492.287 346.015 492.181 345.796C492.075 345.576 492.061 345.324 492.141 345.094C492.221 344.864 492.389 344.675 492.608 344.57C492.827 344.464 493.08 344.449 493.309 344.529L513.725 351.641C513.839 351.681 513.944 351.742 514.034 351.822C514.124 351.903 514.198 352 514.251 352.108C514.303 352.217 514.334 352.335 514.341 352.456C514.348 352.576 514.331 352.697 514.291 352.811C514.252 352.925 514.19 353.03 514.11 353.12C514.029 353.21 513.932 353.283 513.823 353.336C513.715 353.388 513.597 353.419 513.476 353.426C513.356 353.432 513.235 353.415 513.121 353.375Z" fill="#CCCCCC"/>
<path d="M509.298 364.357L488.883 357.245C488.653 357.165 488.464 356.997 488.358 356.777C488.252 356.558 488.238 356.306 488.318 356.076C488.398 355.846 488.566 355.657 488.785 355.551C489.004 355.445 489.256 355.431 489.486 355.511L509.901 362.623C510.131 362.703 510.32 362.871 510.426 363.09C510.532 363.31 510.546 363.562 510.466 363.792C510.386 364.022 510.218 364.211 509.999 364.317C509.78 364.422 509.528 364.437 509.298 364.357Z" fill="#CCCCCC"/>
<path d="M563.627 370.307C563.775 369.95 563.916 369.587 564.044 369.217C565.722 364.398 565.418 359.108 563.197 354.513C560.977 349.918 557.022 346.394 552.204 344.715L545.494 363.99L563.627 370.307Z" fill="url(#paint4_linear_387_93)"/>
<path d="M543.542 365.162L550.253 345.888C546.707 344.652 542.876 344.482 539.235 345.398C535.593 346.314 532.299 348.276 529.758 351.042C527.218 353.809 525.542 357.258 524.938 360.966C524.334 364.673 524.828 368.476 526.359 371.906C527.89 375.336 530.391 378.243 533.554 380.268C536.717 382.294 540.403 383.348 544.158 383.303C547.913 383.258 551.572 382.114 554.685 380.013C557.798 377.912 560.228 374.946 561.675 371.48L543.542 365.162Z" fill="#3F3D56"/>
<path d="M567.566 337.513C567.49 336.581 567.619 335.643 567.945 334.766C568.27 333.889 568.784 333.094 569.45 332.437C570.116 331.78 570.918 331.277 571.799 330.964C572.68 330.651 573.619 330.534 574.55 330.623L584.012 309.945L590.273 319.967L580.328 338.067C580.075 339.622 579.26 341.029 578.039 342.023C576.817 343.018 575.274 343.529 573.701 343.461C572.128 343.392 570.634 342.749 569.503 341.653C568.373 340.557 567.683 339.084 567.566 337.513Z" fill="#FFB8B8"/>
<path d="M583.947 330.231C583.364 330.231 582.795 330.054 582.316 329.722L577.848 326.628C577.365 326.292 576.997 325.816 576.794 325.263C576.59 324.711 576.561 324.11 576.711 323.541L581.962 303.698L575.614 266.855C575.607 265.642 575.838 264.441 576.296 263.318C576.753 262.195 577.427 261.173 578.28 260.311C579.132 259.449 580.146 258.764 581.263 258.294C582.381 257.825 583.58 257.58 584.792 257.574C586.004 257.568 587.205 257.801 588.327 258.26C589.449 258.719 590.469 259.395 591.33 260.248C592.19 261.102 592.874 262.117 593.343 263.235C593.811 264.354 594.054 265.553 594.058 266.766L599.26 289.754C600.84 296.731 599.833 304.045 596.426 310.334L586.463 328.732C586.271 329.085 586.007 329.395 585.688 329.639C585.369 329.884 585.002 330.059 584.611 330.153C584.393 330.205 584.171 330.231 583.947 330.231Z" fill="#3F3D56"/>
<path d="M632.364 444H511.489C511.321 444 511.159 443.933 511.04 443.814C510.92 443.694 510.853 443.532 510.853 443.364C510.853 443.195 510.92 443.033 511.04 442.914C511.159 442.794 511.321 442.727 511.489 442.727H632.364C632.533 442.727 632.694 442.794 632.814 442.914C632.933 443.033 633 443.195 633 443.364C633 443.532 632.933 443.694 632.814 443.814C632.694 443.933 632.533 444 632.364 444Z" fill="#CCCCCC"/>
<path d="M312.073 436.082L319.872 436.081L323.583 405.988H312.072L312.073 436.082Z" fill="#A0616A"/>
<path d="M310.083 433.535L325.443 433.534H325.444C326.729 433.534 328.002 433.787 329.19 434.279C330.378 434.772 331.457 435.493 332.366 436.402C333.275 437.311 333.996 438.391 334.487 439.579C334.979 440.767 335.233 442.04 335.233 443.326V443.644L310.084 443.645L310.083 433.535Z" fill="#2F2E41"/>
<path d="M280.9 436.082L288.7 436.081L292.41 405.988H280.899L280.9 436.082Z" fill="#A0616A"/>
<path d="M278.911 433.535L294.27 433.534H294.271C295.557 433.534 296.829 433.787 298.017 434.279C299.205 434.772 300.284 435.493 301.193 436.402C302.102 437.311 302.823 438.391 303.315 439.579C303.807 440.767 304.06 442.04 304.06 443.326V443.644L278.911 443.645L278.911 433.535Z" fill="#2F2E41"/>
<path d="M313.63 227.739C322.259 227.739 329.255 220.741 329.255 212.108C329.255 203.476 322.259 196.478 313.63 196.478C305 196.478 298.004 203.476 298.004 212.108C298.004 220.741 305 227.739 313.63 227.739Z" fill="#A0616A"/>
<path d="M324.137 429.587H309.664C309.285 429.587 308.91 429.512 308.56 429.365C308.21 429.219 307.893 429.005 307.627 428.736C307.361 428.466 307.151 428.146 307.009 427.795C306.867 427.443 306.796 427.067 306.801 426.688L307.642 357.938C307.645 357.694 307.555 357.458 307.389 357.278C307.223 357.099 306.995 356.99 306.752 356.973C306.508 356.957 306.267 357.035 306.079 357.19C305.891 357.346 305.77 357.568 305.74 357.81L297.317 427.069C297.232 427.764 296.896 428.403 296.373 428.866C295.849 429.33 295.174 429.586 294.475 429.587H279.863C279.468 429.587 279.077 429.505 278.716 429.347C278.354 429.189 278.029 428.958 277.761 428.668C277.493 428.378 277.288 428.036 277.158 427.663C277.029 427.29 276.978 426.894 277.008 426.5L286.658 302.992L286.92 302.963L333.125 297.971L326.997 426.859C326.963 427.595 326.646 428.289 326.114 428.797C325.581 429.305 324.873 429.588 324.137 429.587Z" fill="#2F2E41"/>
<path d="M287.22 310.574C286.478 310.572 285.765 310.282 285.233 309.764C284.701 309.247 284.39 308.542 284.368 307.8C284.115 299.991 283.683 272.969 288.708 253.13C290.079 247.711 293.157 242.877 297.487 239.343C301.816 235.808 307.168 233.762 312.751 233.505C318.245 233.205 323.695 234.643 328.326 237.616C332.958 240.588 336.536 244.944 338.553 250.066C346.999 271.514 354.978 297.952 345.03 302.099C331.992 307.533 297.62 309.955 287.396 310.568C287.337 310.572 287.278 310.574 287.22 310.574Z" fill="#3F3D56"/>
<path d="M346.939 196.31C347.185 196.563 347.45 196.795 347.732 197.006L346.092 228.524L339.269 232.018L343.195 243.007L355.874 237.996C356.898 237.591 357.763 236.865 358.34 235.926C358.916 234.987 359.173 233.887 359.071 232.79L355.75 197.037C356.836 196.226 357.651 195.103 358.084 193.818C358.517 192.532 358.549 191.145 358.175 189.841C357.801 188.537 357.039 187.378 355.991 186.518C354.942 185.658 353.657 185.137 352.305 185.026C350.954 184.914 349.6 185.217 348.425 185.893C347.25 186.57 346.308 187.589 345.725 188.814C345.143 190.039 344.947 191.412 345.164 192.751C345.381 194.09 346 195.332 346.939 196.31Z" fill="#A0616A"/>
<path d="M346.221 229.697L351.021 243.341C351.157 243.729 351.208 244.142 351.171 244.552C351.134 244.962 351.008 245.359 350.804 245.716C350.599 246.073 350.32 246.382 349.985 246.621C349.651 246.86 349.268 247.025 348.865 247.103L334.712 249.844C332.723 250.532 330.542 250.403 328.648 249.485C326.753 248.566 325.301 246.934 324.608 244.946C323.915 242.957 324.038 240.775 324.951 238.878C325.864 236.981 327.492 235.523 329.478 234.824L342.185 228.115C342.549 227.923 342.95 227.812 343.361 227.789C343.771 227.766 344.182 227.831 344.565 227.982C344.948 228.132 345.294 228.363 345.58 228.659C345.866 228.955 346.085 229.309 346.221 229.697V229.697Z" fill="#3F3D56"/>
<path d="M279.258 196.31C279.013 196.563 278.748 196.795 278.465 197.006L280.106 228.524L286.928 232.018L283.003 243.007L270.324 237.996C269.299 237.591 268.434 236.865 267.857 235.926C267.281 234.987 267.024 233.887 267.126 232.79L270.448 197.037C269.361 196.226 268.547 195.103 268.113 193.818C267.68 192.532 267.648 191.145 268.022 189.841C268.396 188.537 269.158 187.378 270.207 186.518C271.255 185.658 272.541 185.137 273.892 185.026C275.244 184.914 276.597 185.217 277.773 185.893C278.948 186.57 279.889 187.589 280.472 188.814C281.054 190.039 281.25 191.412 281.034 192.751C280.817 194.09 280.197 195.332 279.258 196.31H279.258Z" fill="#A0616A"/>
<path d="M281.632 227.982C282.015 227.831 282.426 227.765 282.837 227.788C283.248 227.811 283.649 227.923 284.012 228.115L296.719 234.824C298.705 235.523 300.333 236.981 301.246 238.878C302.159 240.775 302.283 242.957 301.59 244.946C300.897 246.934 299.444 248.566 297.55 249.485C295.655 250.403 293.474 250.532 291.485 249.845L277.333 247.103C276.929 247.025 276.547 246.86 276.212 246.621C275.877 246.382 275.598 246.073 275.394 245.716C275.189 245.359 275.064 244.962 275.026 244.552C274.989 244.142 275.04 243.729 275.177 243.341L279.976 229.697C280.113 229.309 280.331 228.955 280.617 228.659C280.903 228.363 281.249 228.132 281.632 227.982Z" fill="#3F3D56"/>
<path d="M319.698 214.773C319.616 212.779 320.116 210.804 321.138 209.09C322.159 207.376 323.657 205.996 325.45 205.12C330.199 202.667 333.183 197.435 331.876 192.658C330.202 186.543 321.882 182.577 315.141 184.681C313.316 185.329 311.557 186.147 309.885 187.124L305.481 189.486C303.6 190.428 301.786 191.499 300.052 192.692C297.455 194.606 295.42 197.183 294.159 200.153C292.897 203.123 292.457 206.377 292.882 209.576C293.749 215.792 297.819 221.494 303.39 225.397C305.521 226.99 307.982 228.084 310.591 228.599C313.261 229.039 316.234 228.539 318.187 226.877C321.238 224.281 320.923 219.934 319.936 216.303C319.805 215.802 319.726 215.289 319.698 214.773Z" fill="#2F2E41"/>
<path d="M372.802 444H251.928C251.759 444 251.597 443.933 251.478 443.814C251.359 443.694 251.292 443.532 251.292 443.364C251.292 443.195 251.359 443.033 251.478 442.914C251.597 442.794 251.759 442.727 251.928 442.727H372.802C372.971 442.727 373.133 442.794 373.252 442.914C373.371 443.033 373.438 443.195 373.438 443.364C373.438 443.532 373.371 443.694 373.252 443.814C373.133 443.933 372.971 444 372.802 444Z" fill="#CCCCCC"/>
<path d="M175.529 327.904L75.7899 368.835C74.077 369.536 72.1562 369.528 70.4489 368.814C68.7415 368.1 67.3872 366.738 66.6828 365.026L36.1513 290.578C35.6381 289.323 35.6437 287.915 36.1667 286.664C36.6898 285.413 37.6876 284.42 38.9413 283.904L142.052 241.589C143.328 241.067 144.76 241.073 146.032 241.605C147.305 242.137 148.314 243.153 148.839 244.429L179.337 318.794C180.037 320.508 180.03 322.429 179.316 324.137C178.602 325.845 177.24 327.2 175.529 327.904Z" fill="#E6E6E6"/>
<path d="M79.4027 359.806L166.617 324.014C168.278 323.333 169.6 322.019 170.293 320.362C170.985 318.706 170.992 316.841 170.31 315.18L145.656 255.064C145.319 254.242 144.823 253.494 144.196 252.863C143.57 252.232 142.826 251.731 142.006 251.388C141.186 251.045 140.306 250.867 139.417 250.864C138.528 250.861 137.648 251.033 136.825 251.37L49.6107 287.162C48.7883 287.499 48.0405 287.995 47.4098 288.622C46.7792 289.248 46.2781 289.993 45.9352 290.813C45.5922 291.634 45.4142 292.514 45.4112 293.403C45.4082 294.292 45.5802 295.173 45.9176 295.996L70.5716 356.111C70.909 356.934 71.405 357.682 72.0314 358.313C72.6578 358.944 73.4022 359.445 74.2223 359.788C75.0423 360.131 75.9219 360.309 76.8107 360.312C77.6996 360.315 78.5803 360.143 79.4027 359.806Z" fill="white"/>
<path d="M145.174 271.459L143.892 271.985L143.98 272.199L145.262 271.673L145.174 271.459Z" fill="#E6E6E6"/>
<path d="M141.389 273.262L138.799 274.325L138.711 274.111L141.302 273.048L141.389 273.262ZM136.209 275.388L133.618 276.451L133.531 276.237L136.121 275.174L136.209 275.388ZM131.028 277.514L128.438 278.577L128.35 278.363L130.94 277.3L131.028 277.514ZM125.847 279.64L123.257 280.703L123.169 280.489L125.759 279.426L125.847 279.64ZM120.666 281.766L118.076 282.829L117.988 282.616L120.579 281.552L120.666 281.766ZM115.486 283.892L112.895 284.955L112.808 284.742L115.398 283.679L115.486 283.892ZM110.305 286.018L107.715 287.082L107.627 286.868L110.217 285.805L110.305 286.018ZM105.124 288.145L102.534 289.208L102.446 288.994L105.036 287.931L105.124 288.145ZM99.9434 290.271L97.3531 291.334L97.2654 291.12L99.8558 290.057L99.9434 290.271ZM94.7627 292.397L92.1723 293.46L92.0847 293.246L94.675 292.183L94.7627 292.397ZM89.5819 294.523L86.9916 295.586L86.9039 295.372L89.4943 294.309L89.5819 294.523ZM84.4012 296.649L81.8108 297.712L81.7231 297.498L84.3135 296.435L84.4012 296.649ZM79.2204 298.775L76.6301 299.838L76.5424 299.624L79.1328 298.561L79.2204 298.775ZM74.0397 300.901L71.4493 301.964L71.3616 301.75L73.952 300.687L74.0397 300.901ZM68.8589 303.027L66.2686 304.09L66.1809 303.877L68.7713 302.813L68.8589 303.027ZM63.6782 305.153L61.0878 306.216L61.0001 306.003L63.5905 304.94L63.6782 305.153Z" fill="#E6E6E6"/>
<path d="M58.4098 307.066L57.1276 307.592L57.2152 307.806L58.4975 307.279L58.4098 307.066Z" fill="#E6E6E6"/>
<path d="M111.228 308.617L109.946 309.144L110.033 309.357L111.315 308.831L111.228 308.617Z" fill="#E6E6E6"/>
<path d="M107.481 310.405L104.929 311.452L104.842 311.238L107.394 310.191L107.481 310.405ZM102.377 312.499L99.8256 313.546L99.7379 313.333L102.29 312.285L102.377 312.499ZM97.2737 314.594L94.7218 315.641L94.6341 315.427L97.186 314.38L97.2737 314.594ZM92.1699 316.688L89.618 317.736L89.5303 317.522L92.0822 316.474L92.1699 316.688ZM87.0661 318.783L84.5142 319.83L84.4265 319.616L86.9784 318.569L87.0661 318.783ZM81.9623 320.877L79.4104 321.925L79.3227 321.711L81.8746 320.664L81.9623 320.877ZM76.8585 322.972L74.3066 324.019L74.2189 323.805L76.7708 322.758L76.8585 322.972ZM71.7547 325.066L69.2028 326.114L69.1151 325.9L71.667 324.853L71.7547 325.066Z" fill="#E6E6E6"/>
<path d="M66.5632 326.947L65.281 327.473L65.3687 327.687L66.6509 327.161L66.5632 326.947Z" fill="#E6E6E6"/>
<path d="M90.0818 328.285L88.7996 328.811L88.8872 329.025L90.1695 328.498L90.0818 328.285Z" fill="#E6E6E6"/>
<path d="M86.2617 330.102L83.6362 331.18L83.5485 330.966L86.174 329.888L86.2617 330.102ZM81.0106 332.257L78.3851 333.335L78.2974 333.121L80.9229 332.043L81.0106 332.257ZM75.7596 334.412L73.1341 335.49L73.0464 335.276L75.6719 334.198L75.7596 334.412Z" fill="#E6E6E6"/>
<path d="M70.4209 336.353L69.1387 336.879L69.2263 337.093L70.5086 336.567L70.4209 336.353Z" fill="#E6E6E6"/>
<path d="M96.6648 344.337L95.3826 344.863L95.4702 345.077L96.7525 344.55L96.6648 344.337Z" fill="#E6E6E6"/>
<path d="M92.8448 346.154L90.2193 347.232L90.1316 347.018L92.7571 345.94L92.8448 346.154ZM87.5937 348.309L84.9682 349.387L84.8806 349.173L87.5061 348.095L87.5937 348.309ZM82.3427 350.464L79.7172 351.542L79.6295 351.328L82.255 350.25L82.3427 350.464Z" fill="#E6E6E6"/>
<path d="M77.0039 352.405L75.7217 352.931L75.8094 353.145L77.0916 352.619L77.0039 352.405Z" fill="#E6E6E6"/>
<path d="M83.1058 350.342L157.014 320.012C158.803 319.275 160.227 317.859 160.973 316.074C161.719 314.289 161.727 312.281 160.995 310.49L146.062 274.078L145.918 274.142L127.781 317.523L114.329 311.897C114.081 311.793 113.812 311.747 113.543 311.764C113.274 311.781 113.013 311.859 112.779 311.994C112.429 312.205 112.158 312.525 112.008 312.906L102.503 335.639L92.6677 331.526C92.4554 331.437 92.2278 331.391 91.9977 331.39C91.7677 331.39 91.5397 331.434 91.3269 331.522C91.114 331.609 90.9205 331.737 90.7573 331.9C90.5941 332.062 90.4644 332.255 90.3757 332.467C90.3128 332.621 84.2484 347.505 83.1058 350.342Z" fill="url(#paint5_linear_387_93)"/>
<path d="M82.8784 350.685L82.6653 350.596L90.2706 332.404C90.4719 331.924 90.8554 331.543 91.337 331.345C91.8186 331.148 92.3589 331.149 92.8394 331.35L102.48 335.383L111.932 312.775C112.133 312.295 112.517 311.914 112.998 311.716C113.48 311.519 114.02 311.52 114.5 311.721L127.758 317.267L145.988 273.659L146.201 273.748L127.882 317.569L114.411 311.934C114.201 311.846 113.976 311.801 113.749 311.8C113.521 311.799 113.296 311.843 113.085 311.929C112.875 312.016 112.684 312.143 112.522 312.303C112.361 312.464 112.232 312.654 112.145 312.864L102.604 335.685L92.7503 331.563C92.3264 331.386 91.8496 331.385 91.4247 331.559C90.9998 331.734 90.6614 332.069 90.4836 332.493L82.8784 350.685Z" fill="#3F3D56"/>
<path d="M90.1256 330.009C91.0186 330.009 91.7425 329.285 91.7425 328.392C91.7425 327.498 91.0186 326.774 90.1256 326.774C89.2326 326.774 88.5087 327.498 88.5087 328.392C88.5087 329.285 89.2326 330.009 90.1256 330.009Z" fill="#3F3D56"/>
<path d="M111.272 310.342C112.165 310.342 112.889 309.618 112.889 308.724C112.889 307.831 112.165 307.107 111.272 307.107C110.379 307.107 109.655 307.831 109.655 308.724C109.655 309.618 110.379 310.342 111.272 310.342Z" fill="#3F3D56"/>
<path d="M144.198 273.126C145.091 273.126 145.815 272.402 145.815 271.509C145.815 270.615 145.091 269.891 144.198 269.891C143.305 269.891 142.581 270.615 142.581 271.509C142.581 272.402 143.305 273.126 144.198 273.126Z" fill="#3F3D56"/>
<path d="M53.6943 326.556C54.5349 326.138 55.2735 325.54 55.8582 324.805C56.4428 324.07 56.8593 323.216 57.0783 322.303C57.2972 321.39 57.3133 320.439 57.1255 319.519C56.9376 318.599 56.5503 317.731 55.9909 316.977L60.7932 270.008H50.415L46.5985 315.871C45.394 316.895 44.607 318.325 44.3864 319.891C44.1659 321.457 44.5272 323.049 45.4018 324.366C46.2765 325.683 47.6037 326.634 49.1321 327.037C50.6605 327.441 52.2837 327.27 53.6943 326.556Z" fill="#FFB8B8"/>
<path d="M63.2234 244.087C71.3326 244.087 77.9065 237.511 77.9065 229.399C77.9065 221.287 71.3326 214.711 63.2234 214.711C55.1141 214.711 48.5403 221.287 48.5403 229.399C48.5403 237.511 55.1141 244.087 63.2234 244.087Z" fill="#FFB8B8"/>
<path d="M65.9876 297.361C65.3999 297.361 64.8284 297.168 64.3609 296.812C63.8934 296.455 63.5557 295.955 63.3996 295.389C62.2232 291.113 59.1626 283.884 54.303 273.902C53.2064 271.645 52.5992 269.182 52.5212 266.675C52.4431 264.167 52.896 261.671 53.8501 259.351C54.8042 257.03 56.2379 254.938 58.0572 253.211C59.8765 251.484 62.0403 250.161 64.4067 249.329C66.6491 248.537 69.0276 248.203 71.4015 248.346C73.7753 248.49 76.0962 249.108 78.2269 250.165C80.3576 251.222 82.2548 252.695 83.8063 254.498C85.3577 256.301 86.532 258.397 87.2595 260.662C91.0262 272.475 90.8443 285.129 90.5913 290.021C90.5598 290.61 90.3362 291.173 89.9546 291.623C89.5731 292.072 89.0546 292.385 88.4786 292.512L66.5646 297.299C66.3751 297.341 66.1816 297.361 65.9876 297.361Z" fill="#FF6584"/>
<path d="M87.2089 436.837H94.5377L98.0246 408.557L87.2076 408.558L87.2089 436.837Z" fill="#FFB8B8"/>
<path d="M108.673 443.644L85.6385 443.645L85.6381 434.742L99.7729 434.742C100.942 434.742 102.099 434.972 103.179 435.419C104.258 435.867 105.24 436.522 106.066 437.349C106.892 438.176 107.548 439.157 107.995 440.237C108.443 441.317 108.673 442.475 108.673 443.644Z" fill="#2F2E41"/>
<path d="M13.9209 427.335L20.3438 430.867L37.0194 407.768L27.5409 402.554L13.9209 427.335Z" fill="#FFB8B8"/>
<path d="M29.4513 443.645L9.26622 432.544L13.5538 424.743L25.9401 431.555C28.0085 432.692 29.5404 434.605 30.1989 436.872C30.8573 439.14 30.5884 441.576 29.4513 443.645Z" fill="#2F2E41"/>
<path d="M86.8665 421.141C86.2134 421.14 85.5828 420.902 85.0924 420.47C84.602 420.039 84.2852 419.444 84.2012 418.796L75.0353 348.141C74.9948 347.828 74.8566 347.536 74.6404 347.307C74.4243 347.078 74.1412 346.923 73.8317 346.864C73.5222 346.805 73.202 346.846 72.917 346.98C72.6319 347.114 72.3965 347.335 72.2443 347.611L34.0444 416.94C33.7292 417.506 33.2214 417.94 32.6133 418.163C32.0053 418.387 31.3373 418.384 30.7309 418.156L22.4044 414.983C22.0695 414.855 21.7635 414.662 21.5043 414.414C21.2451 414.167 21.0379 413.87 20.895 413.541C20.7521 413.212 20.6763 412.858 20.6721 412.5C20.6679 412.141 20.7353 411.786 20.8705 411.454L47.3325 346.427C47.3995 346.261 47.4449 346.088 47.4677 345.911C51.0518 318.161 60.1711 304.049 62.8805 300.385C63.0784 300.116 63.2087 299.803 63.2603 299.473C63.3119 299.143 63.2833 298.805 63.177 298.488L62.8045 297.37C62.6557 296.926 62.6252 296.452 62.716 295.993C62.8068 295.534 63.0158 295.106 63.3222 294.753C73.0854 283.629 90.1022 289.699 90.273 289.761L90.3583 289.793L90.4117 289.866C109.493 316.043 102.438 401.064 100.83 417.842C100.77 418.473 100.489 419.062 100.036 419.505C99.5842 419.948 98.9898 420.217 98.3584 420.264L87.0754 421.133C87.0053 421.138 86.9356 421.141 86.8665 421.141Z" fill="#2F2E41"/>
<path d="M120.306 246.461C120.232 246.784 120.185 247.112 120.163 247.442L94.4819 262.262L88.2398 258.667L81.5853 267.382L92.0175 274.82C92.8603 275.421 93.8752 275.732 94.9098 275.707C95.9444 275.681 96.943 275.321 97.7555 274.68L124.237 253.782C125.432 254.224 126.733 254.292 127.968 253.977C129.203 253.661 130.312 252.977 131.149 252.016C131.986 251.054 132.51 249.861 132.652 248.594C132.794 247.327 132.547 246.047 131.944 244.924C131.341 243.801 130.41 242.888 129.276 242.307C128.142 241.726 126.857 241.504 125.594 241.671C124.331 241.838 123.148 242.386 122.203 243.241C121.259 244.097 120.597 245.22 120.306 246.461Z" fill="#FFB8B8"/>
<path d="M93.6233 262.964L85.3233 273.725C85.0872 274.031 84.7878 274.283 84.4457 274.463C84.1035 274.643 83.7266 274.747 83.3406 274.768C82.9546 274.789 82.5686 274.727 82.2088 274.585C81.849 274.444 81.524 274.226 81.2558 273.948L71.8597 264.187C70.3006 262.97 69.2878 261.183 69.0433 259.22C68.7988 257.257 69.3426 255.276 70.5555 253.713C71.7683 252.15 73.5512 251.132 75.5133 250.882C77.4754 250.632 79.4565 251.171 81.0223 252.38L92.8071 258.972C93.1444 259.161 93.4371 259.42 93.6653 259.732C93.8934 260.044 94.0516 260.402 94.129 260.781C94.2065 261.16 94.2014 261.551 94.1142 261.928C94.0269 262.304 93.8595 262.658 93.6233 262.964Z" fill="#FF6584"/>
<path d="M61.4537 281.659L48.0829 279.244C47.7025 279.176 47.3413 279.026 47.024 278.805C46.7067 278.584 46.4407 278.297 46.2442 277.964C46.0477 277.631 45.9253 277.26 45.8852 276.875C45.8452 276.49 45.8884 276.102 46.0121 275.735L50.3467 262.897C50.7091 260.952 51.8278 259.23 53.4575 258.109C55.0873 256.987 57.095 256.558 59.0405 256.916C60.986 257.273 62.7105 258.387 63.8358 260.015C64.9611 261.642 65.3954 263.649 65.0434 265.596L64.6205 279.096C64.6083 279.483 64.5129 279.862 64.3409 280.209C64.1689 280.555 63.9243 280.86 63.6238 281.103C63.3232 281.347 62.9738 281.522 62.5993 281.618C62.2248 281.714 61.8341 281.728 61.4536 281.659H61.4537Z" fill="#FF6584"/>
<path d="M65.5474 226.021C69.3213 228.605 74.2764 231.261 78.1309 228.509C79.3365 227.591 80.2124 226.306 80.6274 224.848C81.0424 223.39 80.9741 221.837 80.4328 220.421C78.5872 215.141 73.5164 212.817 68.6674 211.035C62.3637 208.719 55.5 206.877 48.9925 208.535C42.4849 210.194 36.7338 216.497 37.9085 223.111C38.8532 228.43 43.8688 232.856 43.1568 238.211C42.4402 243.6 36.3812 246.437 31.0321 247.4C25.6829 248.363 19.6972 248.673 15.853 252.516C10.949 257.419 12.1736 266.183 16.788 271.36C21.4025 276.536 28.3659 278.883 35.1135 280.478C44.0536 282.592 53.7231 283.702 62.214 280.195C70.7049 276.687 77.3123 267.245 74.8526 258.391C73.8137 254.651 71.3662 251.49 69.0009 248.413C66.6355 245.336 64.2404 242.119 63.3381 238.343C62.5862 235.197 63.1427 231.545 65.2283 229.185C65.6076 228.772 65.8463 228.249 65.9102 227.692C65.974 227.134 65.8597 226.571 65.5836 226.083L65.5474 226.021Z" fill="#2F2E41"/>
<path d="M121.511 444H0.636181C0.467455 444 0.30564 443.933 0.186333 443.814C0.0670255 443.694 0 443.532 0 443.364C0 443.195 0.0670255 443.033 0.186333 442.914C0.30564 442.794 0.467455 442.727 0.636181 442.727H121.511C121.679 442.727 121.841 442.794 121.96 442.914C122.08 443.033 122.147 443.195 122.147 443.364C122.147 443.532 122.08 443.694 121.96 443.814C121.841 443.933 121.679 444 121.511 444Z" fill="#CCCCCC"/>
</g>
<defs>
<linearGradient id="paint0_linear_387_93" x1="240.383" y1="172.917" x2="280.672" y2="191.401" gradientUnits="userSpaceOnUse">
<stop stop-color="#EE6593"/>
<stop offset="1" stop-color="#EE9665"/>
</linearGradient>
<linearGradient id="paint1_linear_387_93" x1="281.734" y1="154.8" x2="327.866" y2="165.829" gradientUnits="userSpaceOnUse">
<stop stop-color="#EE6593"/>
<stop offset="1" stop-color="#EE9665"/>
</linearGradient>
<linearGradient id="paint2_linear_387_93" x1="323.722" y1="136.682" x2="371.249" y2="144.366" gradientUnits="userSpaceOnUse">
<stop stop-color="#EE6593"/>
<stop offset="1" stop-color="#EE9665"/>
</linearGradient>
<linearGradient id="paint3_linear_387_93" x1="366.983" y1="119.098" x2="415.024" y2="125.007" gradientUnits="userSpaceOnUse">
<stop stop-color="#EE6593"/>
<stop offset="1" stop-color="#EE9665"/>
</linearGradient>
<linearGradient id="paint4_linear_387_93" x1="538.048" y1="348.879" x2="572.748" y2="360.462" gradientUnits="userSpaceOnUse">
<stop stop-color="#EE6593"/>
<stop offset="1" stop-color="#EE9665"/>
</linearGradient>
<linearGradient id="paint5_linear_387_93" x1="53.3396" y1="286.484" x2="181.759" y2="343.987" gradientUnits="userSpaceOnUse">
<stop stop-color="#EE6593"/>
<stop offset="1" stop-color="#EE9665"/>
</linearGradient>
<clipPath id="clip0_387_93">
<rect width="633" height="444" fill="white"/>
</clipPath>
</defs>
</svg>
