<svg fill="none" xmlns="http://www.w3.org/2000/svg" viewBox="0 0 358.1 377.05">
<g clip-path="url(#clip0_259_244)">
<path d="M288.164 377.048H169.841C152.095 377.048 137.656 362.614 137.656 344.872V32.1756C137.656 14.434 152.095 0 169.841 0H288.164C305.91 0 320.348 14.434 320.348 32.1756C322.551 157.745 326.307 298.363 320.348 344.872C320.348 362.614 305.91 377.048 288.164 377.048L288.164 377.048Z" fill="#3F3D56"/>
<path d="M321.998 115.02C321.247 115.02 320.637 115.631 320.637 116.381V159.939C320.637 160.69 321.247 161.3 321.998 161.3C322.749 161.3 323.36 160.69 323.36 159.939V116.381C323.36 115.631 322.749 115.02 321.998 115.02Z" fill="#3F3D56"/>
<path d="M317.285 32.1758V344.867C317.285 360.309 305.262 372.941 290.06 373.921H290.053C289.829 373.935 289.604 373.948 289.373 373.955C288.971 373.976 288.569 373.982 288.161 373.982C288.161 373.982 286.663 373.874 283.926 373.669C281.162 373.465 277.139 373.159 272.121 372.757C270.617 372.642 269.031 372.512 267.356 372.376C264.02 372.104 260.357 371.805 256.429 371.464C254.863 371.335 253.243 371.192 251.589 371.049C243.133 370.321 233.663 369.47 223.676 368.504C221.988 368.347 220.286 368.184 218.57 368.014C218.121 367.966 140.72 348.515 140.72 344.867V32.1758C140.72 16.0935 153.757 3.06012 169.845 3.06012H187.232C190.01 3.06012 192.243 5.22439 192.481 7.99441C192.501 8.17818 192.522 8.36191 192.556 8.54569C193.06 11.3293 195.613 13.269 198.445 13.269H259.561C262.393 13.269 264.946 11.3293 265.45 8.54569C265.484 8.36192 265.504 8.17819 265.524 7.99441C265.763 5.2244 267.996 3.06012 270.773 3.06012H288.161C304.248 3.06012 317.285 16.0935 317.285 32.1758H317.285Z" fill="white"/>
<path d="M136.976 82.3517C136.225 82.3517 135.614 82.9622 135.614 83.7129V94.6023C135.614 95.353 136.225 95.9635 136.976 95.9635C137.727 95.9635 138.337 95.353 138.337 94.6023V83.7129C138.337 82.9622 137.727 82.3517 136.976 82.3517Z" fill="#3F3D56"/>
<path d="M136.976 115.02C136.225 115.02 135.614 115.631 135.614 116.381V137.48C135.614 138.23 136.225 138.841 136.976 138.841C137.727 138.841 138.337 138.23 138.337 137.48V116.381C138.337 115.63 137.727 115.02 136.976 115.02V115.02Z" fill="#3F3D56"/>
<path d="M136.976 144.966C136.225 144.966 135.614 145.577 135.614 146.327V167.426C135.614 168.176 136.225 168.787 136.976 168.787C137.727 168.787 138.337 168.176 138.337 167.426V146.327C138.337 145.577 137.727 144.966 136.976 144.966Z" fill="#3F3D56"/>
<path d="M186.785 7.8269H160.692C160.566 7.8269 160.463 7.92938 160.463 8.05579V11.001C160.463 11.1274 160.566 11.2299 160.692 11.2299H186.785C186.911 11.2299 187.014 11.1274 187.014 11.001V8.05579C187.014 7.92938 186.911 7.8269 186.785 7.8269Z" fill="#E6E6E6"/>
<path d="M275.076 11.2299C276.58 11.2299 277.799 10.011 277.799 8.50752C277.799 7.004 276.58 5.78516 275.076 5.78516C273.572 5.78516 272.353 7.004 272.353 8.50752C272.353 10.011 273.572 11.2299 275.076 11.2299Z" fill="#E6E6E6"/>
<path d="M282.564 11.2299C284.068 11.2299 285.288 10.011 285.288 8.50752C285.288 7.004 284.068 5.78516 282.564 5.78516C281.061 5.78516 279.841 7.004 279.841 8.50752C279.841 10.011 281.061 11.2299 282.564 11.2299Z" fill="#E6E6E6"/>
<path d="M290.053 11.2299C291.557 11.2299 292.776 10.011 292.776 8.50752C292.776 7.004 291.557 5.78516 290.053 5.78516C288.549 5.78516 287.33 7.004 287.33 8.50752C287.33 10.011 288.549 11.2299 290.053 11.2299Z" fill="#E6E6E6"/>
<path d="M139.594 371.355L131.296 371.354L127.348 339.354L139.596 339.355L139.594 371.355Z" fill="#FFB6B6"/>
<path d="M111.162 371.167C110.904 371.602 110.767 373.006 110.767 373.512C110.767 375.067 112.028 376.328 113.584 376.328H139.284C140.345 376.328 141.205 375.468 141.205 374.407V373.337C141.205 373.337 142.477 370.122 139.859 366.16C139.859 366.16 136.606 369.262 131.745 364.403L130.311 361.807L119.935 369.393L114.183 370.101C112.925 370.256 111.809 370.077 111.162 371.167H111.162V371.167H111.162Z" fill="#2F2E41"/>
<path d="M93.7012 326.908L85.4025 326.881L81.5564 294.868L93.8045 294.908L93.7012 326.908Z" fill="#FFB6B6"/>
<path d="M65.2695 326.63C65.0097 327.064 64.8689 328.468 64.8673 328.974C64.8624 330.529 66.1194 331.793 67.675 331.798L93.375 331.88C94.4362 331.883 95.2992 331.026 95.3026 329.965L95.306 328.895C95.306 328.895 96.5875 325.685 93.9826 321.714C93.9826 321.714 90.7196 324.806 85.8739 319.931L84.4487 317.33L74.048 324.884L68.2942 325.574C67.0354 325.724 65.9203 325.542 65.2696 326.63H65.2695V326.63Z" fill="#2F2E41"/>
<path d="M127.491 177.085L117.158 177.823C117.158 177.823 82.1763 197.706 79.224 202.133C76.2717 206.56 72.2123 212.832 75.9027 219.473C79.593 226.114 76.7843 306.52 76.7843 306.52L94.419 302.532L105.718 218.405L129.336 215.085C129.336 215.085 137.455 232.596 134.502 247.082C131.55 261.569 130.074 270.424 130.074 270.424L126.384 356.015L140.776 355.646L153.692 276.326L175.835 213.609L147.05 179.668L127.491 177.085Z" fill="#2F2E41"/>
<path d="M178.418 86.329L157.014 88.5425L154.799 95.9211L134.133 106.989L140.776 153.474L135.61 161.59L137.824 169.707C137.824 169.707 131.919 170.444 132.657 174.872L119.372 177.085C119.372 177.085 136.993 180.681 140.73 198.436C144.466 216.191 175.466 218.405 175.466 218.405L199.822 142.406L202.036 97.3968L185.06 92.9697L178.418 86.329Z" fill="#E6E6E6"/>
<path d="M167.138 83.5291C176.327 83.5291 183.777 76.0817 183.777 66.8949C183.777 57.7081 176.327 50.2607 167.138 50.2607C157.948 50.2607 150.498 57.7081 150.498 66.8949C150.498 76.0817 157.948 83.5291 167.138 83.5291Z" fill="#FFB6B6"/>
<path d="M158.49 81.9018C158.49 81.9018 143.728 81.164 145.205 69.3583C141.551 56.7865 144.785 48.6239 156.276 45.7469C156.276 45.7469 159.228 45.0091 159.966 45.0091C169.674 45.0091 174.727 47.9605 174.727 47.9605C174.727 47.9605 173.989 45.0381 174.727 45.7615C175.466 46.4848 176.204 47.9605 176.204 47.9605C176.204 47.9605 183.584 51.6498 183.584 59.0283C183.584 66.4069 183.584 63.4555 183.584 63.4555C183.584 63.4555 182.108 63.4555 180.632 59.0283C179.156 54.6012 169.599 57.5526 169.599 57.5526L170.299 59.0283L168.085 58.2905L165.871 60.504L164.394 59.7662C164.394 59.7662 158.49 59.7662 159.228 59.7662C159.966 59.7662 159.452 64.7806 159.452 64.7806L154.061 70.834L159.966 81.9018H158.49Z" fill="#2F2E41"/>
<path d="M79.8449 169.968C75.6427 172.26 73.4194 176.286 74.8788 178.959C76.3382 181.633 80.9278 181.941 85.1299 179.648C86.9693 178.645 88.4295 177.309 89.3677 175.9L107.051 165.962L102.21 157.765L85.2908 168.432C83.5979 168.459 81.6843 168.964 79.8449 169.968H79.8449Z" fill="#FFB6B6"/>
<path d="M139.48 107.333C139.48 107.333 132.548 104.695 130.159 107.871C127.771 111.047 111.993 149.585 111.993 149.585L88.8445 161.671L95.3542 173.004L125.163 163.083L144.83 127.124L139.48 107.333Z" fill="#E6E6E6"/>
<path d="M358.076 233.898V312.111C358.076 319.027 352.447 324.654 345.529 324.654H152.153C145.235 324.654 139.606 319.027 139.606 312.111V233.898C139.606 226.982 145.235 221.355 152.153 221.355H345.529C352.447 221.355 358.076 226.982 358.076 233.898Z" fill="white"/>
<path d="M358.076 233.898V312.111C358.076 319.027 352.447 324.654 345.529 324.654H152.153C145.235 324.654 139.606 319.027 139.606 312.111V233.898C139.606 226.982 145.235 221.355 152.153 221.355H345.529C352.447 221.355 358.076 226.982 358.076 233.898ZM345.529 323.179C351.643 323.179 356.6 318.223 356.6 312.111V272.679C356.6 245.148 334.275 222.83 306.736 222.83H152.153C146.039 222.83 141.082 227.786 141.082 233.898V312.111C141.082 318.223 146.039 323.179 152.153 323.179H345.529Z" fill="#3F3D56"/>
<path d="M226.411 268.608H201.154C200.517 268.608 199.999 269.126 199.999 269.762C199.999 270.399 200.517 270.917 201.154 270.917H226.411C227.048 270.917 227.566 270.399 227.566 269.762C227.566 269.126 227.048 268.608 226.411 268.608Z" fill="#EE6593"/>
<path d="M264.791 268.608H239.534C238.897 268.608 238.379 269.126 238.379 269.762C238.379 270.399 238.897 270.917 239.534 270.917H264.791C265.428 270.917 265.946 270.399 265.946 269.762C265.946 269.126 265.428 268.608 264.791 268.608Z" fill="#EE6593"/>
<path d="M226.411 281.23H201.154C200.517 281.23 199.999 281.748 199.999 282.384C199.999 283.021 200.517 283.539 201.154 283.539H226.411C227.048 283.539 227.566 283.021 227.566 282.384C227.566 281.748 227.048 281.23 226.411 281.23Z" fill="#EE6593"/>
<path d="M264.791 281.23H239.534C238.897 281.23 238.379 281.748 238.379 282.384C238.379 283.021 238.897 283.539 239.534 283.539H264.791C265.428 283.539 265.946 283.021 265.946 282.384C265.946 281.748 265.428 281.23 264.791 281.23Z" fill="#EE6593"/>
<path d="M304.326 282.384C304.326 281.748 303.808 281.23 303.171 281.23H277.914C277.277 281.23 276.759 281.748 276.759 282.384C276.759 283.021 277.277 283.539 277.914 283.539H303.171C303.808 283.539 304.326 283.021 304.326 282.384Z" fill="#EE6593"/>
<path d="M211.65 258.53C212.287 258.53 212.804 258.012 212.804 257.375C212.804 256.739 212.287 256.221 211.65 256.221H186.392C185.756 256.221 185.238 256.739 185.238 257.375C185.238 258.012 185.756 258.53 186.392 258.53H211.65Z" fill="#EE6593"/>
<path d="M286.032 258.06H311.29C311.926 258.06 312.444 257.542 312.444 256.906C312.444 256.269 311.926 255.751 311.29 255.751H286.032C285.396 255.751 284.877 256.269 284.877 256.906C284.877 257.542 285.396 258.06 286.032 258.06Z" fill="#EE6593"/>
<path d="M222.29 258.303H274.654C275.291 258.303 275.809 257.785 275.809 257.149C275.809 256.512 275.291 255.994 274.654 255.994H222.29C221.653 255.994 221.135 256.512 221.135 257.149C221.135 257.785 221.653 258.303 222.29 258.303Z" fill="#EE6593"/>
<path d="M242.893 292.697H217.635C216.999 292.697 216.48 293.215 216.48 293.852C216.48 294.488 216.999 295.006 217.635 295.006H242.893C243.529 295.006 244.047 294.488 244.047 293.852C244.047 293.215 243.529 292.697 242.893 292.697Z" fill="#EE6593"/>
<path d="M324.465 233.309V311.521C324.465 318.438 318.837 324.065 311.918 324.065H233.682C226.764 324.065 221.135 318.438 221.135 311.521V233.309C221.135 226.392 226.764 220.765 233.682 220.765H311.918C318.837 220.765 324.465 226.392 324.465 233.309Z" fill="white"/>
<path d="M324.465 233.309V311.521C324.465 318.438 318.837 324.065 311.918 324.065H233.682C226.764 324.065 221.135 318.438 221.135 311.521V233.309C221.135 226.392 226.764 220.765 233.682 220.765H311.918C318.837 220.765 324.465 226.392 324.465 233.309ZM307.065 322.589C315.86 322.589 322.989 315.461 322.989 306.669V272.09C322.989 244.559 300.665 222.241 273.126 222.241H233.682C227.568 222.241 222.611 227.196 222.611 233.309V300.609C222.611 312.748 232.455 322.589 244.598 322.589H307.065V322.589H307.065Z" fill="#3F3D56"/>
<path d="M283.215 252.708H257.957C257.321 252.708 256.803 252.191 256.803 251.554C256.803 250.917 257.321 250.4 257.957 250.4H283.215C283.852 250.4 284.369 250.917 284.369 251.554C284.369 252.191 283.852 252.708 283.215 252.708V252.708Z" fill="#EE6593"/>
<path d="M283.215 277.326H257.957C257.321 277.326 256.803 276.808 256.803 276.172C256.803 275.535 257.321 275.017 257.957 275.017H283.215C283.852 275.017 284.369 275.535 284.369 276.172C284.369 276.808 283.852 277.326 283.215 277.326V277.326Z" fill="#EE6593"/>
<path d="M270.668 311.267H245.41C244.773 311.267 244.255 310.749 244.255 310.113C244.255 309.476 244.773 308.958 245.41 308.958H270.668C271.304 308.958 271.822 309.476 271.822 310.113C271.822 310.749 271.304 311.267 270.668 311.267V311.267Z" fill="#EE6593"/>
<path d="M296.768 265.025H244.404C243.767 265.025 243.249 264.507 243.249 263.871C243.249 263.234 243.767 262.716 244.404 262.716H296.768C297.405 262.716 297.923 263.234 297.923 263.871C297.923 264.507 297.405 265.025 296.768 265.025V265.025Z" fill="#EE6593"/>
<path d="M309.745 189.969C309.745 165.57 289.117 152.148 265.554 145.791C235.344 137.641 213.219 154.134 221.363 189.969C223.209 198.091 227.623 207.577 233.088 215.691H276.453C290.938 206.263 309.745 208.907 309.745 189.969H309.745Z" fill="#EE9665"/>
<path d="M264.905 236.092C267.372 231.391 270.499 228 273.945 225.418H233.329C243.782 240.346 257.646 249.927 264.905 236.092Z" fill="#EE9665"/>
<path d="M260.218 163.849C262.826 163.849 264.94 165.963 264.94 168.569V178.009H255.497V168.569C255.497 165.963 257.611 163.849 260.218 163.849ZM267.3 178.009V168.569C267.3 164.659 264.13 161.49 260.218 161.49C256.307 161.49 253.136 164.659 253.136 168.569V178.009C250.529 178.009 248.415 180.122 248.415 182.729V194.529C248.415 197.136 250.529 199.249 253.136 199.249H267.3C269.908 199.249 272.022 197.136 272.022 194.529V182.729C272.022 180.122 269.908 178.009 267.3 178.009H267.3ZM253.136 180.369H267.3C268.604 180.369 269.661 181.426 269.661 182.729V194.529C269.661 195.832 268.604 196.889 267.3 196.889H253.136C251.833 196.889 250.776 195.832 250.776 194.529V182.729C250.776 181.426 251.833 180.369 253.136 180.369Z" fill="white"/>
<path d="M192.748 218.806C192.179 223.558 194.17 227.703 197.194 228.065C200.219 228.428 203.133 224.869 203.702 220.117C203.951 218.037 203.71 216.073 203.106 214.492L205.265 194.327L195.778 193.515L194.656 213.48C193.696 214.874 192.997 216.726 192.748 218.806Z" fill="#FFB6B6"/>
<path d="M195.024 98.5035C195.024 98.5035 205.358 95.5521 207.572 99.9792C209.786 104.406 214.952 162.697 214.952 162.697L204.988 209.225L193.548 206.23L199.453 159.008L191.334 123.591L195.024 98.5035Z" fill="#E6E6E6"/>
<path d="M43.1773 240.053C67.0235 240.053 86.3546 220.728 86.3546 196.889C86.3546 173.05 67.0235 153.724 43.1773 153.724C19.3311 153.724 0 173.05 0 196.889C0 220.728 19.3311 240.053 43.1773 240.053Z" fill="url(#paint0_linear_259_244)"/>
<path d="M43.1773 177.565C46.2274 177.565 48.7 180.037 48.7 183.086V194.128H37.6546V183.086C37.6546 180.037 40.1272 177.565 43.1773 177.565ZM51.4613 194.128V183.086C51.4613 178.512 47.7525 174.805 43.1773 174.805C38.6022 174.805 34.8933 178.512 34.8933 183.086V194.128C31.8432 194.128 29.3706 196.6 29.3706 199.649V213.452C29.3706 216.501 31.8432 218.973 34.8933 218.973H51.4613C54.5114 218.973 56.984 216.501 56.984 213.452V199.649C56.984 196.6 54.5114 194.128 51.4613 194.128H51.4613ZM34.8933 196.889H51.4613C52.9864 196.889 54.2227 198.125 54.2227 199.649V213.452C54.2227 214.976 52.9864 216.212 51.4613 216.212H34.8933C33.3683 216.212 32.132 214.976 32.132 213.452V199.649C32.132 198.125 33.3682 196.889 34.8933 196.889Z" fill="white"/>
</g>
<defs>
<linearGradient id="paint0_linear_259_244" x1="-32.7728" y1="167.768" x2="109.904" y2="229.907" gradientUnits="userSpaceOnUse">
<stop stop-color="#EE6593"/>
<stop offset="1" stop-color="#EE9665"/>
</linearGradient>
<clipPath id="clip0_259_244">
<rect width="417" height="378" fill="white"/>
</clipPath>
</defs>
</svg>