<svg width="123" height="112" viewBox="0 0 123 112" fill="none" xmlns="http://www.w3.org/2000/svg">
<path d="M119.034 14.2896H8.11867C6.07416 14.2896 4.41675 15.947 4.41675 17.9915V86.3502C4.41675 88.3947 6.07416 90.0521 8.11867 90.0521H119.034C121.078 90.0521 122.736 88.3947 122.736 86.3502V17.9915C122.736 15.947 121.078 14.2896 119.034 14.2896Z" fill="white"/>
<path d="M119.034 90.3163H8.11869C7.06718 90.3149 6.05914 89.8966 5.31561 89.153C4.57208 88.4095 4.15374 87.4015 4.15234 86.3499V17.9965C4.15374 16.9445 4.5719 15.936 5.31528 15.1916C6.05866 14.4472 7.06669 14.0277 8.11869 14.0249H119.034C120.086 14.0277 121.094 14.4472 121.837 15.1916C122.58 15.936 122.999 16.9445 123 17.9965V86.3499C122.999 87.4015 122.58 88.4095 121.837 89.153C121.093 89.8966 120.085 90.3149 119.034 90.3163ZM8.11869 14.5537C7.20652 14.5551 6.33219 14.9185 5.68769 15.564C5.04318 16.2095 4.68119 17.0844 4.68119 17.9965V86.3499C4.68259 87.2612 5.0452 88.1347 5.68956 88.7791C6.33391 89.4234 7.20744 89.786 8.11869 89.7875H119.034C119.945 89.786 120.818 89.4234 121.463 88.7791C122.107 88.1347 122.47 87.2612 122.471 86.3499V17.9965C122.471 17.0844 122.109 16.2095 121.465 15.564C120.82 14.9185 119.946 14.5551 119.034 14.5537H8.11869Z" fill="#231F20"/>
<path d="M122.736 78.3382H4.41677C4.34706 78.3368 4.28059 78.3085 4.23129 78.2592C4.18199 78.2099 4.1537 78.1435 4.15234 78.0737C4.15234 78.0036 4.1802 77.9364 4.22979 77.8868C4.27938 77.8372 4.34664 77.8093 4.41677 77.8093H122.736C122.806 77.8093 122.873 77.8372 122.923 77.8868C122.972 77.9364 123 78.0036 123 78.0737C123 78.1439 122.972 78.2111 122.923 78.2607C122.873 78.3103 122.806 78.3382 122.736 78.3382Z" fill="#231F20"/>
<path d="M78.6986 104.701H48.4539L54.0332 90.052H73.1245L78.6986 104.701Z" fill="white"/>
<path d="M78.6985 104.965H48.4538C48.4108 104.966 48.3685 104.955 48.3307 104.935C48.2928 104.914 48.2606 104.885 48.237 104.849C48.2124 104.814 48.1967 104.774 48.1912 104.731C48.1857 104.689 48.1905 104.646 48.2052 104.606L53.7846 89.9621C53.8031 89.911 53.8368 89.8668 53.8813 89.8356C53.9258 89.8044 53.9788 89.7876 54.0331 89.7876H73.1351C73.1887 89.7879 73.2409 89.8049 73.2845 89.8362C73.328 89.8674 73.3608 89.9114 73.3783 89.9621L78.9524 104.606C78.9666 104.646 78.9711 104.689 78.9655 104.731C78.9598 104.774 78.9442 104.814 78.92 104.849C78.8957 104.884 78.8635 104.913 78.8259 104.933C78.7883 104.954 78.7465 104.965 78.7038 104.965H78.6985ZM48.8399 104.437H78.3178L72.9394 90.3164H54.2129L48.8399 104.437Z" fill="#231F20"/>
<path d="M82.247 103.839H44.9052C43.9267 103.839 43.1335 104.632 43.1335 105.611V106.018C43.1335 106.996 43.9267 107.79 44.9052 107.79H82.247C83.2255 107.79 84.0187 106.996 84.0187 106.018V105.611C84.0187 104.632 83.2255 103.839 82.247 103.839Z" fill="white"/>
<path d="M82.247 108.054H44.9052C44.3652 108.054 43.8473 107.84 43.4655 107.458C43.0837 107.076 42.8691 106.558 42.8691 106.018V105.616C42.8691 105.076 43.0835 104.557 43.4652 104.174C43.8468 103.792 44.3647 103.576 44.9052 103.575H82.247C82.7875 103.576 83.3054 103.792 83.6871 104.174C84.0688 104.557 84.2831 105.076 84.2831 105.616V106.018C84.2831 106.285 84.2304 106.55 84.1281 106.797C84.0258 107.044 83.8758 107.269 83.6868 107.458C83.4977 107.647 83.2732 107.797 83.0262 107.899C82.7792 108.001 82.5144 108.054 82.247 108.054ZM44.9052 104.104C44.505 104.105 44.1216 104.265 43.8391 104.548C43.5566 104.832 43.398 105.216 43.398 105.616V106.018C43.3994 106.417 43.5586 106.8 43.841 107.082C44.1233 107.365 44.5059 107.524 44.9052 107.525H82.247C82.6464 107.524 83.0289 107.365 83.3113 107.082C83.5936 106.8 83.7529 106.417 83.7543 106.018V105.616C83.7543 105.216 83.5956 104.832 83.3131 104.548C83.0306 104.265 82.6473 104.105 82.247 104.104H44.9052Z" fill="#231F20"/>
<path d="M118.51 17.8591H8.64233V73.4303H118.51V17.8591Z" fill="#EE9665"/>
<path d="M118.51 17.8591H8.64233V73.4303H118.51V17.8591Z" fill="#D1D3D4"/>
<path d="M51.2726 96.7419L73.7909 92.3684L72.9077 90.052H53.8163L51.2726 96.7419Z" fill="#231F20"/>
<path d="M51.2726 97.0063C51.2295 97.0067 51.187 96.9964 51.1488 96.9765C51.1106 96.9567 51.0778 96.9277 51.0533 96.8923C51.0287 96.8568 51.0133 96.8159 51.0082 96.7731C51.0031 96.7303 51.0086 96.6869 51.0241 96.6467L53.5678 89.9621C53.5869 89.9114 53.6209 89.8677 53.6652 89.8365C53.7095 89.8054 53.7622 89.7884 53.8164 89.7876H72.9077C72.9621 89.7876 73.0151 89.8044 73.0596 89.8356C73.1041 89.8668 73.1378 89.911 73.1563 89.9621L74.0395 92.2732C74.0552 92.3081 74.0634 92.3459 74.0634 92.3842C74.0634 92.4225 74.0552 92.4604 74.0395 92.4953C74.0196 92.529 73.9928 92.5582 73.9609 92.581C73.9291 92.6038 73.8928 92.6196 73.8544 92.6275L51.3361 97.0011L51.2726 97.0063ZM54.0015 90.3164L51.6851 96.3929L73.4313 92.1621L72.7279 90.3112L54.0015 90.3164Z" fill="#231F20"/>
<path d="M103.628 4.80719V73.4356H23.5558V0.264404H99.0856C100.29 0.264404 101.446 0.743019 102.298 1.59496C103.15 2.4469 103.628 3.60237 103.628 4.80719Z" fill="white"/>
<path d="M103.628 73.7001H23.5557C23.486 73.6987 23.4195 73.6704 23.3702 73.6211C23.3209 73.5718 23.2926 73.5053 23.2913 73.4356V0.26445C23.2913 0.19432 23.3191 0.127063 23.3687 0.0774739C23.4183 0.027885 23.4856 2.63572e-05 23.5557 2.63572e-05H99.0855C99.7174 -0.00206945 100.343 0.120841 100.928 0.361684C101.512 0.602526 102.043 0.956543 102.489 1.40335C102.936 1.85016 103.29 2.38094 103.531 2.96512C103.772 3.54931 103.895 4.17536 103.893 4.80724V73.4356C103.893 73.5058 103.865 73.573 103.815 73.6226C103.766 73.6722 103.698 73.7001 103.628 73.7001ZM23.8201 73.1712H103.364V4.80724C103.363 4.24634 103.252 3.69108 103.037 3.17321C102.821 2.65533 102.506 2.18501 102.108 1.78913C101.711 1.39325 101.239 1.07958 100.721 0.866059C100.202 0.652536 99.6464 0.543347 99.0855 0.544737H23.8201V73.1712Z" fill="#231F20"/>
<path d="M62.4101 24.105H28.2942C28.2241 24.105 28.1568 24.0771 28.1072 24.0275C28.0576 23.9779 28.0298 23.9107 28.0298 23.8405V11.8833C28.0298 11.8132 28.0576 11.7459 28.1072 11.6963C28.1568 11.6468 28.2241 11.6189 28.2942 11.6189C28.3643 11.6189 28.4316 11.6468 28.4812 11.6963C28.5308 11.7459 28.5586 11.8132 28.5586 11.8833V23.5761H62.4048C62.4749 23.5761 62.5422 23.604 62.5918 23.6536C62.6414 23.7031 62.6692 23.7704 62.6692 23.8405C62.6692 23.9098 62.6421 23.9762 62.5937 24.0257C62.5452 24.0751 62.4793 24.1036 62.4101 24.105Z" fill="#D1D3D4"/>
<path d="M55.7677 52.9006H28.6008C28.5307 52.9006 28.4635 52.8727 28.4139 52.8231C28.3643 52.7735 28.3364 52.7063 28.3364 52.6361V27.7222C28.3364 27.6521 28.3643 27.5848 28.4139 27.5352C28.4635 27.4856 28.5307 27.4578 28.6008 27.4578H55.7677C55.8378 27.4578 55.9051 27.4856 55.9547 27.5352C56.0043 27.5848 56.0321 27.6521 56.0321 27.7222V52.6573C56.0268 52.7237 55.9966 52.7856 55.9476 52.8307C55.8985 52.8758 55.8343 52.9008 55.7677 52.9006ZM28.8653 52.3717H55.5033V27.9866H28.8653V52.3717Z" fill="#D1D3D4"/>
<path d="M98.2712 69.681H30.1928C30.1226 69.681 30.0554 69.6532 30.0058 69.6036C29.9562 69.554 29.9283 69.4867 29.9283 69.4166V57.343C29.9283 57.2729 29.9562 57.2057 30.0058 57.1561C30.0554 57.1065 30.1226 57.0786 30.1928 57.0786H98.2712C98.3409 57.08 98.4073 57.1083 98.4566 57.1576C98.5059 57.2069 98.5342 57.2733 98.5356 57.343V69.4166C98.5356 69.4867 98.5077 69.554 98.4581 69.6036C98.4086 69.6532 98.3413 69.681 98.2712 69.681ZM30.4572 69.1522H97.9909V57.6075H30.4572V69.1522Z" fill="#D1D3D4"/>
<path d="M98.2712 61.8909H30.1928C30.1226 61.8909 30.0554 61.863 30.0058 61.8135C29.9562 61.7639 29.9283 61.6966 29.9283 61.6265C29.9283 61.5564 29.9562 61.4891 30.0058 61.4395C30.0554 61.3899 30.1226 61.3621 30.1928 61.3621H98.2712C98.3409 61.3634 98.4073 61.3917 98.4566 61.441C98.5059 61.4903 98.5342 61.5568 98.5356 61.6265C98.5356 61.6966 98.5077 61.7639 98.4581 61.8135C98.4086 61.863 98.3413 61.8909 98.2712 61.8909Z" fill="#D1D3D4"/>
<path d="M0.746582 106.065V109.952C0.746582 109.952 9.71053 111.01 9.50957 110.592C9.30861 110.175 4.38504 106.663 4.38504 106.663L0.746582 106.065Z" fill="#231F20"/>
<path d="M8.81151 110.936C7.79084 110.936 5.58555 110.783 0.72016 110.217C0.654709 110.21 0.594059 110.179 0.550054 110.131C0.506049 110.082 0.481851 110.018 0.482181 109.952V106.065C0.48214 106.027 0.490659 105.989 0.507124 105.954C0.523589 105.919 0.547587 105.889 0.577374 105.864C0.606584 105.838 0.641176 105.819 0.678667 105.808C0.716157 105.797 0.755613 105.795 0.794199 105.801L4.38507 106.404C4.4257 106.409 4.46407 106.426 4.49612 106.451C5.99805 107.509 9.52017 110.058 9.7317 110.476C9.75494 110.522 9.76704 110.572 9.76704 110.624C9.76704 110.675 9.75494 110.726 9.7317 110.772C9.67353 110.841 9.61007 110.936 8.81151 110.936ZM1.01103 109.72C4.24228 110.09 7.74324 110.423 8.94372 110.423C8.17161 109.778 6.12497 108.265 4.2317 106.917L0.989873 106.388L1.01103 109.72Z" fill="#231F20"/>
<path d="M0.751831 102.639V106.066L4.35856 106.663L4.95616 102.639H0.751831Z" fill="white"/>
<path d="M4.38498 106.933H4.34267L0.683052 106.314C0.621383 106.304 0.565243 106.273 0.524586 106.225C0.483929 106.178 0.461382 106.117 0.460938 106.055V102.628C0.460938 102.558 0.488796 102.491 0.538385 102.441C0.587974 102.391 0.655231 102.364 0.725361 102.364H4.95613C4.99417 102.363 5.0319 102.371 5.06663 102.386C5.10136 102.402 5.13225 102.425 5.15709 102.453C5.1826 102.482 5.20151 102.516 5.21249 102.552C5.22346 102.589 5.22621 102.627 5.22055 102.665L4.61767 106.695C4.61248 106.729 4.60045 106.763 4.5823 106.793C4.56414 106.823 4.54021 106.849 4.5119 106.869C4.47601 106.901 4.43219 106.923 4.38498 106.933ZM1.03738 105.838L4.16286 106.367L4.69171 102.908H1.01094L1.03738 105.838Z" fill="#231F20"/>
<path d="M13.1957 103.659V107.329L17.2889 107.626L17.5269 103.659H13.1957Z" fill="white"/>
<path d="M17.2888 107.9L13.2008 107.599C13.134 107.596 13.0707 107.568 13.0244 107.519C12.9781 107.471 12.9522 107.407 12.9523 107.34V103.67C12.9523 103.6 12.9801 103.532 13.0297 103.483C13.0793 103.433 13.1466 103.405 13.2167 103.405H17.5479C17.5846 103.406 17.6207 103.413 17.6543 103.428C17.6879 103.442 17.7183 103.463 17.7436 103.49C17.7677 103.516 17.7862 103.547 17.798 103.581C17.8098 103.614 17.8147 103.65 17.8124 103.686L17.5744 107.652C17.5701 107.723 17.5377 107.79 17.4845 107.837C17.4299 107.883 17.3598 107.905 17.2888 107.9ZM13.46 107.091L17.0403 107.356L17.2465 103.934H13.46V107.091Z" fill="#231F20"/>
<path d="M19.2404 66.5078L17.9289 104.421H12.5981L9.80577 76.191L5.37932 103.94L0.265381 103.659L3.07355 66.8145L19.2404 66.5078Z" fill="#231F20"/>
<path d="M17.9288 104.685H12.598C12.5322 104.685 12.4687 104.661 12.4198 104.617C12.3709 104.573 12.3402 104.512 12.3336 104.447L9.74752 78.2533L5.63839 103.982C5.62918 104.047 5.59568 104.106 5.54464 104.147C5.4936 104.188 5.42883 104.208 5.36338 104.204L0.24944 103.923C0.214216 103.921 0.179748 103.912 0.148067 103.897C0.116385 103.881 0.0881291 103.86 0.0649663 103.833C0.0418035 103.806 0.0242022 103.775 0.0131961 103.742C0.00218994 103.708 -0.00199723 103.673 0.000881933 103.638L2.79848 66.7932C2.80252 66.7272 2.8316 66.6653 2.87977 66.6201C2.92793 66.5749 2.99155 66.5498 3.05761 66.5499L19.2244 66.2432C19.2975 66.2431 19.3677 66.2716 19.4201 66.3225C19.4683 66.3741 19.4948 66.4423 19.4942 66.5129L18.1826 104.431C18.18 104.498 18.1524 104.561 18.1054 104.608C18.0583 104.655 17.9953 104.682 17.9288 104.685ZM12.836 104.156H17.6749L18.9653 66.7773L3.32733 67.0735L0.561458 103.41L5.16771 103.664L9.55714 76.1643C9.55714 76.0942 9.585 76.0269 9.63458 75.9773C9.68417 75.9278 9.75143 75.8999 9.82156 75.8999C9.89169 75.8999 9.95895 75.9278 10.0085 75.9773C10.0581 76.0269 10.086 76.0942 10.086 76.1643L12.836 104.156Z" fill="#231F20"/>
<path d="M30.2985 55.7827C31.3241 55.3707 32.4103 55.1295 33.5139 55.0688C35.3331 54.9736 36.0629 53.8419 35.9942 53.038C35.9254 52.2342 34.2225 51.5731 33.0644 51.7688C31.9062 51.9645 29.2144 53.7837 29.2144 53.7837L30.2985 55.7827Z" fill="white"/>
<path d="M30.2984 56.0735C30.2508 56.0742 30.2038 56.0618 30.1627 56.0375C30.1217 56.0133 30.0881 55.9781 30.0657 55.936L28.9763 53.937C28.9454 53.8794 28.937 53.8124 28.9526 53.7489C28.9682 53.6854 29.0068 53.6299 29.0609 53.5932C29.172 53.5139 31.8109 51.7423 33.0114 51.536C33.9608 51.4111 34.9225 51.645 35.7085 52.1918C35.8501 52.2902 35.97 52.4164 36.061 52.5629C36.1519 52.7093 36.2119 52.8728 36.2374 53.0432C36.2509 53.2908 36.2148 53.5385 36.1312 53.7719C36.0477 54.0053 35.9183 54.2196 35.7508 54.4024C35.4635 54.7083 35.116 54.9512 34.73 55.116C34.3441 55.2807 33.9282 55.3637 33.5085 55.3596C32.4377 55.4192 31.3838 55.6533 30.3883 56.0524C30.3598 56.0645 30.3294 56.0717 30.2984 56.0735ZM29.5581 53.9L30.4148 55.4865C31.4044 55.1181 32.4437 54.9006 33.498 54.8413C33.8456 54.8488 34.1911 54.7841 34.5124 54.6512C34.8338 54.5183 35.124 54.3201 35.3648 54.0692C35.4868 53.9404 35.5816 53.7883 35.6434 53.622C35.7052 53.4557 35.7327 53.2786 35.7244 53.1014C35.7033 53.0025 35.6624 52.909 35.6043 52.8263C35.5461 52.7436 35.4718 52.6735 35.3859 52.6202C34.7136 52.1728 33.9018 51.9849 33.1013 52.0913C32.1864 52.1865 30.1927 53.4557 29.5581 53.8735V53.9Z" fill="#231F20"/>
<path d="M18.4471 43.4128C18.4471 43.4128 22.6038 53.7518 23.4235 53.958C24.2432 54.1643 30.4783 52.4138 30.4783 52.4138L30.6211 56.2532C30.6211 56.2532 23.9524 60.3571 21.3822 58.9292C18.812 57.5013 11.4028 50.0604 11.4028 50.0604L18.4471 43.4128Z" fill="url(#paint0_linear_397_830)"/>
<path d="M34.2701 52.9479L37.6125 55.1215L41.9913 48.2729L38.649 46.0994L34.2701 52.9479Z" fill="#231F20"/>
<path d="M37.6124 55.3861C37.5614 55.3885 37.5111 55.3736 37.4696 55.3438L34.1273 53.1703C34.0984 53.152 34.0733 53.1281 34.0537 53.1001C34.034 53.0721 34.0201 53.0404 34.0127 53.007C34.0053 52.9736 34.0046 52.939 34.0107 52.9053C34.0168 52.8716 34.0294 52.8394 34.048 52.8107L38.4268 45.9356C38.4456 45.9057 38.4703 45.88 38.4995 45.86C38.5286 45.84 38.5614 45.8261 38.5961 45.8193C38.6294 45.8106 38.6642 45.8094 38.6981 45.8158C38.7319 45.8222 38.7639 45.8361 38.7918 45.8563L42.1341 48.0299C42.163 48.0482 42.1881 48.072 42.2077 48.1C42.2274 48.1281 42.2413 48.1597 42.2487 48.1931C42.2561 48.2266 42.2568 48.2612 42.2507 48.2949C42.2446 48.3286 42.232 48.3607 42.2134 48.3895L37.8345 55.2645C37.8168 55.2953 37.7924 55.3217 37.7631 55.3419C37.7338 55.362 37.7004 55.3753 37.6653 55.3808L37.6124 55.3861ZM34.635 52.9006L37.5331 54.7832L41.6264 48.3736L38.7283 46.4909L34.635 52.9006Z" fill="#231F20"/>
<path d="M37.7605 48.03L53.5571 23.3064L56.1168 24.9723" fill="#231F20"/>
<path d="M37.7605 48.2944C37.7101 48.2926 37.6609 48.2781 37.6177 48.2521C37.5589 48.2141 37.5175 48.1544 37.5026 48.086C37.4877 48.0176 37.5006 47.9461 37.5384 47.8871L53.335 23.1636C53.3722 23.1047 53.4311 23.0629 53.499 23.0472C53.5682 23.0327 53.6404 23.046 53.6999 23.0842L56.2595 24.7501C56.3145 24.7897 56.3521 24.8488 56.3648 24.9153C56.3774 24.9819 56.364 25.0507 56.3274 25.1077C56.2908 25.1646 56.2337 25.2053 56.168 25.2215C56.1022 25.2376 56.0328 25.2279 55.974 25.1943L53.6365 23.6713L37.9826 48.1727C37.9595 48.2107 37.9268 48.2419 37.8878 48.2632C37.8488 48.2846 37.8049 48.2953 37.7605 48.2944Z" fill="#231F20"/>
<path d="M58.2969 43.5492C62.5519 36.6544 61.4899 28.2808 55.9248 24.8464C50.3597 21.412 42.3989 24.2173 38.1439 31.1122C33.8888 38.007 34.9509 46.3806 40.516 49.815C46.0811 53.2494 54.0419 50.4441 58.2969 43.5492Z" fill="#231F20"/>
<path d="M45.8254 51.5468C43.8244 51.5645 41.8616 50.9985 40.1773 49.918C34.5821 46.2795 33.6408 37.6752 38.0619 30.7314C40.4999 26.9184 44.149 24.2477 48.073 23.3963C49.4575 23.0681 50.8934 23.0187 52.2971 23.2512C53.7008 23.4836 55.0442 23.9932 56.249 24.7502C61.8442 28.3886 62.7908 36.9929 58.3644 43.9314C55.9264 47.7497 52.2773 50.4204 48.348 51.2718C47.5189 51.4506 46.6735 51.5428 45.8254 51.5468ZM38.5168 31.017C34.2384 37.7122 35.1163 45.9939 40.4682 49.4737C41.6109 50.1998 42.8886 50.6874 44.2246 50.9073C45.5605 51.1273 46.9271 51.075 48.2422 50.7535C52.0341 49.9338 55.5615 47.3425 57.9201 43.6458C62.1985 36.9506 61.3259 28.6742 55.974 25.1944C54.8306 24.4676 53.552 23.9796 52.2151 23.7596C50.8782 23.5397 49.5106 23.5924 48.1946 23.9146C44.4028 24.7343 40.8807 27.3203 38.5168 31.017Z" fill="#231F20"/>
<path d="M56.0962 42.3182C60.3903 35.4314 59.3653 27.0389 53.8067 23.5729C48.2481 20.1069 40.2609 22.8801 35.9667 29.7669C31.6726 36.6537 32.6977 45.0463 38.2563 48.5122C43.8149 51.9782 51.8021 49.205 56.0962 42.3182Z" fill="white"/>
<path d="M43.2659 49.8809C41.2649 49.8986 39.3021 49.3326 37.6178 48.2521C32.0226 44.6136 31.076 36.004 35.5024 29.0655C37.9404 25.2525 41.5894 22.5819 45.5188 21.7304C46.9031 21.4007 48.3393 21.3506 49.7432 21.5831C51.1472 21.8156 52.4906 22.3259 53.6947 23.0843C59.2899 26.7227 60.2313 35.3271 55.8101 42.2655C53.3774 46.0785 49.7284 48.7545 45.7991 49.6059C44.9665 49.7855 44.1175 49.8776 43.2659 49.8809ZM48.0942 21.979C47.2681 21.9748 46.4438 22.0582 45.6351 22.2275C41.8433 23.0473 38.3159 25.6333 35.9572 29.33C31.6789 36.0251 32.5515 44.3069 37.9034 47.7867C39.0468 48.5135 40.3254 49.0015 41.6623 49.2214C42.9992 49.4414 44.3667 49.3887 45.6827 49.0665C49.4745 48.2468 53.0019 45.6554 55.3606 41.9588C59.639 35.2636 58.7611 26.9872 53.4091 23.5074C51.8262 22.4866 49.9776 21.955 48.0942 21.979Z" fill="#231F20"/>
<path d="M53.6315 40.5878C56.9984 35.132 56.1574 28.5059 51.753 25.7878C47.3487 23.0697 41.0488 25.2891 37.6819 30.7448C34.315 36.2005 35.156 42.8267 39.5604 45.5448C43.9647 48.2629 50.2646 46.0435 53.6315 40.5878Z" fill="white"/>
<path d="M43.7629 46.9669C42.1687 46.9818 40.6047 46.5316 39.2624 45.6712C34.8148 42.7731 34.0586 35.9299 37.5807 30.414C39.3557 27.5059 42.2063 25.4155 45.5134 24.5967C46.6144 24.3312 47.7572 24.288 48.875 24.4696C49.9929 24.6512 51.0633 25.054 52.0235 25.6544C56.4764 28.5472 57.2327 35.3904 53.7105 40.9063C51.9347 43.8136 49.0845 45.9038 45.7778 46.7236C45.1169 46.8769 44.4414 46.9585 43.7629 46.9669ZM47.5865 24.8717C46.9354 24.8747 46.2865 24.9474 45.6509 25.0885C42.4684 25.8737 39.7265 27.8873 38.0249 30.689C34.6615 35.9775 35.3437 42.477 39.5533 45.2164C40.4519 45.7874 41.4568 46.1708 42.5074 46.3435C43.558 46.5162 44.6327 46.4746 45.6668 46.2212C48.8457 45.4345 51.5848 43.4234 53.2875 40.626C56.6562 35.3376 55.974 28.8327 51.7644 26.0933C50.5208 25.2872 49.0685 24.8625 47.5865 24.8717Z" fill="#231F20"/>
<path d="M37.8029 30.557C34.3548 35.9618 35.0688 42.6305 39.3895 45.4493C39.6708 45.6325 39.9641 45.7968 40.2673 45.9411C36.6553 42.8527 36.2375 36.6969 39.4635 31.6623C42.6895 26.6276 48.4169 24.4541 52.6847 26.5007C52.4293 26.2835 52.1609 26.0821 51.8808 25.8978C47.5707 23.0632 41.2563 25.1575 37.8029 30.557Z" fill="#231F20"/>
<path d="M40.2831 46.2054C40.2429 46.2048 40.2033 46.1958 40.1668 46.1789C39.8538 46.0231 39.5517 45.8465 39.2624 45.6501C34.8148 42.7573 34.0586 35.914 37.5807 30.3928C39.3557 27.4847 42.2063 25.3943 45.5134 24.5755C46.6145 24.3115 47.757 24.269 48.8747 24.4506C49.9923 24.6322 51.0627 25.0342 52.0235 25.6332C52.3139 25.8224 52.5913 26.0309 52.8538 26.2573C52.9018 26.2991 52.9331 26.357 52.9419 26.4201C52.9508 26.4832 52.9365 26.5474 52.9017 26.6008C52.8669 26.6542 52.8141 26.6933 52.7528 26.7108C52.6915 26.7284 52.626 26.7232 52.5682 26.6962C48.3375 24.6813 42.811 26.8602 39.6749 31.7626C36.5389 36.665 36.8668 42.6674 40.4259 45.7135C40.4668 45.7485 40.4961 45.7951 40.5098 45.8472C40.5235 45.8993 40.521 45.9543 40.5026 46.0049C40.4842 46.0555 40.4508 46.0992 40.4068 46.1303C40.3629 46.1614 40.3105 46.1784 40.2567 46.1789L40.2831 46.2054ZM47.5865 24.8717C46.9354 24.875 46.2866 24.9477 45.6509 25.0885C42.4694 25.8728 39.7288 27.8869 38.0302 30.689C34.8995 35.5861 35.2644 41.5621 38.7072 44.5765C36.3168 41.1443 36.449 35.8928 39.236 31.4981C42.023 27.1034 46.7403 24.8029 50.8336 25.5909C49.8176 25.1145 48.7087 24.8689 47.5865 24.8717Z" fill="#231F20"/>
<path d="M21.837 74.2077L23.5822 75.3448C23.7859 75.4767 24.0139 75.5669 24.2527 75.6101C24.4916 75.6534 24.7367 75.6488 24.9737 75.5967C25.2108 75.5445 25.4352 75.4459 25.6339 75.3064C25.8326 75.1669 26.0016 74.9894 26.1312 74.7842L38.062 56.1106C38.33 55.698 38.4247 55.1964 38.3258 54.7144C38.2268 54.2324 37.9421 53.8088 37.5331 53.5351L35.7932 52.3981C35.5891 52.2661 35.3608 52.1758 35.1215 52.1324C34.8822 52.0891 34.6367 52.0937 34.3992 52.1458C34.1617 52.1979 33.9369 52.2966 33.7377 52.4361C33.5386 52.5757 33.369 52.7533 33.2389 52.9587L21.3081 71.6323C21.0402 72.0449 20.9454 72.5465 21.0444 73.0285C21.1433 73.5104 21.4281 73.9341 21.837 74.2077Z" fill="white"/>
<path d="M24.5604 75.9052C24.1569 75.9031 23.7623 75.7857 23.4234 75.5667L21.6782 74.4297C21.4427 74.279 21.2394 74.083 21.0801 73.8532C20.9208 73.6234 20.8086 73.3642 20.7501 73.0908C20.6916 72.8174 20.6878 72.535 20.7391 72.2601C20.7904 71.9853 20.8957 71.7233 21.0488 71.4893L32.9796 52.8158C33.2823 52.3442 33.7596 52.0121 34.3069 51.8921C34.8542 51.7721 35.4267 51.8742 35.8988 52.1759L37.6388 53.3129C37.8743 53.4636 38.0776 53.6596 38.2369 53.8894C38.3962 54.1192 38.5083 54.3783 38.5668 54.6518C38.6254 54.9252 38.6291 55.2075 38.5778 55.4824C38.5265 55.7573 38.4213 56.0193 38.2681 56.2533L26.3373 74.9268C26.1468 75.2257 25.8842 75.4719 25.5738 75.6429C25.2633 75.8138 24.9148 75.904 24.5604 75.9052ZM21.9637 73.9855L23.7089 75.1225C24.06 75.3477 24.4855 75.4255 24.8936 75.3393C25.098 75.2946 25.2915 75.2099 25.4631 75.0901C25.6346 74.9703 25.7807 74.8178 25.8931 74.6412L37.8239 55.9677C37.9396 55.7921 38.0193 55.5953 38.0584 55.3886C38.0974 55.1819 38.0949 54.9696 38.0511 54.7639C38.0073 54.5582 37.923 54.3633 37.8032 54.1904C37.6834 54.0176 37.5304 53.8703 37.3532 53.7571L35.608 52.6201C35.4349 52.507 35.2409 52.4295 35.0375 52.3923C34.8341 52.3551 34.6253 52.3588 34.4234 52.4033C34.219 52.448 34.0254 52.5326 33.8539 52.6524C33.6823 52.7723 33.5362 52.9248 33.4239 53.1013L21.4984 71.7749C21.3823 71.9502 21.3023 72.1467 21.2629 72.3532C21.2235 72.5596 21.2255 72.7718 21.2688 72.9775C21.3121 73.1832 21.3958 73.3782 21.5151 73.5512C21.6344 73.7243 21.7869 73.8719 21.9637 73.9855Z" fill="#231F20"/>
<path d="M40.5793 35.5491C40.5091 35.5638 40.436 35.5501 40.376 35.5109C40.316 35.4717 40.274 35.4103 40.2593 35.3402C40.2446 35.2701 40.2583 35.197 40.2975 35.137C40.3367 35.0769 40.3981 35.035 40.4682 35.0202L48.2793 31.3976C48.3104 31.3826 48.3443 31.3739 48.3789 31.3722C48.4135 31.3704 48.448 31.3756 48.4806 31.3874C48.5131 31.3993 48.5429 31.4175 48.5683 31.441C48.5937 31.4646 48.6141 31.493 48.6283 31.5246C48.6435 31.5561 48.6522 31.5904 48.654 31.6253C48.6558 31.6603 48.6507 31.6953 48.6389 31.7283C48.6271 31.7612 48.6089 31.7915 48.5852 31.8174C48.5616 31.8432 48.5331 31.8641 48.5014 31.8789L40.6797 35.5226C40.6481 35.5375 40.6141 35.5465 40.5793 35.5491Z" fill="#D1D3D4"/>
<path d="M46.9413 36.3371C46.8712 36.3525 46.7978 36.3395 46.7373 36.3008C46.6768 36.2621 46.6342 36.201 46.6188 36.1308C46.6033 36.0607 46.6164 35.9873 46.6551 35.9268C46.6937 35.8663 46.7549 35.8237 46.825 35.8082L53.5678 32.6034C53.6298 32.5832 53.6971 32.5861 53.7572 32.6116C53.8172 32.6372 53.866 32.6836 53.8944 32.7424C53.9228 32.8012 53.929 32.8682 53.9117 32.9312C53.8944 32.9941 53.8549 33.0486 53.8005 33.0847L47.0577 36.3106C47.0221 36.3302 46.9818 36.3393 46.9413 36.3371Z" fill="#D1D3D4"/>
<path d="M39.9816 43.2754C39.9323 43.2743 39.8842 43.26 39.8423 43.234C39.8005 43.2079 39.7664 43.1711 39.7436 43.1273C39.7283 43.0961 39.7193 43.0621 39.7171 43.0274C39.7149 42.9927 39.7196 42.9578 39.7309 42.9249C39.7422 42.892 39.7599 42.8616 39.7829 42.8356C39.806 42.8095 39.834 42.7882 39.8653 42.773L52.3249 36.6119C52.3562 36.5915 52.3915 36.5779 52.4284 36.5721C52.4653 36.5663 52.5031 36.5683 52.5392 36.5782C52.5752 36.588 52.6088 36.6054 52.6377 36.6292C52.6665 36.6529 52.69 36.6826 52.7066 36.7161C52.7232 36.7496 52.7325 36.7863 52.7338 36.8236C52.7352 36.861 52.7286 36.8982 52.7145 36.9329C52.7004 36.9675 52.6792 36.9988 52.6521 37.0246C52.6251 37.0504 52.5928 37.0702 52.5576 37.0826L40.098 43.249C40.0615 43.2659 40.0218 43.2749 39.9816 43.2754Z" fill="#D1D3D4"/>
<path d="M14.4331 39.5207C14.0047 39.4731 13.5763 39.3726 13.0739 39.2986C12.5715 39.2245 12.0162 39.013 12.0162 38.5423C12.0162 38.0716 12.5451 37.8337 12.4499 37.437C12.4182 37.3294 12.3661 37.2289 12.2965 37.1409C11.6943 36.2002 11.4643 35.0689 11.6513 33.9678C11.8551 32.8651 12.4716 31.8816 13.3754 31.2178C13.2432 31.2495 13.111 31.112 13.1057 30.9692C13.1147 30.8292 13.1749 30.6975 13.2749 30.599C13.647 30.2372 14.115 29.9894 14.6235 29.8851C16.236 29.4958 17.9288 29.6046 19.4783 30.1971C20.6682 30.6308 22.0696 31.6937 21.8263 33.1639C21.7922 33.4279 21.6685 33.6721 21.4761 33.856C21.2836 34.0398 21.0339 34.152 20.7687 34.174C20.409 35.7606 19.5259 36.7654 18.4259 37.8442C17.6928 38.5881 16.783 39.134 15.7816 39.4308C15.3424 39.549 14.8841 39.5795 14.4331 39.5207Z" fill="white"/>
<path d="M14.8456 39.8062C14.6923 39.8139 14.5388 39.8139 14.3855 39.8062C14.1264 39.7745 13.8567 39.7269 13.5975 39.6793L13.0158 39.5788C12.2067 39.4572 11.7307 39.05 11.7519 38.5528C11.7775 38.3146 11.8711 38.0888 12.0216 37.9024C12.1379 37.7226 12.2119 37.6115 12.1908 37.511C12.1687 37.4438 12.1347 37.3811 12.0903 37.3259C11.4322 36.3191 11.1825 35.0993 11.3922 33.9149C11.5852 32.8748 12.126 31.9312 12.9259 31.2389C12.879 31.1601 12.8518 31.0713 12.8466 30.9798C12.8475 30.8761 12.869 30.7736 12.9098 30.6782C12.9507 30.5829 13.0101 30.4967 13.0845 30.4245C13.4896 30.0233 14.002 29.7478 14.56 29.6312C16.2248 29.227 17.973 29.3377 19.5735 29.9485C21.012 30.4774 22.3446 31.6831 22.0908 33.2062C22.0476 33.4964 21.9188 33.7671 21.721 33.9838C21.5232 34.2004 21.2653 34.3532 20.9802 34.4226C20.5477 35.825 19.7284 37.0769 18.6163 38.0346C17.8484 38.8066 16.8993 39.3739 15.8557 39.6846C15.5267 39.774 15.1864 39.815 14.8456 39.8062ZM14.4437 39.2774C14.8675 39.3292 15.2974 39.2951 15.7076 39.1769C16.6654 38.8902 17.5363 38.3684 18.2408 37.6591C19.436 36.4851 20.187 35.5437 20.5148 34.1158C20.5305 34.0584 20.5641 34.0074 20.6107 33.9703C20.6573 33.9333 20.7145 33.912 20.774 33.9096C20.9764 33.8853 21.165 33.794 21.3097 33.6503C21.4544 33.5066 21.5469 33.3186 21.5725 33.1163C21.8052 31.7202 20.3086 30.7788 19.3937 30.4403C17.8925 29.8694 16.254 29.7643 14.6922 30.1389C14.2336 30.2262 13.8117 30.4491 13.4812 30.7788C13.4288 30.8247 13.3919 30.8857 13.3754 30.9533C13.4262 30.9501 13.4768 30.9626 13.5204 30.9891C13.5639 31.0156 13.5982 31.0548 13.6187 31.1014C13.6457 31.1567 13.6526 31.2198 13.6381 31.2796C13.6236 31.3395 13.5887 31.3924 13.5394 31.4293C12.686 32.0484 12.1044 32.9728 11.9158 34.0101C11.7293 35.0532 11.9447 36.1283 12.5187 37.0192C12.6073 37.1312 12.6704 37.2611 12.7038 37.4C12.7207 37.5418 12.7078 37.6857 12.6659 37.8223C12.624 37.9589 12.5541 38.0852 12.4605 38.1932C12.3718 38.3025 12.3102 38.4311 12.2807 38.5687C12.2807 38.8384 12.7144 38.9971 13.0951 39.0553C13.3067 39.087 13.5023 39.124 13.698 39.161C13.8937 39.198 14.1951 39.2509 14.4437 39.2774Z" fill="#231F20"/>
<path d="M21.0595 36.5061C21.0595 36.5061 22.0749 38.4311 21.7946 38.7854C21.5143 39.1398 20.7369 38.7854 20.7369 38.7854" fill="white"/>
<path d="M21.3715 39.1822C21.1116 39.1734 20.8555 39.1179 20.6152 39.0183C20.5534 38.9892 20.5052 38.9373 20.4808 38.8734C20.4564 38.8096 20.4577 38.7388 20.4843 38.6758C20.511 38.6129 20.561 38.5627 20.6239 38.5359C20.6868 38.509 20.7576 38.5075 20.8215 38.5318C21.0753 38.6375 21.4931 38.7116 21.5883 38.5899C21.4502 37.8884 21.1926 37.2158 20.8268 36.6015C20.8076 36.5707 20.7949 36.5364 20.7895 36.5005C20.7841 36.4647 20.7861 36.4281 20.7954 36.3931C20.8048 36.3581 20.8212 36.3253 20.8437 36.2969C20.8663 36.2685 20.8944 36.245 20.9264 36.228C20.9583 36.2109 20.9935 36.2006 21.0296 36.1976C21.0658 36.1947 21.1021 36.1993 21.1364 36.211C21.1707 36.2227 21.2022 36.2413 21.229 36.2658C21.2558 36.2902 21.2773 36.3198 21.2922 36.3529C21.821 37.3048 22.3499 38.5212 22.0008 38.9231C21.9224 39.0112 21.8251 39.0803 21.716 39.1252C21.607 39.1701 21.4892 39.1896 21.3715 39.1822Z" fill="#231F20"/>
<path d="M21.0331 34.0632C21.7312 34.7613 21.3875 36.0516 21.2975 36.9031C21.1759 38.1036 21.0225 39.3041 20.848 40.494C20.7317 41.2502 18.7749 41.0704 18.4524 40.806V43.8468L14.4966 41.8372L14.8985 39.3675C15.3584 39.3748 15.8113 39.2547 16.2071 39.0204C16.6029 38.7861 16.926 38.4468 17.1408 38.0401C18.0504 36.5646 18.262 33.1853 18.262 33.1853C18.262 33.1853 20.3562 33.381 21.0331 34.0632Z" fill="white"/>
<path d="M18.4736 44.1112C18.4309 44.1115 18.389 44.1005 18.3519 44.0795L14.3961 42.0699C14.347 42.0443 14.3069 42.0041 14.2813 41.9549C14.2558 41.9057 14.246 41.8498 14.2534 41.7949L14.6606 39.3251C14.6698 39.2582 14.7048 39.1975 14.7582 39.156C14.8115 39.1145 14.879 39.0955 14.9461 39.103C15.3569 39.1066 15.7605 38.9957 16.1117 38.7827C16.463 38.5698 16.7479 38.2631 16.9346 37.8973C17.8019 36.4958 17.9923 33.2011 17.9923 33.1694C17.995 33.1339 18.0046 33.0993 18.0207 33.0676C18.0368 33.0359 18.059 33.0077 18.086 32.9846C18.1131 32.9615 18.1444 32.944 18.1782 32.933C18.2121 32.9221 18.2477 32.9179 18.2832 32.9208C18.5053 32.9208 20.4673 33.1482 21.1971 33.8727C21.8635 34.5497 21.726 35.6179 21.5937 36.4747C21.5937 36.6386 21.5514 36.792 21.5356 36.9295C21.4139 38.1247 21.2606 39.341 21.0808 40.5309C21.0546 40.6776 20.9876 40.8139 20.8875 40.9243C20.7874 41.0346 20.6583 41.1146 20.5149 41.155C19.923 41.3304 19.2951 41.345 18.6957 41.1973V43.8415C18.6944 43.9117 18.6663 43.9788 18.6171 44.0289C18.5679 44.0791 18.5014 44.1085 18.4312 44.1112H18.4736ZM14.8086 41.6891L18.2038 43.4131V40.8059C18.2037 40.7564 18.2176 40.7078 18.2438 40.6657C18.2699 40.6236 18.3074 40.5897 18.3519 40.5679C18.3977 40.5458 18.4488 40.537 18.4993 40.5426C18.5498 40.5482 18.5977 40.568 18.6375 40.5997C19.197 40.8011 19.8057 40.8214 20.3774 40.6578C20.5149 40.605 20.5889 40.5362 20.5995 40.4569C20.7793 39.267 20.9274 38.0665 21.049 36.8766C21.049 36.7285 21.0702 36.5699 21.1125 36.4006C21.2183 35.6602 21.3452 34.7348 20.8639 34.2482C20.4303 33.8146 19.2192 33.5713 18.5423 33.4761C18.4683 34.3328 18.1933 36.8977 17.4 38.1775C17.1758 38.5866 16.8535 38.9335 16.4622 39.1874C16.0708 39.4412 15.6226 39.5939 15.1577 39.6319L14.8086 41.6891Z" fill="#231F20"/>
<path d="M20.9009 39.5948C20.7778 39.6617 20.6417 39.701 20.5019 39.7102C20.3621 39.7193 20.222 39.698 20.0913 39.6477C19.9606 39.5975 19.8423 39.5194 19.7447 39.4189C19.6471 39.3185 19.5724 39.198 19.5259 39.0659" fill="white"/>
<path d="M20.3879 39.97C20.2434 39.9734 20.0996 39.9482 19.9648 39.896C19.8044 39.8296 19.66 39.7296 19.5415 39.6029C19.4229 39.4761 19.3328 39.3253 19.2773 39.1609C19.2527 39.0955 19.2544 39.0232 19.282 38.9591C19.3096 38.895 19.361 38.8441 19.4254 38.8171C19.4576 38.8035 19.4922 38.7965 19.5272 38.7966C19.5622 38.7967 19.5968 38.8039 19.6289 38.8178C19.661 38.8316 19.69 38.8518 19.7141 38.8771C19.7382 38.9025 19.7569 38.9324 19.7691 38.9652C19.7992 39.0613 19.8491 39.15 19.9156 39.2256C19.9821 39.3013 20.0637 39.3621 20.1552 39.4041C20.3658 39.4624 20.5902 39.4456 20.7898 39.3565C20.853 39.3276 20.925 39.3246 20.9904 39.3484C21.0557 39.3721 21.109 39.4207 21.1388 39.4835C21.1541 39.5143 21.163 39.5479 21.1651 39.5822C21.1673 39.6166 21.1625 39.651 21.1512 39.6835C21.1399 39.716 21.1222 39.7459 21.0992 39.7715C21.0762 39.797 21.0483 39.8178 21.0172 39.8325C20.8195 39.9224 20.605 39.9692 20.3879 39.97Z" fill="#231F20"/>
<path d="M18.701 37.0353C18.6976 36.7317 18.6097 36.435 18.4471 36.1786C18.3511 35.9629 18.2227 35.7632 18.0663 35.5863C17.988 35.4995 17.8914 35.4312 17.7835 35.3864C17.6756 35.3416 17.559 35.3214 17.4423 35.3271C17.3359 35.3388 17.2333 35.3738 17.142 35.4295C17.0506 35.4853 16.9725 35.5605 16.9135 35.6497C16.8022 35.8258 16.7317 36.0246 16.7072 36.2315C16.6476 36.6814 16.7049 37.1392 16.8735 37.5606C17.042 37.982 17.3162 38.353 17.6697 38.6377L17.6115 38.5584" fill="white"/>
<path d="M17.6961 38.8808C17.6381 38.8801 17.5821 38.8596 17.5374 38.8226C17.1444 38.5137 16.8396 38.1066 16.6539 37.6424C16.4683 37.1782 16.4082 36.6732 16.4797 36.1784C16.5079 35.933 16.5931 35.6976 16.7283 35.4909C16.804 35.371 16.9055 35.2694 17.0253 35.1935C17.1451 35.1176 17.2803 35.0692 17.4211 35.052C17.5776 35.0425 17.7342 35.068 17.8796 35.1266C18.025 35.1851 18.1556 35.2752 18.262 35.3904C18.4346 35.5869 18.5772 35.8079 18.685 36.0462C18.8735 36.3454 18.9726 36.6921 18.9706 37.0457C18.9639 37.1154 18.9303 37.1797 18.877 37.2251C18.8238 37.2705 18.7549 37.2934 18.685 37.289C18.6503 37.2863 18.6164 37.2768 18.5853 37.261C18.5542 37.2452 18.5266 37.2233 18.504 37.1968C18.4814 37.1703 18.4642 37.1395 18.4536 37.1063C18.4429 37.0731 18.4389 37.0382 18.4418 37.0034C18.4349 36.7487 18.3561 36.5012 18.2144 36.2895C18.1301 36.0977 18.0178 35.9194 17.8812 35.7606C17.831 35.7019 17.7685 35.6549 17.6981 35.6229C17.6278 35.5909 17.5513 35.5747 17.474 35.5755C17.3462 35.6023 17.2342 35.6783 17.162 35.7871C17.0775 35.9315 17.0235 36.0917 17.0033 36.2577C16.9529 36.6298 16.9918 37.0086 17.1169 37.3627C17.2419 37.7168 17.4496 38.0359 17.7225 38.2938C17.7751 38.3117 17.8211 38.3449 17.8547 38.389L17.9129 38.4683C17.9549 38.5157 17.9781 38.5769 17.9781 38.6402C17.9781 38.7035 17.9549 38.7647 17.9129 38.8121C17.8849 38.8399 17.8505 38.8607 17.8128 38.8727C17.7751 38.8847 17.7351 38.8874 17.6961 38.8808Z" fill="#231F20"/>
<path d="M20.9731 35.5177C20.9826 35.2784 20.9147 35.0814 20.8213 35.0776C20.7279 35.0739 20.6445 35.2649 20.6349 35.5042C20.6253 35.7435 20.6933 35.9405 20.7866 35.9443C20.88 35.948 20.9635 35.757 20.9731 35.5177Z" fill="#231F20"/>
<path d="M13.6134 42.4928L14.0894 41.2024L19.3144 42.0433L19.7004 44.0687C17.557 44.1881 15.4296 43.6373 13.6134 42.4928Z" fill="#231F20"/>
<path d="M19.1133 44.3598C17.119 44.3385 15.1688 43.7695 13.4758 42.7151C13.4246 42.6835 13.3856 42.6353 13.3654 42.5786C13.3452 42.5219 13.345 42.4599 13.3648 42.4031L13.8407 41.1127C13.8627 41.0553 13.9033 41.0069 13.9561 40.9752C14.0088 40.9436 14.0706 40.9305 14.1316 40.9382L19.3566 41.7843C19.411 41.7921 19.4617 41.8167 19.5015 41.8546C19.5413 41.8925 19.5683 41.9419 19.5787 41.9958L19.9595 44.0213C19.9665 44.0571 19.9659 44.094 19.9577 44.1295C19.9495 44.1651 19.9339 44.1985 19.9119 44.2276C19.8914 44.2572 19.8647 44.282 19.8336 44.3002C19.8026 44.3185 19.7679 44.3298 19.7321 44.3333C19.5265 44.3538 19.3199 44.3626 19.1133 44.3598ZM13.9412 42.3766C15.5858 43.3546 17.4699 43.8563 19.3831 43.8257L19.0922 42.2761L14.2638 41.4987L13.9412 42.3766Z" fill="#231F20"/>
<path d="M30.198 59.2466C30.9678 59.6259 31.7569 59.9648 32.562 60.262C32.9269 60.3149 33.6197 59.4105 34.0269 59.6697C34.4341 59.9288 35.8514 61.5576 35.8514 61.8168C35.8514 62.0759 35.2062 64.0591 34.6456 63.9322C34.048 63.7493 33.4704 63.5066 32.9216 63.2076L29.2778 62.6788" fill="white"/>
<path d="M34.688 64.2337H34.5981C33.9853 64.0464 33.3948 63.7929 32.837 63.4775L29.2409 62.9486C29.2067 62.9441 29.1737 62.9328 29.144 62.9154C29.1142 62.898 29.0883 62.8748 29.0676 62.8472C29.0469 62.8197 29.0319 62.7882 29.0235 62.7548C29.0151 62.7213 29.0135 62.6866 29.0187 62.6525C29.0292 62.5827 29.0667 62.5198 29.123 62.4772C29.1794 62.4347 29.2502 62.416 29.3202 62.4251L32.9586 62.9539H33.0485C33.5699 63.2468 34.1213 63.4826 34.6933 63.6573C34.9735 63.6097 35.5659 62.1395 35.587 61.7746C35.1032 61.0666 34.5329 60.4217 33.8894 59.8549C33.8048 59.802 33.4769 60.0347 33.3183 60.1458C33.1058 60.3542 32.8226 60.4751 32.525 60.4842C31.6886 60.1846 30.8725 59.8313 30.0817 59.4265C30.0506 59.4118 30.0227 59.3911 29.9997 59.3655C29.9767 59.3399 29.9591 59.31 29.9477 59.2775C29.9364 59.245 29.9317 59.2106 29.9338 59.1763C29.9359 59.1419 29.9448 59.1083 29.9601 59.0775C29.9899 59.0147 30.0432 58.9662 30.1086 58.9424C30.1739 58.9187 30.2459 58.9216 30.3091 58.9506C31.0529 59.3277 31.8194 59.6579 32.6043 59.9395C32.7518 59.8777 32.8891 59.7939 33.0115 59.6909C33.3606 59.4477 33.7889 59.1621 34.1697 59.3895C34.5505 59.6169 36.1159 61.3198 36.1159 61.7587C36.1159 62.0179 35.6452 63.541 35.0899 64.0011C34.9908 64.1274 34.8469 64.2108 34.688 64.2337Z" fill="#231F20"/>
<path d="M21.3081 44.8728C21.3081 44.8728 22.736 55.6824 23.5134 55.6824C24.2908 55.6824 31.7 59.2468 31.7 59.2468L30.436 64.0065C30.436 64.0065 20.9485 62.6315 18.8913 61.6319C17.8019 61.1031 15.9192 49.4685 15.9192 49.4685L21.3081 44.8728Z" fill="url(#paint1_linear_397_830)"/>
<path d="M21.0172 44.3016C18.1667 42.7626 14.248 40.1448 9.28742 43.9842C4.32684 47.8237 1.99463 69.4165 1.99463 69.4165L20.573 67.9886C20.573 67.9886 23.6826 45.7347 21.0172 44.3016Z" fill="url(#paint2_linear_397_830)"/>
<path d="M17.8495 61.1664C17.7882 61.1674 17.7286 61.1468 17.6812 61.108C17.6338 61.0693 17.6016 61.015 17.5903 60.9549C17.5903 60.8861 16.2894 54.1592 15.5278 49.3837C15.5171 49.315 15.5338 49.2449 15.5744 49.1885C15.615 49.1321 15.6762 49.0939 15.7447 49.0823C15.8145 49.0729 15.8853 49.0908 15.9423 49.1321C15.9994 49.1734 16.0384 49.2351 16.0514 49.3044C16.8076 54.064 18.0927 60.7856 18.1086 60.8544C18.121 60.9231 18.1057 60.9939 18.066 61.0513C18.0264 61.1088 17.9657 61.1482 17.8971 61.1611L17.8495 61.1664Z" fill="#231F20"/>
<path d="M29.5475 58.6492C29.5177 58.6542 29.4874 58.6542 29.4576 58.6492L22.4345 56.2218C22.3856 56.204 22.3427 56.1727 22.3109 56.1315C22.2791 56.0903 22.2596 56.0409 22.2547 55.9891C22.2547 55.8992 21.636 47.2049 20.959 45.1953C20.9369 45.1287 20.9417 45.056 20.9723 44.9928C21.0029 44.9296 21.057 44.8808 21.123 44.8569C21.1903 44.8364 21.263 44.8425 21.3259 44.874C21.3889 44.9055 21.4374 44.9599 21.4614 45.0261C22.1119 46.9617 22.6778 54.4924 22.773 55.7775L29.648 58.1521C29.7181 58.1633 29.7809 58.2019 29.8226 58.2594C29.8642 58.3169 29.8813 58.3887 29.8701 58.4588C29.8589 58.5289 29.8203 58.5917 29.7627 58.6334C29.7052 58.675 29.6335 58.6921 29.5634 58.6809L29.5475 58.6492Z" fill="#231F20"/>
<path d="M31.885 52.3717C31.885 52.3717 33.7042 50.8486 34.2965 50.8804C34.8889 50.9121 37.1206 51.1765 36.486 51.6578C35.8514 52.139 34.2384 51.9116 34.2384 51.9116C34.2384 51.9116 34.4235 52.1073 33.6672 52.6414" fill="white"/>
<path d="M33.6461 52.9004C33.5897 52.9008 33.5346 52.8832 33.4889 52.85C33.4432 52.8169 33.4093 52.77 33.3922 52.7163C33.375 52.6625 33.3755 52.6046 33.3936 52.5512C33.4117 52.4977 33.4465 52.4514 33.4928 52.4191C33.6797 52.3088 33.8404 52.159 33.9634 51.9802C33.9399 51.9171 33.9399 51.8476 33.9634 51.7845C33.9889 51.7367 34.0284 51.6979 34.0767 51.6733C34.1249 51.6488 34.1795 51.6396 34.2331 51.647C34.8937 51.7569 35.5712 51.7024 36.2057 51.4884C35.5689 51.2833 34.907 51.1659 34.2384 51.1393C33.9211 51.1076 32.8476 51.8691 32.012 52.5725C31.9565 52.6154 31.8867 52.6354 31.8169 52.6285C31.7471 52.6217 31.6826 52.5884 31.6365 52.5355C31.6138 52.5093 31.5966 52.4788 31.5859 52.4459C31.5752 52.4129 31.5712 52.3782 31.5742 52.3437C31.5771 52.3092 31.587 52.2756 31.6032 52.245C31.6193 52.2143 31.6414 52.1872 31.6682 52.1653C32.1178 51.7898 33.6355 50.5787 34.2649 50.6105C34.3601 50.6105 36.6077 50.7374 36.8033 51.372C36.8292 51.4633 36.8241 51.5607 36.7887 51.6487C36.7532 51.7368 36.6896 51.8106 36.6077 51.8586C36.0471 52.2816 34.9471 52.2446 34.4288 52.197C34.2658 52.4631 34.0431 52.6877 33.7783 52.8528C33.7391 52.8798 33.6936 52.8962 33.6461 52.9004Z" fill="#231F20"/>
<path d="M13.1957 107.329V110.693C13.1957 110.693 21.7365 111.116 21.6149 110.455C21.4933 109.794 17.2889 107.625 17.2889 107.625L13.1957 107.329Z" fill="#231F20"/>
<path d="M18.0187 111.074C16.2787 111.074 14.3537 110.994 13.185 110.936C13.1167 110.933 13.0521 110.904 13.0048 110.855C12.9575 110.806 12.9311 110.74 12.9312 110.672V107.308C12.9312 107.272 12.9388 107.235 12.9533 107.202C12.9679 107.168 12.9891 107.138 13.0158 107.113C13.0423 107.087 13.074 107.068 13.1087 107.056C13.1434 107.044 13.1803 107.04 13.2167 107.044L17.3047 107.345C17.3377 107.337 17.3722 107.337 17.4052 107.345C18.7062 108.012 21.747 109.646 21.8792 110.36C21.8879 110.411 21.8848 110.464 21.8701 110.515C21.8555 110.565 21.8297 110.612 21.7946 110.651C21.5249 111.005 19.8802 111.074 18.0187 111.074ZM13.46 110.423C16.8499 110.582 20.4778 110.598 21.2816 110.37C20.8691 109.905 18.9547 108.784 17.2148 107.869L13.46 107.589V110.423Z" fill="#231F20"/>
<path d="M99.0856 0.264404C97.8807 0.264404 96.7253 0.743019 95.8733 1.59496C95.0214 2.4469 94.5428 3.60237 94.5428 4.80719V9.3447H17.1144V4.80719C17.1144 3.60237 17.593 2.4469 18.4449 1.59496C19.2969 0.743019 20.4523 0.264404 21.6572 0.264404H99.0856Z" fill="url(#paint3_linear_397_830)"/>
<path d="M94.5427 9.60914H17.1143C17.0446 9.60779 16.9781 9.5795 16.9288 9.5302C16.8795 9.4809 16.8512 9.41443 16.8499 9.34472V4.80722C16.8554 3.53545 17.3642 2.3176 18.265 1.4198C19.1658 0.521998 20.3853 0.0172544 21.6571 0.0158691H99.0855C99.1556 0.0158691 99.2228 0.0437277 99.2724 0.0933167C99.322 0.142906 99.3499 0.210163 99.3499 0.280292C99.3499 0.350422 99.322 0.417679 99.2724 0.467268C99.2228 0.516857 99.1556 0.544716 99.0855 0.544716C97.9558 0.548886 96.8735 0.999142 96.0742 1.79746C95.2748 2.59579 94.8232 3.67753 94.8177 4.80722V9.34472C94.8177 9.38035 94.8105 9.41563 94.7966 9.44842C94.7826 9.48121 94.7622 9.51084 94.7365 9.53554C94.7108 9.56023 94.6804 9.57949 94.6471 9.59213C94.6138 9.60478 94.5783 9.61057 94.5427 9.60914ZM17.3787 9.0803H94.2888V4.80722C94.2922 3.92626 94.537 3.06308 94.9967 2.31155C95.4563 1.56003 96.1133 0.948928 96.896 0.544716H21.6571C20.5228 0.546115 19.4354 0.99732 18.6334 1.79937C17.8313 2.60141 17.3801 3.68882 17.3787 4.82308V9.0803Z" fill="#231F20"/>
<path d="M69.2692 28.4519H63.399V52.6572H69.2692V28.4519Z" fill="url(#paint4_linear_397_830)"/>
<path d="M69.2691 52.9007H63.3989C63.3288 52.9007 63.2616 52.8729 63.212 52.8233C63.1624 52.7737 63.1345 52.7064 63.1345 52.6363V28.4522C63.1359 28.3825 63.1642 28.316 63.2135 28.2667C63.2628 28.2174 63.3292 28.1891 63.3989 28.1877H69.2691C69.3393 28.1877 69.4065 28.2156 69.4561 28.2652C69.5057 28.3148 69.5336 28.382 69.5336 28.4522V52.6575C69.5282 52.7239 69.498 52.7858 69.449 52.8309C69.4 52.876 69.3358 52.901 69.2691 52.9007ZM63.6634 52.3719H69.0047V28.7166H63.6634V52.3719Z" fill="#231F20"/>
<path d="M69.2692 28.4519H63.399V37.3312H69.2692V28.4519Z" fill="white"/>
<path d="M69.2691 37.5959H63.3989C63.3288 37.5959 63.2616 37.5681 63.212 37.5185C63.1624 37.4689 63.1345 37.4016 63.1345 37.3315V28.4522C63.1359 28.3825 63.1642 28.316 63.2135 28.2667C63.2628 28.2174 63.3292 28.1891 63.3989 28.1877H69.2691C69.3393 28.1877 69.4065 28.2156 69.4561 28.2652C69.5057 28.3148 69.5336 28.382 69.5336 28.4522V37.3315C69.5336 37.4016 69.5057 37.4689 69.4561 37.5185C69.4065 37.5681 69.3393 37.5959 69.2691 37.5959ZM63.6634 37.0671H69.0047V28.7166H63.6634V37.0671Z" fill="#231F20"/>
<path d="M78.0585 28.4519H72.1884V52.6572H78.0585V28.4519Z" fill="url(#paint5_linear_397_830)"/>
<path d="M78.0533 52.9007H72.1884C72.1182 52.9007 72.051 52.8729 72.0014 52.8233C71.9518 52.7737 71.924 52.7064 71.924 52.6363V28.4522C71.924 28.382 71.9518 28.3148 72.0014 28.2652C72.051 28.2156 72.1182 28.1877 72.1884 28.1877H78.0533C78.1234 28.1877 78.1907 28.2156 78.2402 28.2652C78.2898 28.3148 78.3177 28.382 78.3177 28.4522V52.6575C78.3124 52.7239 78.2822 52.7858 78.2332 52.8309C78.1841 52.876 78.1199 52.901 78.0533 52.9007ZM72.4528 52.3719H77.7889V28.7166H72.4528V52.3719Z" fill="#231F20"/>
<path d="M78.0585 28.4519H72.1884V40.5519H78.0585V28.4519Z" fill="white"/>
<path d="M78.0533 40.8219H72.1884C72.1182 40.8219 72.051 40.794 72.0014 40.7444C71.9518 40.6948 71.924 40.6276 71.924 40.5575V28.4522C71.924 28.382 71.9518 28.3148 72.0014 28.2652C72.051 28.2156 72.1182 28.1877 72.1884 28.1877H78.0533C78.1234 28.1877 78.1907 28.2156 78.2402 28.2652C78.2898 28.3148 78.3177 28.382 78.3177 28.4522V40.5575C78.3177 40.6276 78.2898 40.6948 78.2402 40.7444C78.1907 40.794 78.1234 40.8219 78.0533 40.8219ZM72.4528 40.293H77.7889V28.7166H72.4528V40.293Z" fill="#231F20"/>
<path d="M86.8427 28.4519H80.9725V52.6572H86.8427V28.4519Z" fill="url(#paint6_linear_397_830)"/>
<path d="M86.8429 52.9007H80.9727C80.9025 52.9007 80.8353 52.8729 80.7857 52.8233C80.7361 52.7737 80.7083 52.7064 80.7083 52.6363V28.4522C80.7083 28.382 80.7361 28.3148 80.7857 28.2652C80.8353 28.2156 80.9025 28.1877 80.9727 28.1877H86.8429C86.9126 28.1891 86.979 28.2174 87.0283 28.2667C87.0776 28.316 87.1059 28.3825 87.1073 28.4522V52.6575C87.102 52.7239 87.0718 52.7858 87.0227 52.8309C86.9737 52.876 86.9095 52.901 86.8429 52.9007ZM81.2371 52.3719H86.5784V28.7166H81.2371V52.3719Z" fill="#231F20"/>
<path d="M86.8427 28.4519H80.9725V32.8942H86.8427V28.4519Z" fill="white"/>
<path d="M86.8429 33.1589H80.9727C80.9025 33.1589 80.8353 33.131 80.7857 33.0815C80.7361 33.0319 80.7083 32.9646 80.7083 32.8945V28.4522C80.7083 28.382 80.7361 28.3148 80.7857 28.2652C80.8353 28.2156 80.9025 28.1877 80.9727 28.1877H86.8429C86.9126 28.1891 86.979 28.2174 87.0283 28.2667C87.0776 28.316 87.1059 28.3825 87.1073 28.4522V32.8945C87.1059 32.9642 87.0776 33.0307 87.0283 33.08C86.979 33.1293 86.9126 33.1575 86.8429 33.1589ZM81.2371 32.6301H86.5784V28.7166H81.2371V32.6301Z" fill="#231F20"/>
<path d="M95.6269 28.4519H89.7567V52.6572H95.6269V28.4519Z" fill="url(#paint7_linear_397_830)"/>
<path d="M95.6268 52.9007H89.7566C89.6865 52.9007 89.6192 52.8729 89.5696 52.8233C89.5201 52.7737 89.4922 52.7064 89.4922 52.6363V28.4522C89.4922 28.382 89.5201 28.3148 89.5696 28.2652C89.6192 28.2156 89.6865 28.1877 89.7566 28.1877H95.6268C95.6965 28.1891 95.763 28.2174 95.8123 28.2667C95.8616 28.316 95.8899 28.3825 95.8912 28.4522V52.6575C95.8859 52.7239 95.8557 52.7858 95.8067 52.8309C95.7577 52.876 95.6934 52.901 95.6268 52.9007ZM90.021 52.3719H95.3465V28.7166H90.0052L90.021 52.3719Z" fill="#231F20"/>
<path d="M95.6269 28.4519H89.7567V37.6961H95.6269V28.4519Z" fill="white"/>
<path d="M95.6268 37.9608H89.7566C89.6865 37.9608 89.6192 37.933 89.5696 37.8834C89.5201 37.8338 89.4922 37.7665 89.4922 37.6964V28.4522C89.4922 28.382 89.5201 28.3148 89.5696 28.2652C89.6192 28.2156 89.6865 28.1877 89.7566 28.1877H95.6268C95.6965 28.1891 95.763 28.2174 95.8123 28.2667C95.8616 28.316 95.8899 28.3825 95.8912 28.4522V37.6964C95.8912 37.7665 95.8634 37.8338 95.8138 37.8834C95.7642 37.933 95.6969 37.9608 95.6268 37.9608ZM90.021 37.432H95.3465V28.7166H90.0052L90.021 37.432Z" fill="#231F20"/>
<path d="M49.7811 69.681C49.711 69.681 49.6438 69.6532 49.5942 69.6036C49.5446 69.554 49.5167 69.4867 49.5167 69.4166V57.343C49.5167 57.2729 49.5446 57.2057 49.5942 57.1561C49.6438 57.1065 49.711 57.0786 49.7811 57.0786C49.8509 57.08 49.9173 57.1083 49.9666 57.1576C50.0159 57.2069 50.0442 57.2733 50.0456 57.343V69.4166C50.0456 69.4867 50.0177 69.554 49.9681 69.6036C49.9185 69.6532 49.8513 69.681 49.7811 69.681Z" fill="#D1D3D4"/>
<path d="M81.5966 69.681C81.5264 69.681 81.4592 69.6532 81.4096 69.6036C81.36 69.554 81.3322 69.4867 81.3322 69.4166V57.343C81.3335 57.2733 81.3618 57.2069 81.4111 57.1576C81.4604 57.1083 81.5269 57.08 81.5966 57.0786C81.6667 57.0786 81.734 57.1065 81.7835 57.1561C81.8331 57.2057 81.861 57.2729 81.861 57.343V69.4166C81.861 69.4867 81.8331 69.554 81.7835 69.6036C81.734 69.6532 81.6667 69.681 81.5966 69.681Z" fill="#D1D3D4"/>
<path d="M99.6091 52.9007H58.2639C58.1938 52.9007 58.1265 52.8728 58.077 52.8232C58.0274 52.7736 57.9995 52.7064 57.9995 52.6362C57.9995 52.5661 58.0274 52.4989 58.077 52.4493C58.1265 52.3997 58.1938 52.3718 58.2639 52.3718H99.6091C99.6793 52.3718 99.7465 52.3997 99.7961 52.4493C99.8457 52.4989 99.8736 52.5661 99.8736 52.6362C99.8736 52.7064 99.8457 52.7736 99.7961 52.8232C99.7465 52.8728 99.6793 52.9007 99.6091 52.9007Z" fill="#231F20"/>
<path d="M30.5153 22.0952C30.4693 22.0954 30.424 22.0846 30.3831 22.0635C30.3255 22.0246 30.2848 21.9654 30.2691 21.8977C30.2534 21.83 30.2639 21.7588 30.2985 21.6986C31.3648 19.8368 32.8053 18.2162 34.5293 16.939C35.8725 15.9553 37.0413 15.5851 38.099 15.8125C38.9555 16.0883 39.7286 16.5758 40.3466 17.2298C40.5423 17.3991 40.7379 17.5736 40.9336 17.7587C41.5197 18.2276 42.1697 18.6104 42.8639 18.8957C43.15 19.0302 43.4626 19.0989 43.7788 19.0967C44.1487 19.0373 44.4928 18.8699 44.7677 18.6154C45.2145 18.2392 45.6367 17.8347 46.0317 17.4044C46.6811 16.6246 47.477 15.9796 48.3745 15.5058C49.045 15.2142 49.7804 15.1037 50.5071 15.1854C51.2337 15.2671 51.9262 15.538 52.5153 15.9712C52.7993 16.1981 53.0679 16.4437 53.3192 16.7063C53.5272 16.9217 53.7461 17.1265 53.975 17.3197C55.3447 18.425 57.5024 18.5995 59.4855 17.7745C61.3524 16.9971 62.8913 15.4952 64.1923 14.1519C64.2168 14.1272 64.2461 14.1075 64.2783 14.0941C64.3105 14.0806 64.3451 14.0737 64.38 14.0737C64.4149 14.0737 64.4495 14.0806 64.4817 14.0941C64.5139 14.1075 64.5432 14.1272 64.5677 14.1519C64.6165 14.2023 64.6438 14.2696 64.6438 14.3397C64.6438 14.4098 64.6165 14.4771 64.5677 14.5274C63.2298 15.9077 61.6432 17.4467 59.6812 18.2664C57.5288 19.1707 55.1543 18.9592 53.6365 17.7375C53.3879 17.5313 53.1605 17.3039 52.9384 17.0818C52.7038 16.8376 52.4529 16.6097 52.1875 16.3995C51.6756 16.0219 51.0733 15.7854 50.4412 15.714C49.8091 15.6425 49.1693 15.7385 48.586 15.9923C47.7521 16.4388 47.0123 17.0422 46.4072 17.7693C46.0012 18.2083 45.5666 18.6199 45.1062 19.0015C44.751 19.321 44.3096 19.5288 43.837 19.5991C43.4354 19.6112 43.0366 19.5278 42.6735 19.3558C41.9325 19.0543 41.2395 18.6463 40.6163 18.1447C40.41 17.9808 40.2091 17.8063 40.0081 17.6159C39.4437 17.0286 38.7423 16.5906 37.9668 16.3414C37.0624 16.1457 36.0365 16.4894 34.7937 17.3991C33.1276 18.6229 31.7352 20.1809 30.7057 21.9736C30.6849 22.0067 30.6571 22.0347 30.6242 22.0558C30.5912 22.0768 30.5541 22.0903 30.5153 22.0952Z" fill="#D1D3D4"/>
<path d="M94.6961 16.2249H72.9552C72.8855 16.2235 72.819 16.1952 72.7697 16.1459C72.7204 16.0966 72.6921 16.0302 72.6908 15.9605C72.6908 15.8903 72.7187 15.8231 72.7682 15.7735C72.8178 15.7239 72.8851 15.696 72.9552 15.696H94.6961C94.7662 15.696 94.8335 15.7239 94.8831 15.7735C94.9327 15.8231 94.9605 15.8903 94.9605 15.9605C94.9605 16.0306 94.9327 16.0979 94.8831 16.1474C94.8335 16.197 94.7662 16.2249 94.6961 16.2249Z" fill="#D1D3D4"/>
<path d="M94.696 19.1602H85.8273C85.7572 19.1602 85.6899 19.1323 85.6403 19.0827C85.5907 19.0332 85.5629 18.9659 85.5629 18.8958C85.5629 18.8256 85.5907 18.7584 85.6403 18.7088C85.6899 18.6592 85.7572 18.6313 85.8273 18.6313H94.6855C94.7556 18.6313 94.8229 18.6592 94.8724 18.7088C94.922 18.7584 94.9499 18.8256 94.9499 18.8958C94.9499 18.9641 94.9235 19.0298 94.8762 19.0791C94.8289 19.1284 94.7643 19.1575 94.696 19.1602Z" fill="#D1D3D4"/>
<path d="M82.1254 19.1602H72.9552C72.8851 19.1602 72.8178 19.1323 72.7682 19.0827C72.7187 19.0332 72.6908 18.9659 72.6908 18.8958C72.6921 18.8261 72.7204 18.7596 72.7697 18.7103C72.819 18.661 72.8855 18.6327 72.9552 18.6313H82.1254C82.1951 18.6327 82.2616 18.661 82.3109 18.7103C82.3602 18.7596 82.3885 18.8261 82.3898 18.8958C82.3898 18.9659 82.362 19.0332 82.3124 19.0827C82.2628 19.1323 82.1955 19.1602 82.1254 19.1602Z" fill="#D1D3D4"/>
<path d="M94.6962 22.1004H75.7106C75.6405 22.1004 75.5732 22.0725 75.5236 22.0229C75.474 21.9733 75.4462 21.9061 75.4462 21.836C75.4462 21.7658 75.474 21.6986 75.5236 21.649C75.5732 21.5994 75.6405 21.5715 75.7106 21.5715H94.6962C94.7663 21.5715 94.8336 21.5994 94.8832 21.649C94.9327 21.6986 94.9606 21.7658 94.9606 21.836C94.9606 21.9061 94.9327 21.9733 94.8832 22.0229C94.8336 22.0725 94.7663 22.1004 94.6962 22.1004Z" fill="#D1D3D4"/>
<defs>
<linearGradient id="paint0_linear_397_830" x1="4.10923" y1="45.9861" x2="33.6255" y2="61.5997" gradientUnits="userSpaceOnUse">
<stop stop-color="#EE6593"/>
<stop offset="1" stop-color="#EE9665"/>
</linearGradient>
<linearGradient id="paint1_linear_397_830" x1="9.93017" y1="47.9855" x2="37.406" y2="57.8519" gradientUnits="userSpaceOnUse">
<stop stop-color="#EE6593"/>
<stop offset="1" stop-color="#EE9665"/>
</linearGradient>
<linearGradient id="paint2_linear_397_830" x1="-5.63439" y1="46.4525" x2="30.2262" y2="57.8967" gradientUnits="userSpaceOnUse">
<stop stop-color="#EE6593"/>
<stop offset="1" stop-color="#EE9665"/>
</linearGradient>
<linearGradient id="paint3_linear_397_830" x1="-13.9948" y1="1.74158" x2="-4.19914" y2="40.243" gradientUnits="userSpaceOnUse">
<stop stop-color="#EE6593"/>
<stop offset="1" stop-color="#EE9665"/>
</linearGradient>
<linearGradient id="paint4_linear_397_830" x1="61.1712" y1="32.3896" x2="72.5825" y2="33.5945" gradientUnits="userSpaceOnUse">
<stop stop-color="#EE6593"/>
<stop offset="1" stop-color="#EE9665"/>
</linearGradient>
<linearGradient id="paint5_linear_397_830" x1="69.9605" y1="32.3896" x2="81.3718" y2="33.5945" gradientUnits="userSpaceOnUse">
<stop stop-color="#EE6593"/>
<stop offset="1" stop-color="#EE9665"/>
</linearGradient>
<linearGradient id="paint6_linear_397_830" x1="78.7447" y1="32.3896" x2="90.156" y2="33.5945" gradientUnits="userSpaceOnUse">
<stop stop-color="#EE6593"/>
<stop offset="1" stop-color="#EE9665"/>
</linearGradient>
<linearGradient id="paint7_linear_397_830" x1="87.5289" y1="32.3896" x2="98.9402" y2="33.5945" gradientUnits="userSpaceOnUse">
<stop stop-color="#EE6593"/>
<stop offset="1" stop-color="#EE9665"/>
</linearGradient>
</defs>
</svg>
