<svg width="93" height="102" viewBox="0 0 93 102" fill="none" xmlns="http://www.w3.org/2000/svg">
<path d="M43.1436 46.5893C43.1221 46.0415 42.9211 45.5159 42.5715 45.0935C42.2219 44.6712 41.7431 44.3755 41.2089 44.252C40.2781 44.0533 39.3317 43.9017 38.3905 43.7553C38.2606 43.7474 38.1366 43.6986 38.0361 43.616C37.9356 43.5333 37.8638 43.421 37.831 43.2951C37.5486 42.5422 37.2349 41.7997 36.9107 41.0676C36.8578 40.9806 36.8338 40.8791 36.8423 40.7776C36.8507 40.6761 36.8912 40.58 36.9578 40.5029C37.5277 39.7238 38.1081 38.9343 38.631 38.1342C38.9339 37.6771 39.0766 37.1325 39.0369 36.5856C38.9972 36.0387 38.7772 35.5204 38.4114 35.1119C37.5486 34.1655 36.6231 33.2766 35.7185 32.3668C35.2726 31.8621 34.6506 31.547 33.98 31.4857C33.3093 31.4245 32.6406 31.6218 32.1106 32.0373C31.4047 32.5289 30.6988 33.0256 30.019 33.538C29.9428 33.6056 29.8473 33.6474 29.746 33.6577C29.6446 33.6681 29.5426 33.6463 29.4543 33.5956C28.6595 33.24 27.8491 32.9106 27.0386 32.5968C26.9394 32.5727 26.8505 32.5176 26.7847 32.4396C26.7189 32.3616 26.6796 32.2647 26.6726 32.1628C26.5366 31.2948 26.3954 30.4373 26.2438 29.5484C26.156 28.9423 25.8582 28.3863 25.4024 27.9773C24.9466 27.5683 24.3616 27.3323 23.7496 27.3104C22.4215 27.2791 21.0881 27.2843 19.76 27.3104C19.1941 27.3215 18.6483 27.5224 18.2102 27.8808C17.7721 28.2393 17.4672 28.7344 17.3442 29.287C17.1298 30.2491 16.9834 31.2321 16.8213 32.2099C16.81 32.3101 16.7698 32.4049 16.7058 32.4828C16.6418 32.5608 16.5566 32.6185 16.4605 32.6491C15.6814 32.9524 14.8919 33.2818 14.1441 33.6269C14.0635 33.6764 13.9691 33.6986 13.8749 33.6901C13.7807 33.6816 13.6917 33.643 13.6213 33.5799C12.8526 33.0152 12.084 32.4452 11.2839 31.9171C10.8263 31.6058 10.2778 31.4563 9.72556 31.4923C9.17328 31.5283 8.64885 31.7478 8.2355 32.1158C7.22109 33.0413 6.23806 34.0086 5.30209 35.0126C4.86202 35.4599 4.60179 36.0534 4.57094 36.6801C4.54008 37.3068 4.74076 37.923 5.13476 38.4114C5.65765 39.1591 6.18054 39.8911 6.70343 40.6389C6.76944 40.7606 6.78448 40.9035 6.74526 41.0363C6.42804 41.8729 6.09165 42.7025 5.73609 43.5252C5.70588 43.5889 5.66217 43.6453 5.608 43.6905C5.55382 43.7356 5.49048 43.7684 5.42235 43.7867C4.56482 43.9435 3.70205 44.0847 2.83928 44.2207C2.23006 44.2906 1.6648 44.5724 1.24232 45.0168C0.819846 45.4613 0.567042 46.0401 0.528114 46.6521C0.481054 48.0378 0.486283 49.4234 0.528114 50.8091C0.551151 51.351 0.750569 51.8705 1.09603 52.2886C1.44148 52.7068 1.91407 53.0006 2.44189 53.1255C3.43015 53.3451 4.43409 53.4967 5.43281 53.6484C5.5287 53.6585 5.61949 53.6966 5.69387 53.758C5.76825 53.8194 5.82294 53.9012 5.85112 53.9935C6.15963 54.783 6.49428 55.5621 6.83938 56.336C6.89042 56.4158 6.91396 56.5101 6.9064 56.6045C6.89885 56.6989 6.86062 56.7882 6.79755 56.8589C6.27466 57.5752 5.75177 58.2916 5.22888 59.0184C4.83476 59.5355 4.64746 60.1809 4.70354 60.8287C4.75961 61.4765 5.05504 62.0801 5.53216 62.5218C6.36355 63.3689 7.20018 64.2107 8.05249 65.0421C8.50198 65.5379 9.12449 65.8425 9.7918 65.893C10.4591 65.9436 11.1204 65.7364 11.6395 65.314C12.3663 64.7911 13.0879 64.2996 13.8043 63.7453C13.8692 63.6912 13.9494 63.6586 14.0337 63.652C14.118 63.6455 14.2023 63.6653 14.2749 63.7087C15.0121 64.0277 15.7494 64.3467 16.5024 64.6238C16.6178 64.6559 16.72 64.7238 16.7943 64.8178C16.8685 64.9118 16.911 65.027 16.9155 65.1467C17.0409 65.999 17.1821 66.8461 17.3338 67.6984C17.4122 68.2887 17.6925 68.8336 18.1272 69.2406C18.5618 69.6476 19.124 69.8916 19.7181 69.9311C21.1143 69.9782 22.5156 69.9729 23.9012 69.9311C24.4485 69.9054 24.9721 69.7006 25.3916 69.3482C25.8111 68.9958 26.1031 68.5153 26.2229 67.9807C26.432 67.0343 26.5732 66.0774 26.7458 65.1258C26.7484 65.0078 26.7883 64.8938 26.8597 64.7999C26.931 64.706 27.0303 64.637 27.1432 64.6029C27.9275 64.3048 28.7118 63.9806 29.4648 63.6408C29.5459 63.5919 29.6407 63.5707 29.7349 63.5801C29.8291 63.5895 29.9178 63.6291 29.9877 63.6931C30.704 64.2159 31.4309 64.7388 32.1472 65.2617C32.6523 65.6269 33.2657 65.8111 33.8884 65.7846C34.4732 65.7832 35.035 65.5566 35.4571 65.1519C36.3669 64.2891 37.2558 63.395 38.1447 62.5061C38.6597 62.0554 38.9812 61.4236 39.0426 60.742C39.1039 60.0604 38.9004 59.3813 38.4742 58.8459C37.9774 58.14 37.4807 57.4393 36.9682 56.7543C36.9051 56.6838 36.8665 56.5949 36.858 56.5007C36.8495 56.4065 36.8717 56.312 36.9212 56.2314C37.2611 55.4523 37.5905 54.6628 37.8938 53.8784C37.9259 53.7818 37.9856 53.6967 38.0655 53.6335C38.1454 53.5704 38.242 53.5319 38.3434 53.5229C39.208 53.3939 40.0707 53.2527 40.9317 53.0993C41.5382 53.0167 42.0965 52.7239 42.5093 52.2719C42.9221 51.82 43.1632 51.2375 43.1906 50.6261C43.1906 49.3136 43.1854 47.9489 43.1436 46.5893ZM21.8045 57.8576C19.9848 57.8524 18.2074 57.3079 16.6972 56.2929C15.1869 55.2778 14.0114 53.8378 13.3193 52.1548C12.6273 50.4719 12.4497 48.6215 12.809 46.8376C13.1683 45.0538 14.0484 43.4164 15.338 42.1326C16.6277 40.8488 18.269 39.9762 20.0545 39.625C21.8399 39.2738 23.6895 39.4598 25.3693 40.1595C27.0491 40.8592 28.4837 42.0412 29.4919 43.5561C30.5001 45.071 31.0365 46.8507 31.0335 48.6704C31.0279 51.1108 30.0539 53.4491 28.3254 55.1717C26.5969 56.8944 24.2553 57.8604 21.8149 57.8576H21.8045Z" fill="url(#paint0_linear_397_1038)"/>
<path d="M21.7574 70.5325C21.0567 70.5325 20.377 70.5325 19.7077 70.5011C18.9946 70.4566 18.3187 70.1675 17.7939 69.6827C17.269 69.1979 16.9274 68.5469 16.8266 67.8396C16.6592 66.8932 16.5233 66.0566 16.403 65.2722C16.403 65.2199 16.403 65.1938 16.403 65.1833H16.3507C15.5769 64.901 14.8291 64.5768 14.1023 64.2631C13.386 64.786 12.6748 65.3088 11.9637 65.7847C11.3446 66.2761 10.5628 66.5157 9.77463 66.4556C8.98647 66.3955 8.25005 66.0401 7.71261 65.4605C6.95442 64.7232 6.14395 63.918 5.18183 62.9297C4.61545 62.4002 4.26516 61.6798 4.19854 60.9074C4.13192 60.1349 4.35367 59.3652 4.82103 58.7466C5.34392 58.0093 5.86681 57.2773 6.3897 56.5923C5.97139 55.6563 5.66289 54.9138 5.39099 54.2236L4.81058 54.1138C4.00533 53.9831 3.17393 53.8419 2.35823 53.6641C1.71629 53.5138 1.14123 53.1574 0.721024 52.6494C0.300815 52.1414 0.0585834 51.5097 0.0313733 50.851C-0.0104578 49.3607 -0.0104578 47.9908 0.0313733 46.6678C0.0736801 45.9342 0.372185 45.2387 0.874829 44.7026C1.37747 44.1665 2.05235 43.8239 2.78177 43.7344C3.62362 43.6037 4.46547 43.4678 5.30209 43.3161C5.61583 42.5841 5.94002 41.7893 6.26944 40.9213C6.008 40.5396 5.74655 40.1579 5.46419 39.7814C5.18183 39.4049 4.97267 39.0912 4.73214 38.7356C4.27073 38.1489 4.03811 37.4145 4.07755 36.6691C4.11698 35.9237 4.42578 35.218 4.94653 34.6832C5.87204 33.695 6.86553 32.7067 7.91131 31.7551C8.40836 31.3151 9.03722 31.0524 9.6995 31.0079C10.3618 30.9634 11.0201 31.1398 11.5715 31.5093C12.3245 32.0008 13.0565 32.5551 13.7572 33.078L13.9298 33.2035C14.803 32.8113 15.5664 32.4923 16.2775 32.2152H16.3246L16.403 31.6505C16.5337 30.8609 16.6645 30.0452 16.8423 29.2504C16.9916 28.5848 17.3596 27.9883 17.8874 27.5561C18.4153 27.124 19.0727 26.881 19.7547 26.866C21.2345 26.8399 22.547 26.8399 23.7705 26.866C24.5035 26.891 25.2046 27.1719 25.7519 27.6601C26.2993 28.1482 26.6583 28.8127 26.7667 29.538C26.9183 30.4008 27.0595 31.2635 27.1955 32.1525H27.2216C28.1628 32.5132 28.9576 32.8479 29.674 33.1669H29.7262C30.4426 32.6126 31.1642 32.1211 31.8178 31.64C32.4469 31.1492 33.2394 30.9165 34.034 30.9894C34.8286 31.0623 35.5656 31.4351 36.095 32.0322L36.7957 32.7276C37.465 33.3917 38.1552 34.0767 38.8036 34.793C39.2459 35.2879 39.5123 35.915 39.5615 36.5769C39.6107 37.2389 39.4398 37.8985 39.0755 38.4533C38.6101 39.1801 38.0925 39.886 37.5905 40.5448L37.3866 40.822C37.3832 40.8339 37.3832 40.8466 37.3866 40.8586C37.7683 41.7265 38.0663 42.4272 38.3173 43.1174C38.3295 43.1521 38.3452 43.1854 38.3644 43.2168C38.399 43.2227 38.4343 43.2227 38.4689 43.2168C39.4311 43.3684 40.3723 43.5201 41.3135 43.7397C41.9643 43.8855 42.5482 44.2436 42.9732 44.7576C43.3982 45.2716 43.6403 45.9123 43.6612 46.579C43.6978 48.064 43.6978 49.4078 43.6612 50.6941C43.6309 51.4257 43.3455 52.1237 42.8547 52.6671C42.3638 53.2104 41.6984 53.565 40.9736 53.6693C40.1056 53.8192 39.2341 53.9604 38.3591 54.0929H38.3068C37.9879 54.987 37.6219 55.8393 37.3395 56.4772C37.8624 57.1936 38.3487 57.8838 38.8402 58.5688C39.3433 59.2053 39.5835 60.0103 39.5115 60.8184C39.4396 61.6265 39.0609 62.3764 38.4533 62.914L38.218 63.1493C37.4179 63.9493 36.5918 64.7755 35.7551 65.5703C35.2434 66.0595 34.565 66.3362 33.8571 66.3442C33.1196 66.3705 32.3945 66.1497 31.7969 65.7167L30.8557 65.0474L29.6478 64.1794C28.7484 64.5716 28.0164 64.8748 27.3053 65.1467L27.253 65.1729C27.2498 65.1937 27.2498 65.2148 27.253 65.2356L27.1641 65.7899C27.0386 66.5533 26.9131 67.3586 26.7405 68.122C26.5985 68.7718 26.2446 69.356 25.7345 69.7829C25.2243 70.2097 24.5869 70.455 23.9222 70.4802C23.1797 70.522 22.4581 70.5325 21.7574 70.5325ZM14.0605 63.1755C14.2086 63.18 14.3543 63.2138 14.4893 63.2748C15.2056 63.5885 15.9481 63.9075 16.6906 64.1794C16.8936 64.2445 17.0728 64.368 17.2058 64.5345C17.3388 64.701 17.4197 64.9031 17.4383 65.1154C17.5534 65.8945 17.6893 66.7206 17.8567 67.6566C17.9211 68.1259 18.143 68.5594 18.4859 68.8861C18.8288 69.2129 19.2725 69.4136 19.7443 69.4553C21.0567 69.5024 22.4163 69.5024 23.9013 69.4553C24.332 69.4332 24.7439 69.2711 25.0741 68.9936C25.4044 68.7162 25.6352 68.3386 25.7314 67.9181C25.8935 67.1651 26.019 66.3912 26.1445 65.6435L26.2333 65.0892C26.2522 64.8851 26.3307 64.691 26.459 64.5311C26.5873 64.3712 26.7597 64.2525 26.9549 64.1899C27.6608 63.9232 28.3929 63.6199 29.2556 63.2382C29.4216 63.1524 29.6091 63.1171 29.795 63.1366C29.9808 63.1561 30.1569 63.2296 30.3014 63.348L31.5093 64.216L32.4557 64.8905C32.8703 65.189 33.3728 65.3399 33.8832 65.3193C34.3319 65.3141 34.7619 65.1384 35.0858 64.8278C35.9068 64.0487 36.7277 63.2277 37.5225 62.433L37.763 62.1924C38.1934 61.8278 38.4627 61.3083 38.5126 60.7465C38.5625 60.1847 38.389 59.6258 38.0297 59.191C37.5382 58.4904 37.0415 57.7949 36.5343 57.0995C36.4173 56.9541 36.3451 56.7778 36.3266 56.5921C36.308 56.4065 36.3438 56.2194 36.4297 56.0537C36.7016 55.4262 37.0624 54.5896 37.3918 53.7268C37.4594 53.5522 37.5728 53.3989 37.72 53.283C37.8671 53.1671 38.0427 53.0928 38.2284 53.068C39.0912 52.9373 39.9487 52.7961 40.8063 52.6497C41.2935 52.5877 41.7433 52.3562 42.077 51.9957C42.4107 51.6353 42.6068 51.169 42.6311 50.6784C42.6677 49.4078 42.6677 48.064 42.6311 46.6103C42.6127 46.1802 42.454 45.768 42.1792 45.4366C41.9045 45.1052 41.5288 44.8728 41.1095 44.775C40.1945 44.5815 39.269 44.4299 38.3225 44.2835C38.0998 44.2604 37.8887 44.1722 37.7157 44.03C37.5428 43.8877 37.4155 43.6976 37.35 43.4835C37.1094 42.8351 36.8271 42.1344 36.4454 41.2926C36.3553 41.1207 36.3172 40.9263 36.3357 40.7332C36.3543 40.54 36.4287 40.3565 36.5499 40.2049L36.7539 39.9278C37.2454 39.2585 37.7526 38.5631 38.2023 37.8624C38.4441 37.5022 38.559 37.0717 38.5287 36.6389C38.4984 36.2061 38.3246 35.7958 38.0349 35.4728C37.4075 34.7826 36.7225 34.1028 36.0637 33.4492L35.3578 32.7485C35.0035 32.3254 34.4965 32.0594 33.947 32.0085C33.3976 31.9576 32.8503 32.1259 32.4243 32.4766C31.755 32.942 31.0439 33.444 30.3328 33.9721C30.1814 34.0932 29.9986 34.1684 29.8058 34.1887C29.6131 34.2091 29.4185 34.1739 29.2452 34.0871C28.5445 33.7734 27.7602 33.4492 26.8503 33.0937C26.6663 33.0367 26.5029 32.9271 26.3802 32.7785C26.2576 32.6298 26.1811 32.4486 26.1601 32.257C26.0242 31.389 25.883 30.5367 25.7314 29.674C25.6641 29.1871 25.4277 28.7395 25.0634 28.4096C24.6991 28.0798 24.2303 27.8887 23.7392 27.87C22.5313 27.8438 21.2345 27.8438 19.7704 27.87C19.3221 27.8802 18.89 28.0402 18.5432 28.3245C18.1963 28.6088 17.9546 29.001 17.8567 29.4387C17.6841 30.2021 17.5534 31.0073 17.4279 31.776L17.339 32.3302C17.3128 32.5198 17.235 32.6985 17.1143 32.847C16.9935 32.9954 16.8343 33.1079 16.654 33.1721C15.9586 33.444 15.2108 33.7577 14.3585 34.1394C14.1934 34.2273 14.0059 34.2643 13.8198 34.2456C13.6337 34.227 13.4572 34.1537 13.3128 34.0349L13.1454 33.9094C12.45 33.3865 11.7336 32.8636 11.0016 32.393C10.6425 32.1435 10.2099 32.0223 9.77354 32.0489C9.33715 32.0754 8.92243 32.2482 8.59629 32.5394C7.55052 33.4701 6.59363 34.4375 5.69426 35.4048C5.33386 35.7638 5.12106 36.2448 5.09783 36.753C5.0746 37.2612 5.24262 37.7596 5.56877 38.15L6.29558 39.1958C6.58317 39.5932 6.86553 39.9906 7.14266 40.3984C7.22427 40.526 7.27565 40.6705 7.29287 40.8209C7.31009 40.9713 7.29269 41.1237 7.24201 41.2664C6.8969 42.1762 6.56225 43.0024 6.19623 43.7867C6.13208 43.9299 6.03529 44.056 5.91361 44.1549C5.79193 44.2539 5.64876 44.323 5.49556 44.3567C4.63802 44.5135 3.77003 44.6547 2.88112 44.7907C2.39209 44.841 1.93642 45.062 1.5941 45.4148C1.25178 45.7677 1.04469 46.2298 1.00917 46.7201C0.967342 48.0274 0.967342 49.3764 1.00917 50.8457C1.03057 51.2714 1.18864 51.6788 1.45992 52.0076C1.73119 52.3363 2.10122 52.5688 2.5151 52.6706C3.30466 52.8432 4.12036 52.9791 4.90992 53.1046L5.47988 53.1987C5.66238 53.2275 5.83401 53.3041 5.97729 53.4208C6.12058 53.5374 6.2304 53.6899 6.29558 53.8628C6.56748 54.5582 6.87599 55.2955 7.27862 56.1897C7.3672 56.3543 7.40503 56.5415 7.38735 56.7276C7.36967 56.9137 7.29726 57.0904 7.17927 57.2354C6.65638 57.9204 6.13349 58.6525 5.6106 59.3845C5.28508 59.8012 5.12946 60.3257 5.17506 60.8525C5.22066 61.3793 5.46409 61.8692 5.85636 62.2238C6.8237 63.2068 7.61849 64.0068 8.36622 64.7337C8.72745 65.146 9.23613 65.4001 9.78279 65.4411C10.3295 65.4822 10.8704 65.307 11.2892 64.9533C12.0108 64.4304 12.7323 63.9441 13.4435 63.4212C13.6127 63.2674 13.8319 63.1801 14.0605 63.1755ZM21.8934 58.3858H21.8149C20.5218 58.3805 19.2425 58.1185 18.0514 57.6149C16.8603 57.1114 15.781 56.3763 14.8762 55.4524C13.9862 54.5549 13.2834 53.4895 12.8085 52.3181C12.3337 51.1467 12.0963 49.8926 12.1101 48.6287C12.1415 46.0634 13.1778 43.6127 14.9962 41.803C16.8147 39.9933 19.2704 38.969 21.8358 38.95C23.1201 38.9505 24.3914 39.2059 25.5762 39.7014C26.761 40.1968 27.8357 40.9225 28.738 41.8364C29.6406 42.735 30.3552 43.8045 30.84 44.9824C31.3248 46.1603 31.5701 47.4229 31.5616 48.6967C31.5571 49.9862 31.297 51.2621 30.7962 52.4504C30.2953 53.6388 29.5638 54.716 28.6439 55.6197C26.8454 57.3936 24.4194 58.3858 21.8934 58.3806V58.3858ZM21.8358 39.9801C20.6964 39.9753 19.5672 40.1958 18.5133 40.629C17.4594 41.0622 16.5015 41.6995 15.6948 42.5042C14.8881 43.309 14.2485 44.2653 13.8128 45.3182C13.3771 46.371 13.1538 47.4997 13.1559 48.6391C13.1438 49.7657 13.3558 50.8835 13.7795 51.9275C14.2032 52.9714 14.8301 53.9208 15.6239 54.7203C16.432 55.545 17.3959 56.2008 18.4596 56.6496C19.5233 57.0984 20.6656 57.3313 21.8202 57.3348C22.9503 57.3512 24.0722 57.1397 25.1188 56.713C26.1654 56.2863 27.1153 55.653 27.9118 54.8511C28.7359 54.0448 29.3914 53.0827 29.8403 52.0207C30.2891 50.9588 30.5223 49.8182 30.5263 48.6653C30.5293 47.5283 30.3057 46.4021 29.8685 45.3526C29.4312 44.3031 28.7892 43.3512 27.9798 42.5527C27.1754 41.7432 26.219 41.1007 25.1655 40.6619C24.112 40.2231 22.9823 39.9967 21.8411 39.9958L21.8358 39.9801Z" fill="#231F20"/>
<path d="M69.607 5.8772H30.9551C25.9129 5.8772 21.8254 9.96468 21.8254 15.0068V92.3473C21.8254 97.3895 25.9129 101.477 30.9551 101.477H69.607C74.6492 101.477 78.7367 97.3895 78.7367 92.3473V15.0068C78.7367 9.96468 74.6492 5.8772 69.607 5.8772Z" fill="url(#paint1_linear_397_1038)"/>
<path d="M69.607 102H30.955C28.3963 101.996 25.9435 100.978 24.1342 99.1683C22.3249 97.359 21.3066 94.9063 21.3025 92.3475V15.007C21.3066 12.4483 22.3249 9.99554 24.1342 8.18624C25.9435 6.37693 28.3963 5.35864 30.955 5.35449H69.607C72.1661 5.35726 74.6197 6.37511 76.4293 8.18471C78.2389 9.99431 79.2567 12.4479 79.2595 15.007V92.3475C79.2567 94.9067 78.2389 97.3602 76.4293 99.1698C74.6197 100.979 72.1661 101.997 69.607 102ZM30.955 6.40027C28.6732 6.40304 26.4857 7.31071 24.8722 8.92419C23.2587 10.5377 22.351 12.7252 22.3483 15.007V92.3475C22.3524 94.6289 23.2605 96.8157 24.8737 98.4288C26.4869 100.042 28.6736 100.95 30.955 100.954H69.607C71.8888 100.952 74.0763 100.044 75.6898 98.4304C77.3033 96.8169 78.211 94.6293 78.2137 92.3475V15.007C78.2123 12.7248 77.3051 10.5364 75.6913 8.92266C74.0776 7.30888 71.8892 6.40166 69.607 6.40027H30.955Z" fill="#231F20"/>
<path d="M78.7367 18.8762H21.8254V88.3682H78.7367V18.8762Z" fill="white"/>
<path d="M78.7366 88.886H21.8254C21.6867 88.886 21.5537 88.8309 21.4556 88.7329C21.3576 88.6348 21.3025 88.5018 21.3025 88.3631V18.8764C21.3025 18.7377 21.3576 18.6047 21.4556 18.5067C21.5537 18.4086 21.6867 18.3535 21.8254 18.3535H78.7366C78.8753 18.3535 79.0083 18.4086 79.1063 18.5067C79.2044 18.6047 79.2595 18.7377 79.2595 18.8764V88.3631C79.2595 88.5018 79.2044 88.6348 79.1063 88.7329C79.0083 88.8309 78.8753 88.886 78.7366 88.886ZM22.3483 87.8402H78.2137V19.3993H22.3483V87.8402Z" fill="#231F20"/>
<path d="M67.1232 74.3286H13.0042V83.2125H67.1232V74.3286Z" fill="white"/>
<path d="M67.1232 83.7352H13.0042C12.8655 83.7352 12.7325 83.6801 12.6345 83.582C12.5364 83.484 12.4813 83.351 12.4813 83.2123V74.3232C12.4813 74.1845 12.5364 74.0515 12.6345 73.9534C12.7325 73.8554 12.8655 73.8003 13.0042 73.8003H67.1232C67.2619 73.8003 67.3949 73.8554 67.493 73.9534C67.591 74.0515 67.6461 74.1845 67.6461 74.3232V83.2123C67.6461 83.351 67.591 83.484 67.493 83.582C67.3949 83.6801 67.2619 83.7352 67.1232 83.7352ZM13.5271 82.6894H66.6003V74.8461H13.5271V82.6894Z" fill="#231F20"/>
<path d="M67.1285 74.3286H58.1034V83.2125H67.1285V74.3286Z" fill="url(#paint2_linear_397_1038)"/>
<path d="M67.1232 83.7352H58.1033C57.9647 83.7352 57.8317 83.6801 57.7336 83.582C57.6355 83.484 57.5804 83.351 57.5804 83.2123V74.3232C57.5804 74.1845 57.6355 74.0515 57.7336 73.9534C57.8317 73.8554 57.9647 73.8003 58.1033 73.8003H67.1232C67.2618 73.8003 67.3948 73.8554 67.4929 73.9534C67.591 74.0515 67.6461 74.1845 67.6461 74.3232V83.2123C67.6461 83.351 67.591 83.484 67.4929 83.582C67.3948 83.6801 67.2618 83.7352 67.1232 83.7352ZM58.6262 82.6894H66.6003V74.8461H58.6262V82.6894Z" fill="#231F20"/>
<path d="M61.9937 80.7447C61.5066 80.7447 61.0304 80.6003 60.6254 80.3296C60.2204 80.059 59.9048 79.6744 59.7184 79.2244C59.532 78.7744 59.4832 78.2792 59.5782 77.8014C59.6732 77.3237 59.9078 76.8849 60.2522 76.5404C60.5967 76.196 61.0355 75.9614 61.5132 75.8664C61.991 75.7714 62.4861 75.8202 62.9362 76.0066C63.3862 76.193 63.7708 76.5086 64.0414 76.9136C64.3121 77.3187 64.4565 77.7948 64.4565 78.2819C64.4551 78.9347 64.1952 79.5603 63.7336 80.0218C63.2721 80.4834 62.6464 80.7433 61.9937 80.7447ZM61.9937 76.8649C61.7134 76.8649 61.4395 76.948 61.2064 77.1037C60.9734 77.2594 60.7918 77.4807 60.6845 77.7396C60.5773 77.9986 60.5492 78.2835 60.6039 78.5583C60.6586 78.8332 60.7935 79.0857 60.9917 79.2839C61.1899 79.4821 61.4424 79.617 61.7172 79.6717C61.9921 79.7264 62.277 79.6983 62.536 79.5911C62.7949 79.4838 63.0162 79.3022 63.1719 79.0692C63.3276 78.8361 63.4107 78.5622 63.4107 78.2819C63.4107 78.0958 63.3741 77.9115 63.3029 77.7396C63.2316 77.5677 63.1273 77.4115 62.9957 77.2799C62.8641 77.1483 62.7079 77.044 62.536 76.9727C62.364 76.9015 62.1798 76.8649 61.9937 76.8649Z" fill="#231F20"/>
<path d="M65.7009 81.8583C65.5864 81.8566 65.4752 81.8201 65.3819 81.7537L63.0969 80.0177C62.986 79.9338 62.9129 79.8093 62.8938 79.6715C62.8747 79.5337 62.911 79.394 62.9949 79.2831C63.0788 79.1721 63.2034 79.0991 63.3412 79.0799C63.4789 79.0608 63.6187 79.0972 63.7296 79.1811L66.0146 80.9171C66.0703 80.9583 66.1172 81.0102 66.1527 81.0697C66.1881 81.1293 66.2114 81.1953 66.2211 81.2639C66.2309 81.3325 66.2269 81.4023 66.2094 81.4693C66.1919 81.5364 66.1612 81.5993 66.1192 81.6544C66.07 81.7183 66.0066 81.7701 65.934 81.8054C65.8614 81.8408 65.7816 81.8589 65.7009 81.8583Z" fill="#231F20"/>
<path d="M41.852 79.296H18.6881C18.5494 79.296 18.4164 79.2409 18.3183 79.1429C18.2203 79.0448 18.1652 78.9118 18.1652 78.7731C18.1652 78.6345 18.2203 78.5015 18.3183 78.4034C18.4164 78.3053 18.5494 78.2502 18.6881 78.2502H41.852C41.9907 78.2502 42.1237 78.3053 42.2218 78.4034C42.3198 78.5015 42.3749 78.6345 42.3749 78.7731C42.3749 78.9118 42.3198 79.0448 42.2218 79.1429C42.1237 79.2409 41.9907 79.296 41.852 79.296Z" fill="#DFEAEF"/>
<path d="M48.8953 79.296H45.758C45.6193 79.296 45.4863 79.2409 45.3883 79.1429C45.2902 79.0448 45.2351 78.9118 45.2351 78.7731C45.2351 78.6345 45.2902 78.5015 45.3883 78.4034C45.4863 78.3053 45.6193 78.2502 45.758 78.2502H48.8953C49.034 78.2502 49.167 78.3053 49.2651 78.4034C49.3631 78.5015 49.4182 78.6345 49.4182 78.7731C49.4182 78.9118 49.3631 79.0448 49.2651 79.1429C49.167 79.2409 49.034 79.296 48.8953 79.296Z" fill="#DFEAEF"/>
<path d="M91.5736 0.522705H37.5382V70.0147H91.5736V0.522705Z" fill="white"/>
<path d="M91.5735 70.5325H37.5381C37.3995 70.5325 37.2665 70.4774 37.1684 70.3793C37.0703 70.2813 37.0153 70.1483 37.0153 70.0096V0.522889C37.0153 0.38421 37.0703 0.251213 37.1684 0.153152C37.2665 0.0550915 37.3995 0 37.5381 0H91.5735C91.7122 0 91.8452 0.0550915 91.9432 0.153152C92.0413 0.251213 92.0964 0.38421 92.0964 0.522889V70.0096C92.0964 70.1483 92.0413 70.2813 91.9432 70.3793C91.8452 70.4774 91.7122 70.5325 91.5735 70.5325ZM38.061 69.4867H91.0506V1.04578H38.061V69.4867Z" fill="#231F20"/>
<path d="M83.4478 35.3997H45.9828C45.8442 35.3997 45.7112 35.3446 45.6131 35.2466C45.5151 35.1485 45.46 35.0155 45.46 34.8768V8.66962C45.46 8.53094 45.5151 8.39794 45.6131 8.29988C45.7112 8.20182 45.8442 8.14673 45.9828 8.14673H83.4478C83.5865 8.14673 83.7195 8.20182 83.8176 8.29988C83.9157 8.39794 83.9707 8.53094 83.9707 8.66962V34.8768C83.9707 34.9455 83.9572 35.0135 83.9309 35.0769C83.9047 35.1404 83.8661 35.198 83.8176 35.2466C83.769 35.2951 83.7114 35.3336 83.6479 35.3599C83.5845 35.3862 83.5165 35.3997 83.4478 35.3997ZM46.5057 34.3539H82.925V9.19251H46.5057V34.3539Z" fill="#DFEAEF"/>
<path d="M83.4478 40.5973H45.9828C45.8442 40.5973 45.7112 40.5422 45.6131 40.4441C45.5151 40.3461 45.46 40.2131 45.46 40.0744C45.46 39.9357 45.5151 39.8027 45.6131 39.7047C45.7112 39.6066 45.8442 39.5515 45.9828 39.5515H83.4478C83.5865 39.5515 83.7195 39.6066 83.8176 39.7047C83.9157 39.8027 83.9707 39.9357 83.9707 40.0744C83.9707 40.2131 83.9157 40.3461 83.8176 40.4441C83.7195 40.5422 83.5865 40.5973 83.4478 40.5973Z" fill="#DFEAEF"/>
<path d="M83.4479 46.1918H75.9915C75.8528 46.1918 75.7198 46.1367 75.6218 46.0386C75.5237 45.9406 75.4686 45.8076 75.4686 45.6689C75.4686 45.5302 75.5237 45.3972 75.6218 45.2991C75.7198 45.2011 75.8528 45.146 75.9915 45.146H83.4479C83.5866 45.146 83.7196 45.2011 83.8176 45.2991C83.9157 45.3972 83.9708 45.5302 83.9708 45.6689C83.9708 45.8076 83.9157 45.9406 83.8176 46.0386C83.7196 46.1367 83.5866 46.1918 83.4479 46.1918Z" fill="#DFEAEF"/>
<path d="M70.9037 46.1918H45.9828C45.8442 46.1918 45.7112 46.1367 45.6131 46.0386C45.5151 45.9406 45.46 45.8076 45.46 45.6689C45.46 45.5302 45.5151 45.3972 45.6131 45.2991C45.7112 45.2011 45.8442 45.146 45.9828 45.146H70.9037C71.0424 45.146 71.1754 45.2011 71.2735 45.2991C71.3715 45.3972 71.4266 45.5302 71.4266 45.6689C71.4266 45.8076 71.3715 45.9406 71.2735 46.0386C71.1754 46.1367 71.0424 46.1918 70.9037 46.1918Z" fill="#DFEAEF"/>
<path d="M83.4478 51.787H61.157C61.0184 51.787 60.8854 51.7319 60.7873 51.6338C60.6892 51.5358 60.6342 51.4028 60.6342 51.2641C60.6342 51.1254 60.6892 50.9924 60.7873 50.8944C60.8854 50.7963 61.0184 50.7412 61.157 50.7412H83.4478C83.5865 50.7412 83.7195 50.7963 83.8175 50.8944C83.9156 50.9924 83.9707 51.1254 83.9707 51.2641C83.9707 51.4028 83.9156 51.5358 83.8175 51.6338C83.7195 51.7319 83.5865 51.787 83.4478 51.787Z" fill="#DFEAEF"/>
<path d="M56.9635 51.787H45.9828C45.8442 51.787 45.7112 51.7319 45.6131 51.6338C45.5151 51.5358 45.46 51.4028 45.46 51.2641C45.46 51.1254 45.5151 50.9924 45.6131 50.8944C45.7112 50.7963 45.8442 50.7412 45.9828 50.7412H56.9635C57.1022 50.7412 57.2352 50.7963 57.3333 50.8944C57.4313 50.9924 57.4864 51.1254 57.4864 51.2641C57.4864 51.4028 57.4313 51.5358 57.3333 51.6338C57.2352 51.7319 57.1022 51.787 56.9635 51.787Z" fill="#DFEAEF"/>
<path d="M79.4531 56.4302H49.6066C47.4003 56.4302 45.6117 58.2187 45.6117 60.4251C45.6117 62.6314 47.4003 64.4199 49.6066 64.4199H79.4531C81.6594 64.4199 83.4479 62.6314 83.4479 60.4251C83.4479 58.2187 81.6594 56.4302 79.4531 56.4302Z" fill="url(#paint3_linear_397_1038)"/>
<path d="M79.4529 64.9377H49.6064C49.0005 64.9583 48.3967 64.8568 47.8309 64.6392C47.2651 64.4215 46.7489 64.0923 46.313 63.671C45.8771 63.2497 45.5304 62.7449 45.2937 62.1869C45.0569 61.6288 44.9349 61.0288 44.9349 60.4226C44.9349 59.8163 45.0569 59.2163 45.2937 58.6582C45.5304 58.1002 45.8771 57.5954 46.313 57.1741C46.7489 56.7528 47.2651 56.4236 47.8309 56.2059C48.3967 55.9883 49.0005 55.8868 49.6064 55.9074H79.4529C80.0587 55.8868 80.6626 55.9883 81.2284 56.2059C81.7942 56.4236 82.3104 56.7528 82.7463 57.1741C83.1822 57.5954 83.5288 58.1002 83.7656 58.6582C84.0023 59.2163 84.1243 59.8163 84.1243 60.4226C84.1243 61.0288 84.0023 61.6288 83.7656 62.1869C83.5288 62.7449 83.1822 63.2497 82.7463 63.671C82.3104 64.0923 81.7942 64.4215 81.2284 64.6392C80.6626 64.8568 80.0587 64.9583 79.4529 64.9377ZM49.6064 56.9532C49.1394 56.935 48.6736 57.0114 48.2369 57.1775C47.8002 57.3437 47.4015 57.5964 47.0647 57.9203C46.7279 58.2443 46.46 58.6329 46.277 59.0628C46.094 59.4928 45.9997 59.9553 45.9997 60.4226C45.9997 60.8898 46.094 61.3523 46.277 61.7823C46.46 62.2122 46.7279 62.6008 47.0647 62.9248C47.4015 63.2487 47.8002 63.5014 48.2369 63.6676C48.6736 63.8337 49.1394 63.91 49.6064 63.8919H79.4529C79.9198 63.91 80.3856 63.8337 80.8223 63.6676C81.2591 63.5014 81.6578 63.2487 81.9946 62.9248C82.3313 62.6008 82.5992 62.2122 82.7822 61.7823C82.9652 61.3523 83.0596 60.8898 83.0596 60.4226C83.0596 59.9553 82.9652 59.4928 82.7822 59.0628C82.5992 58.6329 82.3313 58.2443 81.9946 57.9203C81.6578 57.5964 81.2591 57.3437 80.8223 57.1775C80.3856 57.0114 79.9198 56.935 79.4529 56.9532H49.6064Z" fill="#231F20"/>
<path d="M51.4732 5.22376H46.9084C46.7697 5.22376 46.6367 5.16867 46.5386 5.07061C46.4406 4.97255 46.3855 4.83955 46.3855 4.70087C46.3855 4.56219 46.4406 4.42919 46.5386 4.33113C46.6367 4.23307 46.7697 4.17798 46.9084 4.17798H51.4732C51.6119 4.17798 51.7449 4.23307 51.8429 4.33113C51.941 4.42919 51.9961 4.56219 51.9961 4.70087C51.9961 4.83955 51.941 4.97255 51.8429 5.07061C51.7449 5.16867 51.6119 5.22376 51.4732 5.22376Z" fill="#231F20"/>
<path d="M73.926 5.22376H71.6148C71.4761 5.22376 71.3431 5.16867 71.2451 5.07061C71.147 4.97255 71.0919 4.83955 71.0919 4.70087C71.0919 4.56219 71.147 4.42919 71.2451 4.33113C71.3431 4.23307 71.4761 4.17798 71.6148 4.17798H73.926C74.0647 4.17798 74.1977 4.23307 74.2957 4.33113C74.3938 4.42919 74.4489 4.56219 74.4489 4.70087C74.4489 4.83955 74.3938 4.97255 74.2957 5.07061C74.1977 5.16867 74.0647 5.22376 73.926 5.22376Z" fill="#231F20"/>
<path d="M82.036 5.22376H79.7458C79.6071 5.22376 79.4741 5.16867 79.3761 5.07061C79.278 4.97255 79.2229 4.83955 79.2229 4.70087C79.2229 4.56219 79.278 4.42919 79.3761 4.33113C79.4741 4.23307 79.6071 4.17798 79.7458 4.17798H82.0622C82.2009 4.17798 82.3339 4.23307 82.4319 4.33113C82.53 4.42919 82.5851 4.56219 82.5851 4.70087C82.5851 4.83955 82.53 4.97255 82.4319 5.07061C82.3339 5.16867 82.2009 5.22376 82.0622 5.22376H82.036Z" fill="#231F20"/>
<path d="M50.281 98.1357C52.2072 98.1357 53.7687 96.5743 53.7687 94.6481C53.7687 92.7219 52.2072 91.1604 50.281 91.1604C48.3548 91.1604 46.7933 92.7219 46.7933 94.6481C46.7933 96.5743 48.3548 98.1357 50.281 98.1357Z" fill="#231F20"/>
<defs>
<linearGradient id="paint0_linear_397_1038" x1="-15.7089" y1="34.2313" x2="54.83" y2="64.9579" gradientUnits="userSpaceOnUse">
<stop stop-color="#EE6593"/>
<stop offset="1" stop-color="#EE9665"/>
</linearGradient>
<linearGradient id="paint1_linear_397_1038" x1="0.226834" y1="21.4293" x2="105.05" y2="48.5986" gradientUnits="userSpaceOnUse">
<stop stop-color="#EE6593"/>
<stop offset="1" stop-color="#EE9665"/>
</linearGradient>
<linearGradient id="paint2_linear_397_1038" x1="54.6783" y1="75.7738" x2="69.5153" y2="82.3364" gradientUnits="userSpaceOnUse">
<stop stop-color="#EE6593"/>
<stop offset="1" stop-color="#EE9665"/>
</linearGradient>
<linearGradient id="paint3_linear_397_1038" x1="31.2523" y1="57.7299" x2="45.4151" y2="86.9313" gradientUnits="userSpaceOnUse">
<stop stop-color="#EE6593"/>
<stop offset="1" stop-color="#EE9665"/>
</linearGradient>
</defs>
</svg>
