<svg width="104" height="93" viewBox="0 0 104 93" fill="none" xmlns="http://www.w3.org/2000/svg">
<path d="M79.3563 0.544678H4.48798V83.2755H79.3563V0.544678Z" fill="url(#paint0_linear_397_926)"/>
<path d="M79.3564 83.8253H4.4881C4.34369 83.8253 4.2052 83.7679 4.10309 83.6658C4.00097 83.5637 3.9436 83.4252 3.9436 83.2808V0.544497C3.9436 0.400087 4.00097 0.261592 4.10309 0.159479C4.2052 0.057366 4.34369 0 4.4881 0H79.3564C79.5008 0 79.6393 0.057366 79.7414 0.159479C79.8435 0.261592 79.9009 0.400087 79.9009 0.544497V83.308C79.8939 83.4476 79.8335 83.5792 79.7321 83.6755C79.6307 83.7718 79.4962 83.8255 79.3564 83.8253ZM5.0326 82.7363H78.8119V1.08899H5.0326V82.7363Z" fill="#231F20"/>
<path d="M86.1951 92.4556H13.434V19.3352L26.3495 7.37256H86.1951V92.4556Z" fill="white"/>
<path d="M86.1952 93.0001H13.4341C13.2897 93.0001 13.1512 92.9427 13.0491 92.8406C12.947 92.7385 12.8896 92.6 12.8896 92.4556V19.3351C12.8898 19.2605 12.9054 19.1867 12.9354 19.1183C12.9654 19.0499 13.0091 18.9884 13.0638 18.9376L25.9793 6.95872C26.0805 6.86669 26.2127 6.81615 26.3495 6.81715H86.1952C86.3396 6.81715 86.4781 6.87452 86.5802 6.97663C86.6823 7.07875 86.7397 7.21724 86.7397 7.36165V92.4556C86.7397 92.6 86.6823 92.7385 86.5802 92.8406C86.4781 92.9427 86.3396 93.0001 86.1952 93.0001ZM13.9786 91.9111H85.6507V7.91704H26.5619L13.9786 19.5747V91.9111Z" fill="#231F20"/>
<path d="M13.434 19.3352H26.2025L26.3495 7.37256L13.434 19.3352Z" fill="white"/>
<path d="M26.2025 19.8795H13.4341C13.325 19.8791 13.2186 19.846 13.1286 19.7844C13.0386 19.7228 12.9691 19.6357 12.9292 19.5342C12.8893 19.4327 12.8808 19.3215 12.9048 19.2151C12.9288 19.1088 12.9842 19.012 13.0638 18.9375L25.9793 6.95857C26.0576 6.88597 26.1554 6.83797 26.2607 6.82054C26.366 6.80311 26.4741 6.81702 26.5716 6.86053C26.6691 6.90404 26.7516 6.97524 26.8089 7.06528C26.8663 7.15532 26.8959 7.26022 26.8941 7.36694L26.747 19.3459C26.7442 19.4884 26.6856 19.6241 26.5838 19.7239C26.482 19.8236 26.3451 19.8795 26.2025 19.8795ZM14.8226 18.7905H25.6635L25.7887 8.63017L14.8226 18.7905Z" fill="#231F20"/>
<path d="M76.4868 29.7841H30.9124C30.768 29.7841 30.6295 29.7267 30.5274 29.6246C30.4253 29.5225 30.3679 29.384 30.3679 29.2396C30.3679 29.0952 30.4253 28.9567 30.5274 28.8545C30.6295 28.7524 30.768 28.6951 30.9124 28.6951H76.4868C76.6312 28.6951 76.7697 28.7524 76.8718 28.8545C76.9739 28.9567 77.0313 29.0952 77.0313 29.2396C77.0313 29.384 76.9739 29.5225 76.8718 29.6246C76.7697 29.7267 76.6312 29.7841 76.4868 29.7841Z" fill="#DFEAEF"/>
<path d="M60.435 37.3575H23.1588C23.0143 37.3575 22.8758 37.3002 22.7737 37.1981C22.6716 37.096 22.6143 36.9575 22.6143 36.8131C22.6143 36.6686 22.6716 36.5301 22.7737 36.428C22.8758 36.3259 23.0143 36.2686 23.1588 36.2686H60.435C60.5794 36.2686 60.7179 36.3259 60.82 36.428C60.9221 36.5301 60.9795 36.6686 60.9795 36.8131C60.9795 36.9575 60.9221 37.096 60.82 37.1981C60.7179 37.3002 60.5794 37.3575 60.435 37.3575Z" fill="#DFEAEF"/>
<path d="M76.4868 44.9318H21.754C21.6096 44.9318 21.4711 44.8744 21.369 44.7723C21.2668 44.6702 21.2095 44.5317 21.2095 44.3873C21.2095 44.2429 21.2668 44.1044 21.369 44.0023C21.4711 43.9001 21.6096 43.8428 21.754 43.8428H76.4868C76.6312 43.8428 76.7697 43.9001 76.8718 44.0023C76.9739 44.1044 77.0313 44.2429 77.0313 44.3873C77.0313 44.5317 76.9739 44.6702 76.8718 44.7723C76.7697 44.8744 76.6312 44.9318 76.4868 44.9318Z" fill="#DFEAEF"/>
<path d="M76.4869 52.4894H40.8169C40.6725 52.4894 40.534 52.432 40.4319 52.3299C40.3298 52.2278 40.2724 52.0893 40.2724 51.9449C40.2724 51.8005 40.3298 51.662 40.4319 51.5599C40.534 51.4578 40.6725 51.4004 40.8169 51.4004H76.4869C76.6313 51.4004 76.7698 51.4578 76.8719 51.5599C76.974 51.662 77.0314 51.8005 77.0314 51.9449C77.0314 52.0893 76.974 52.2278 76.8719 52.3299C76.7698 52.432 76.6313 52.4894 76.4869 52.4894Z" fill="#DFEAEF"/>
<path d="M35.3773 52.4894H28.2988C28.1544 52.4894 28.0159 52.432 27.9138 52.3299C27.8117 52.2278 27.7543 52.0893 27.7543 51.9449C27.7543 51.8005 27.8117 51.662 27.9138 51.5599C28.0159 51.4578 28.1544 51.4004 28.2988 51.4004H35.3773C35.5217 51.4004 35.6602 51.4578 35.7623 51.5599C35.8644 51.662 35.9218 51.8005 35.9218 51.9449C35.9218 52.0893 35.8644 52.2278 35.7623 52.3299C35.6602 52.432 35.5217 52.4894 35.3773 52.4894Z" fill="#DFEAEF"/>
<path d="M76.4867 60.0797H60.4349C60.2905 60.0797 60.152 60.0224 60.0499 59.9202C59.9478 59.8181 59.8904 59.6796 59.8904 59.5352C59.8904 59.3908 59.9478 59.2523 60.0499 59.1502C60.152 59.0481 60.2905 58.9907 60.4349 58.9907H76.4867C76.6311 58.9907 76.7696 59.0481 76.8717 59.1502C76.9738 59.2523 77.0312 59.3908 77.0312 59.5352C77.0312 59.6796 76.9738 59.8181 76.8717 59.9202C76.7696 60.0224 76.6311 60.0797 76.4867 60.0797Z" fill="#DFEAEF"/>
<path d="M56.3405 60.0797H23.1262C22.9818 60.0797 22.8433 60.0224 22.7412 59.9202C22.6391 59.8181 22.5817 59.6796 22.5817 59.5352C22.5817 59.3908 22.6391 59.2523 22.7412 59.1502C22.8433 59.0481 22.9818 58.9907 23.1262 58.9907H56.3405C56.4849 58.9907 56.6234 59.0481 56.7255 59.1502C56.8277 59.2523 56.885 59.3908 56.885 59.5352C56.885 59.6796 56.8277 59.8181 56.7255 59.9202C56.6234 60.0224 56.4849 60.0797 56.3405 60.0797Z" fill="#DFEAEF"/>
<path d="M76.4868 67.6539H67.8293C67.6849 67.6539 67.5464 67.5966 67.4443 67.4945C67.3422 67.3923 67.2848 67.2538 67.2848 67.1094C67.2848 66.965 67.3422 66.8265 67.4443 66.7244C67.5464 66.6223 67.6849 66.5649 67.8293 66.5649H76.4868C76.6312 66.5649 76.7697 66.6223 76.8718 66.7244C76.9739 66.8265 77.0313 66.965 77.0313 67.1094C77.0313 67.2538 76.9739 67.3923 76.8718 67.4945C76.7697 67.5966 76.6312 67.6539 76.4868 67.6539Z" fill="#DFEAEF"/>
<path d="M64.0831 67.6539H51.6904C51.546 67.6539 51.4075 67.5966 51.3054 67.4945C51.2032 67.3923 51.1459 67.2538 51.1459 67.1094C51.1459 66.965 51.2032 66.8265 51.3054 66.7244C51.4075 66.6223 51.546 66.5649 51.6904 66.5649H64.0831C64.2275 66.5649 64.366 66.6223 64.4681 66.7244C64.5702 66.8265 64.6276 66.965 64.6276 67.1094C64.6276 67.2538 64.5702 67.3923 64.4681 67.4945C64.366 67.5966 64.2275 67.6539 64.0831 67.6539Z" fill="#DFEAEF"/>
<path d="M47.2255 67.6539H37.3211C37.1767 67.6539 37.0382 67.5966 36.9361 67.4945C36.834 67.3923 36.7766 67.2538 36.7766 67.1094C36.7766 66.965 36.834 66.8265 36.9361 66.7244C37.0382 66.6223 37.1767 66.5649 37.3211 66.5649H47.2255C47.3699 66.5649 47.5084 66.6223 47.6105 66.7244C47.7126 66.8265 47.77 66.965 47.77 67.1094C47.77 67.2538 47.7126 67.3923 47.6105 67.4945C47.5084 67.5966 47.3699 67.6539 47.2255 67.6539Z" fill="#DFEAEF"/>
<path d="M33.4389 67.6539H23.1588C23.0143 67.6539 22.8758 67.5966 22.7737 67.4945C22.6716 67.3923 22.6143 67.2538 22.6143 67.1094C22.6143 66.965 22.6716 66.8265 22.7737 66.7244C22.8758 66.6223 23.0143 66.5649 23.1588 66.5649H33.4389C33.5833 66.5649 33.7218 66.6223 33.8239 66.7244C33.926 66.8265 33.9834 66.965 33.9834 67.1094C33.9834 67.2538 33.926 67.3923 33.8239 67.4945C33.7218 67.5966 33.5833 67.6539 33.4389 67.6539Z" fill="#DFEAEF"/>
<path d="M65.6785 75.2277H30.9124C30.768 75.2277 30.6295 75.1703 30.5274 75.0682C30.4253 74.9661 30.3679 74.8276 30.3679 74.6832C30.3679 74.5388 30.4253 74.4003 30.5274 74.2982C30.6295 74.196 30.768 74.1387 30.9124 74.1387H65.6785C65.8229 74.1387 65.9614 74.196 66.0635 74.2982C66.1657 74.4003 66.223 74.5388 66.223 74.6832C66.223 74.8276 66.1657 74.9661 66.0635 75.0682C65.9614 75.1703 65.8229 75.2277 65.6785 75.2277Z" fill="#DFEAEF"/>
<path d="M72.1308 37.3575H67.7748C67.6304 37.3575 67.4919 37.3002 67.3898 37.1981C67.2877 37.096 67.2303 36.9575 67.2303 36.8131C67.2303 36.6686 67.2877 36.5301 67.3898 36.428C67.4919 36.3259 67.6304 36.2686 67.7748 36.2686H72.1308C72.2752 36.2686 72.4137 36.3259 72.5158 36.428C72.6179 36.5301 72.6753 36.6686 72.6753 36.8131C72.6753 36.9575 72.6179 37.096 72.5158 37.1981C72.4137 37.3002 72.2752 37.3575 72.1308 37.3575Z" fill="#DFEAEF"/>
<path d="M76.4867 17.941H60.4349C60.2905 17.941 60.152 17.8837 60.0499 17.7816C59.9478 17.6795 59.8904 17.541 59.8904 17.3965C59.8904 17.2521 59.9478 17.1136 60.0499 17.0115C60.152 16.9094 60.2905 16.8521 60.4349 16.8521H76.4867C76.6311 16.8521 76.7696 16.9094 76.8717 17.0115C76.9738 17.1136 77.0312 17.2521 77.0312 17.3965C77.0312 17.541 76.9738 17.6795 76.8717 17.7816C76.7696 17.8837 76.6311 17.941 76.4867 17.941Z" fill="#DFEAEF"/>
<path d="M59.9396 49.6802H98.784V78.1138C98.784 78.6077 98.5878 79.0813 98.2385 79.4306C97.8893 79.7798 97.4157 79.976 96.9218 79.976H61.7854C61.2915 79.976 60.8179 79.7798 60.4686 79.4306C60.1194 79.0813 59.9232 78.6077 59.9232 78.1138V49.6802H59.9396Z" fill="white"/>
<path d="M96.9218 80.5201H61.7854C61.1475 80.5186 60.5362 80.2646 60.0852 79.8136C59.6342 79.3625 59.3802 78.7512 59.3787 78.1134V49.6798C59.3787 49.5353 59.4361 49.3968 59.5382 49.2947C59.6403 49.1926 59.7788 49.1353 59.9232 49.1353H98.8112C98.9556 49.1353 99.0941 49.1926 99.1962 49.2947C99.2983 49.3968 99.3557 49.5353 99.3557 49.6798V78.1134C99.355 78.4315 99.2913 78.7464 99.1684 79.0398C99.0455 79.3333 98.8658 79.5995 98.6396 79.8232C98.4133 80.0469 98.1451 80.2236 97.8503 80.3432C97.5555 80.4628 97.2399 80.5229 96.9218 80.5201ZM60.4841 50.2242V78.1134C60.4855 78.4624 60.6248 78.7967 60.8716 79.0435C61.1184 79.2903 61.4527 79.4296 61.8017 79.4311H96.9218C97.2708 79.4296 97.6051 79.2903 97.8519 79.0435C98.0987 78.7967 98.238 78.4624 98.2395 78.1134V50.2242H60.4841Z" fill="#231F20"/>
<path d="M61.7854 46.2927H96.8999C97.3938 46.2927 97.8675 46.4889 98.2167 46.8381C98.5659 47.1874 98.7621 47.661 98.7621 48.1549V49.6795H59.9395V48.1331C59.9452 47.6458 60.1417 47.1802 60.4868 46.8361C60.8318 46.4921 61.2981 46.297 61.7854 46.2927Z" fill="url(#paint1_linear_397_926)"/>
<path d="M98.8111 50.2244H59.9395C59.795 50.2244 59.6566 50.1671 59.5544 50.065C59.4523 49.9629 59.395 49.8244 59.395 49.6799V48.1336C59.395 47.4953 59.6485 46.8831 60.0999 46.4318C60.5512 45.9805 61.1633 45.7269 61.8016 45.7269H96.9217C97.2398 45.724 97.5554 45.7841 97.8502 45.9037C98.145 46.0233 98.4132 46.2 98.6395 46.4237C98.8657 46.6474 99.0454 46.9137 99.1683 47.2071C99.2912 47.5006 99.3549 47.8154 99.3556 48.1336V49.6582C99.3585 49.7315 99.3466 49.8046 99.3205 49.8732C99.2945 49.9418 99.2549 50.0045 99.204 50.0573C99.1531 50.1102 99.0921 50.1523 99.0246 50.181C98.9571 50.2097 98.8844 50.2245 98.8111 50.2244ZM60.5112 49.1355H98.2666V48.1336C98.2666 47.7841 98.1278 47.449 97.8806 47.2018C97.6335 46.9547 97.2984 46.8159 96.9489 46.8159H61.7853C61.4358 46.8159 61.1007 46.9547 60.8536 47.2018C60.6064 47.449 60.4676 47.7841 60.4676 48.1336L60.5112 49.1355Z" fill="#231F20"/>
<path d="M73.4321 70.115V54.6404L88.4657 62.3777L73.4321 70.115Z" fill="url(#paint2_linear_397_926)"/>
<path d="M73.4321 70.6595C73.3327 70.6586 73.2353 70.6324 73.1489 70.5832C73.0687 70.5344 73.0024 70.4656 72.9566 70.3835C72.9108 70.3015 72.887 70.2089 72.8876 70.115V54.6676C72.8879 54.5748 72.9119 54.4836 72.9573 54.4026C73.0028 54.3217 73.0681 54.2537 73.1472 54.2052C73.2263 54.1566 73.3166 54.1291 73.4093 54.1252C73.502 54.1213 73.5942 54.1412 73.6771 54.183L88.7161 61.9203C88.8049 61.9663 88.8793 62.0358 88.9312 62.1213C88.983 62.2068 89.0103 62.3049 89.0101 62.4049C89.0103 62.5049 88.983 62.603 88.9312 62.6885C88.8793 62.774 88.8049 62.8435 88.7161 62.8895L73.6771 70.6268C73.599 70.6563 73.5152 70.6675 73.4321 70.6595ZM73.9766 55.5334V69.222L87.2732 62.3777L73.9766 55.5334Z" fill="#231F20"/>
<path d="M93.8345 75.8214H64.889C64.7446 75.8214 64.6061 75.764 64.504 75.6619C64.4019 75.5598 64.3445 75.4213 64.3445 75.2769C64.3445 75.1325 64.4019 74.994 64.504 74.8919C64.6061 74.7898 64.7446 74.7324 64.889 74.7324H93.8345C93.9789 74.7324 94.1174 74.7898 94.2195 74.8919C94.3216 74.994 94.379 75.1325 94.379 75.2769C94.379 75.4213 94.3216 75.5598 94.2195 75.6619C94.1174 75.764 93.9789 75.8214 93.8345 75.8214Z" fill="#231F20"/>
<path d="M87.5238 76.9753C88.462 76.9753 89.2226 76.2147 89.2226 75.2765C89.2226 74.3382 88.462 73.5776 87.5238 73.5776C86.5855 73.5776 85.825 74.3382 85.825 75.2765C85.825 76.2147 86.5855 76.9753 87.5238 76.9753Z" fill="#231F20"/>
<path d="M87.5238 77.5362C87.0801 77.5362 86.6464 77.4046 86.2775 77.1581C85.9085 76.9116 85.621 76.5613 85.4512 76.1514C85.2814 75.7415 85.237 75.2904 85.3236 74.8552C85.4101 74.4201 85.6238 74.0204 85.9375 73.7066C86.2512 73.3929 86.651 73.1792 87.0861 73.0927C87.5213 73.0061 87.9724 73.0505 88.3823 73.2203C88.7922 73.3901 89.1425 73.6777 89.389 74.0466C89.6355 74.4155 89.7671 74.8492 89.7671 75.2929C89.7657 75.8874 89.5289 76.4572 89.1085 76.8776C88.6881 77.298 88.1183 77.5348 87.5238 77.5362ZM87.5238 74.1386C87.2955 74.1386 87.0723 74.2063 86.8825 74.3331C86.6926 74.4599 86.5447 74.6402 86.4573 74.8511C86.37 75.0621 86.3471 75.2942 86.3916 75.5181C86.4362 75.742 86.5461 75.9477 86.7076 76.1091C86.869 76.2706 87.0747 76.3805 87.2986 76.425C87.5225 76.4696 87.7546 76.4467 87.9655 76.3594C88.1765 76.272 88.3567 76.124 88.4836 75.9342C88.6104 75.7444 88.6781 75.5212 88.6781 75.2929C88.6803 75.1399 88.652 74.9881 88.595 74.8461C88.5379 74.7042 88.4533 74.575 88.3459 74.4661C88.2385 74.3571 88.1105 74.2707 87.9693 74.2116C87.8282 74.1526 87.6768 74.1222 87.5238 74.1222V74.1386Z" fill="#231F20"/>
<path d="M103.423 15.6597H71.6245V39.3507H103.423V15.6597Z" fill="url(#paint3_linear_397_926)"/>
<path d="M103.423 39.901H71.6245C71.48 39.901 71.3415 39.8436 71.2394 39.7415C71.1373 39.6394 71.08 39.5009 71.08 39.3565V15.66C71.08 15.5156 71.1373 15.3771 71.2394 15.275C71.3415 15.1728 71.48 15.1155 71.6245 15.1155H103.423C103.567 15.1155 103.706 15.1728 103.808 15.275C103.91 15.3771 103.968 15.5156 103.968 15.66V39.3565C103.968 39.5009 103.91 39.6394 103.808 39.7415C103.706 39.8436 103.567 39.901 103.423 39.901ZM72.1689 38.812H102.879V16.2045H72.1689V38.812Z" fill="#231F20"/>
<path d="M71.6244 33.2579C71.5352 33.258 71.4474 33.2362 71.3686 33.1945C71.2898 33.1527 71.2224 33.0922 71.1725 33.0183C71.1324 32.959 71.1043 32.8923 71.09 32.8222C71.0757 32.752 71.0753 32.6797 71.089 32.6094C71.1026 32.5391 71.13 32.4722 71.1696 32.4125C71.2091 32.3528 71.2601 32.3014 71.3195 32.2615L86.0754 22.3571C86.1686 22.2889 86.2811 22.2522 86.3966 22.2522C86.5121 22.2522 86.6246 22.2889 86.7179 22.3571L98.3483 31.6462C98.4597 31.7368 98.5308 31.8678 98.5461 32.0105C98.5614 32.1533 98.5196 32.2963 98.43 32.4085C98.3402 32.5207 98.2096 32.5928 98.0668 32.6091C97.924 32.6254 97.7805 32.5846 97.6677 32.4956L86.3476 23.457L71.9293 33.1381C71.8424 33.2084 71.736 33.2502 71.6244 33.2579Z" fill="#231F20"/>
<path d="M103.423 29.1631C103.301 29.1639 103.182 29.1237 103.085 29.0487L98.0434 25.1011L94.0304 29.0106C93.9789 29.0603 93.9182 29.0994 93.8516 29.1256C93.785 29.1518 93.7139 29.1647 93.6424 29.1634C93.5708 29.1621 93.5002 29.1468 93.4346 29.1182C93.369 29.0897 93.3097 29.0485 93.26 28.997C93.2103 28.9455 93.1712 28.8848 93.145 28.8182C93.1188 28.7516 93.1059 28.6805 93.1072 28.609C93.1085 28.5374 93.1238 28.4668 93.1523 28.4012C93.1809 28.3356 93.2221 28.2763 93.2736 28.2266L97.6295 23.9849C97.7239 23.8937 97.848 23.8396 97.9791 23.8326C98.1101 23.8256 98.2393 23.8661 98.3428 23.9468L103.761 28.1884C103.851 28.2582 103.916 28.3545 103.949 28.4636C103.981 28.5727 103.979 28.6892 103.941 28.7968C103.904 28.9044 103.834 28.9976 103.741 29.0633C103.648 29.129 103.537 29.1639 103.423 29.1631Z" fill="#231F20"/>
<path d="M93.23 23.6039C94.5051 23.6039 95.5387 22.5703 95.5387 21.2952C95.5387 20.0202 94.5051 18.9866 93.23 18.9866C91.955 18.9866 90.9214 20.0202 90.9214 21.2952C90.9214 22.5703 91.955 23.6039 93.23 23.6039Z" fill="white"/>
<path d="M93.23 24.1431C92.6652 24.1442 92.1129 23.9776 91.6428 23.6645C91.1728 23.3514 90.8062 22.9059 90.5896 22.3843C90.373 21.8627 90.316 21.2886 90.426 20.7346C90.5359 20.1807 90.8077 19.6718 91.2071 19.2724C91.6064 18.8731 92.1153 18.6012 92.6693 18.4913C93.2232 18.3814 93.7974 18.4384 94.3189 18.655C94.8405 18.8716 95.286 19.2382 95.5991 19.7082C95.9122 20.1782 96.0788 20.7306 96.0777 21.2954C96.0763 22.0502 95.7758 22.7737 95.2421 23.3074C94.7083 23.8412 93.9848 24.1417 93.23 24.1431ZM93.23 19.5312C92.8808 19.5301 92.5392 19.6327 92.2484 19.8259C91.9576 20.0191 91.7306 20.2942 91.5962 20.6165C91.4619 20.9387 91.4262 21.2936 91.4936 21.6362C91.5611 21.9788 91.7287 22.2936 91.9752 22.5409C92.2217 22.7882 92.536 22.9567 92.8784 23.0252C93.2207 23.0937 93.5757 23.0591 93.8984 22.9258C94.2211 22.7924 94.4969 22.5663 94.691 22.2761C94.8851 21.9858 94.9887 21.6445 94.9887 21.2954C94.9887 20.8284 94.8036 20.3805 94.4739 20.0498C94.1443 19.7191 93.6969 19.5326 93.23 19.5312Z" fill="#231F20"/>
<path d="M5.98275 33.3735L0.547424 35.6038L15.1653 71.2281L20.6006 68.9978L5.98275 33.3735Z" fill="url(#paint4_linear_397_926)"/>
<path d="M15.1601 71.7756C15.0893 71.7765 15.0191 71.7635 14.9532 71.7375C14.8868 71.7095 14.8267 71.6686 14.7762 71.6172C14.7257 71.5658 14.6859 71.5049 14.6592 71.438L0.0448984 35.817C0.0153012 35.7511 0 35.6797 0 35.6074C0 35.5351 0.0153012 35.4637 0.0448984 35.3978C0.100151 35.2647 0.20588 35.159 0.338927 35.1037L5.78389 32.8713C5.9175 32.8174 6.067 32.8187 6.19967 32.8748C6.33234 32.931 6.43736 33.0374 6.49174 33.1708L21.106 68.8244C21.1599 68.958 21.1586 69.1075 21.1025 69.2402C21.0464 69.3729 20.94 69.4779 20.8066 69.5323L15.3616 71.7647C15.2957 71.7808 15.2274 71.7845 15.1601 71.7756ZM1.25368 35.9041L15.4596 70.5232L19.8918 68.7046L5.70222 34.0855L1.25368 35.9041Z" fill="#231F20"/>
<path d="M20.5996 68.9988L21.1822 74.2749L21.754 79.5566L18.4597 75.3912L15.1601 71.2312L20.5996 68.9988Z" fill="white"/>
<path d="M21.754 80.1013C21.6713 80.1017 21.5896 80.0833 21.515 80.0474C21.4405 80.0116 21.3751 79.9592 21.3238 79.8944L14.73 71.5472C14.6783 71.4811 14.6425 71.404 14.6255 71.3218C14.6085 71.2397 14.6107 71.1547 14.632 71.0735C14.6536 70.992 14.6939 70.9166 14.7496 70.8533C14.8054 70.7899 14.8751 70.7405 14.9532 70.7087L20.3982 68.4763C20.476 68.4438 20.5603 68.4299 20.6443 68.4356C20.7284 68.4412 20.8101 68.4663 20.8828 68.5089C20.956 68.5516 21.0182 68.6107 21.0645 68.6816C21.1108 68.7525 21.14 68.8332 21.1496 68.9173L22.2985 79.4751C22.3074 79.5892 22.2801 79.7033 22.2205 79.8011C22.1609 79.8988 22.0719 79.9753 21.9664 80.0196C21.9021 80.0615 21.8297 80.0893 21.754 80.1013ZM16.0477 71.4601L21.0189 77.7381L20.1477 69.7776L16.0477 71.4601Z" fill="#231F20"/>
<path d="M21.1823 74.2749L21.754 79.5565L18.4598 75.3911L21.1823 74.2749Z" fill="#231F20"/>
<path d="M21.754 80.1008C21.6713 80.1012 21.5896 80.0828 21.515 80.047C21.4405 80.0111 21.3751 79.9588 21.3238 79.8939L18.0296 75.7285C17.978 75.6622 17.9424 75.5848 17.9256 75.5025C17.9089 75.4201 17.9114 75.335 17.933 75.2538C17.9546 75.1726 17.9948 75.0974 18.0502 75.0343C18.1057 74.9712 18.1751 74.9218 18.2529 74.89L20.9754 73.801C21.0531 73.7685 21.1374 73.7546 21.2215 73.7603C21.3056 73.7659 21.3872 73.791 21.46 73.8336C21.5321 73.8769 21.5933 73.9363 21.6386 74.0071C21.6839 74.078 21.7123 74.1584 21.7213 74.242L22.293 79.5236C22.302 79.6378 22.2747 79.7518 22.215 79.8496C22.1554 79.9473 22.0665 80.0238 21.9609 80.0681C21.8947 80.0923 21.8244 80.1034 21.754 80.1008ZM19.3146 75.6196L20.9862 77.7377L20.6977 75.0533L19.3146 75.6196Z" fill="#231F20"/>
<defs>
<linearGradient id="paint0_linear_397_926" x1="-23.9256" y1="14.0033" x2="103.46" y2="64.1949" gradientUnits="userSpaceOnUse">
<stop stop-color="#EE6593"/>
<stop offset="1" stop-color="#EE9665"/>
</linearGradient>
<linearGradient id="paint1_linear_397_926" x1="45.2058" y1="46.8437" x2="48.1511" y2="61.5434" gradientUnits="userSpaceOnUse">
<stop stop-color="#EE6593"/>
<stop offset="1" stop-color="#EE9665"/>
</linearGradient>
<linearGradient id="paint2_linear_397_926" x1="67.7267" y1="57.1578" x2="92.7922" y2="67.76" gradientUnits="userSpaceOnUse">
<stop stop-color="#EE6593"/>
<stop offset="1" stop-color="#EE9665"/>
</linearGradient>
<linearGradient id="paint3_linear_397_926" x1="59.5564" y1="19.5137" x2="106.148" y2="46.7416" gradientUnits="userSpaceOnUse">
<stop stop-color="#EE6593"/>
<stop offset="1" stop-color="#EE9665"/>
</linearGradient>
<linearGradient id="paint4_linear_397_926" x1="0.862669" y1="42.2455" x2="11.7894" y2="38.5875" gradientUnits="userSpaceOnUse">
<stop stop-color="#EE6593"/>
<stop offset="1" stop-color="#EE9665"/>
</linearGradient>
</defs>
</svg>
